<svg xmlns="http://www.w3.org/2000/svg" viewBox="-285 377 40 40"><path fill="#5D5E5E" stroke="#5D5E5E" d="M-279.6 382.1v30h30v-30h-30zm28.2 28.3h-26.5v-26.6h26.5v26.6h0z"/><path fill="#727373" d="M-279.1 382.5h29.1v29.1h-29.1v-29.1z"/><path fill="#EEEDE7" d="M-278.4 400.4l2.7-3.2 7.2 6.1 15.3-18.2 3.2 2.7-18.1 21.3z"/><path fill="#646464" d="M-253.1 385.8l2.4 2-17.4 20.6-9.6-8.1 2-2.4 7.2 6.1 15.4-18.2m-.1-1.4l-.6.8-14.8 17.4-6.4-5.5-.8-.6-.6.8-2 2.4-.6.8.8.6 9.6 8.1.8.6.6-.8 17.4-20.6.6-.8-.8-.6-2.4-2-.8-.6z"/></svg>