<?xml version="1.0" standalone="no"?>
<!DOCTYPE svg PUBLIC "-//W3C//DTD SVG 20010904//EN"
 "http://www.w3.org/TR/2001/REC-SVG-20010904/DTD/svg10.dtd">
<svg version="1.0" xmlns="http://www.w3.org/2000/svg"
 width="277.000000pt" height="56.000000pt" viewBox="0 0 277.000000 56.000000"
 preserveAspectRatio="xMidYMid meet">

<g transform="translate(0.000000,56.000000) scale(0.100000,-0.100000)"
fill="#000000" stroke="none">
<path d="M680 285 c0 -88 1 -95 20 -95 19 0 20 7 20 95 0 88 -1 95 -20 95 -19
0 -20 -7 -20 -95z"/>
<path d="M2190 365 c0 -8 9 -15 20 -15 11 0 20 7 20 15 0 8 -9 15 -20 15 -11
0 -20 -7 -20 -15z"/>
<path d="M100 280 l0 -90 65 0 c51 0 65 3 65 15 0 11 -11 15 -40 15 -36 0 -40
3 -40 25 0 22 4 25 35 25 24 0 35 5 35 15 0 10 -11 15 -35 15 -28 0 -35 4 -35
20 0 17 7 20 40 20 29 0 40 4 40 15 0 12 -14 15 -65 15 l-65 0 0 -90z"/>
<path d="M1623 360 c-28 -11 -41 -56 -22 -75 8 -7 30 -18 49 -22 21 -6 36 -16
38 -27 3 -16 -1 -18 -30 -14 -18 3 -41 8 -50 13 -14 5 -18 2 -18 -13 0 -33 78
-44 118 -16 17 12 22 24 20 47 -3 28 -8 33 -51 45 -28 8 -47 18 -44 25 5 16
52 21 77 7 17 -9 20 -8 20 8 0 29 -59 41 -107 22z"/>
<path d="M270 258 c0 -53 3 -68 14 -68 11 0 16 15 18 53 3 45 6 52 26 55 21 3
22 0 22 -52 0 -49 3 -56 19 -56 17 0 20 8 23 53 3 44 6 52 23 52 17 0 20 -8
23 -52 3 -45 6 -53 23 -53 16 0 19 7 19 54 0 74 -25 100 -71 75 -13 -6 -25 -7
-32 -1 -7 5 -33 9 -59 9 l-48 0 0 -69z"/>
<path d="M520 234 c0 -87 1 -94 20 -94 15 0 20 7 20 29 0 24 3 28 24 24 34 -7
66 28 66 70 0 45 -24 64 -82 65 l-48 0 0 -94z m85 26 c0 -29 -4 -36 -22 -38
-21 -3 -23 1 -23 38 0 37 2 41 23 38 18 -2 22 -9 22 -38z"/>
<path d="M782 314 c-31 -21 -31 -87 0 -108 49 -35 111 -4 111 54 0 58 -62 89
-111 54z m68 -34 c14 -26 -4 -63 -28 -58 -18 3 -28 39 -18 64 8 20 34 17 46
-6z"/>
<path d="M936 263 c21 -55 24 -73 16 -96 -10 -26 -9 -28 11 -25 17 2 28 21 54
87 38 98 39 104 16 99 -9 -2 -23 -22 -31 -48 -16 -48 -16 -47 -42 23 -6 17
-17 27 -29 27 -19 0 -19 -2 5 -67z"/>
<path d="M1095 305 c-14 -13 -25 -33 -25 -45 0 -46 65 -83 114 -64 27 10 18
24 -17 24 -31 0 -57 14 -57 32 0 4 23 8 50 8 56 0 65 15 30 50 -27 27 -66 25
-95 -5z m70 -15 c4 -6 -7 -10 -25 -10 -18 0 -29 4 -25 10 3 6 15 10 25 10 10
0 22 -4 25 -10z"/>
<path d="M1240 260 c0 -63 2 -70 20 -70 18 0 20 7 20 55 0 52 1 55 25 55 16 0
25 6 25 15 0 18 -5 18 -31 5 -13 -7 -19 -7 -19 0 0 5 -9 10 -20 10 -18 0 -20
-7 -20 -70z"/>
<path d="M1455 305 c-14 -13 -25 -33 -25 -45 0 -46 65 -83 114 -64 29 11 18
31 -14 26 -29 -4 -60 11 -60 29 0 5 20 9 45 9 41 0 45 2 45 25 0 47 -66 60
-105 20z m70 -15 c4 -6 -7 -10 -25 -10 -18 0 -29 4 -25 10 3 6 15 10 25 10 10
0 22 -4 25 -10z"/>
<path d="M1780 310 c-23 -23 -27 -82 -7 -98 32 -27 117 -26 117 1 0 7 -15 12
-42 12 -33 0 -43 4 -46 18 -3 14 4 17 42 17 39 0 46 3 46 19 0 24 -36 51 -67
51 -13 0 -32 -9 -43 -20z m70 -20 c0 -5 -11 -10 -25 -10 -14 0 -25 5 -25 10 0
6 11 10 25 10 14 0 25 -4 25 -10z"/>
<path d="M1920 260 c0 -63 2 -70 20 -70 18 0 20 7 20 55 0 52 1 55 25 55 16 0
25 6 25 15 0 18 -5 18 -31 5 -13 -7 -19 -7 -19 0 0 5 -9 10 -20 10 -18 0 -20
-7 -20 -70z"/>
<path d="M2030 323 c0 -5 10 -36 22 -70 18 -51 27 -63 44 -63 23 0 25 3 54 88
18 51 18 52 0 52 -13 0 -22 -12 -30 -37 -18 -57 -26 -59 -40 -9 -9 34 -18 46
-31 46 -11 0 -19 -3 -19 -7z"/>
<path d="M2200 260 c0 -56 3 -70 15 -70 12 0 15 14 15 70 0 56 -3 70 -15 70
-12 0 -15 -14 -15 -70z"/>
<path d="M2303 320 c-27 -11 -39 -53 -27 -88 17 -47 114 -56 114 -11 0 18 -3
19 -14 9 -8 -6 -25 -10 -38 -8 -19 2 -23 9 -23 38 0 29 4 36 23 38 13 2 30 -2
38 -8 11 -10 14 -9 14 8 0 30 -40 41 -87 22z"/>
<path d="M2443 320 c-27 -11 -39 -53 -27 -89 11 -29 58 -47 98 -37 42 10 31
31 -16 31 -33 0 -43 4 -46 18 -3 14 4 17 42 17 39 0 46 3 46 19 0 42 -46 61
-97 41z m57 -30 c0 -5 -11 -10 -25 -10 -14 0 -25 5 -25 10 0 6 11 10 25 10 14
0 25 -4 25 -10z"/>
<path d="M2592 319 c-18 -7 -23 -15 -20 -36 2 -23 10 -30 41 -37 50 -13 48
-30 -3 -23 -29 4 -40 1 -40 -8 0 -30 71 -34 100 -5 26 26 13 56 -30 65 -42 9
-38 28 5 23 23 -3 35 0 35 8 0 23 -46 30 -88 13z"/>
</g>
</svg>
