<svg xmlns="http://www.w3.org/2000/svg" xmlns:xlink="http://www.w3.org/1999/xlink" id="Layer_1" x="0" y="0" version="1.1" viewBox="0 0 48 48" xml:space="preserve"><style>.st1{fill:#fff}.st2{fill:#317da1}.st3{fill:#00344b}</style><path fill="#898989" d="M1088 13.26h792V330h-792z"/><path d="M1230.84 89.84h133.43v133.43h-133.43z" class="st1"/><path d="M1350.96 208.34h-21.33c-18.38 0-18.41-3.35-25.01-32.95-2.55-10.57-10.58-12.78-18.97-12.78h-6.92v24.08c0 12.21 2.65 15.3 8.83 15.3v6.36h-43.4v-6.36c6.33 0 9.12-2.79 9.12-15.3v-62.47c0-9.12-2.65-13.09-9.12-13.09v-6.36h39.13c29.28 0 52.81 3.53 52.81 28.1 0 20.01-15.74 25.6-31.63 26.63 13.24-.44 24.7 4.4 30.6 26.6 2.94 11.18 12.06 15.59 15.89 15.89v6.35zm-67.68-97.21h-4.56v45.12h4.55c16.76 0 23.54-7.42 23.54-21.19.01-16.18-7.79-23.93-23.53-23.93z" class="st2"/><path d="M1484 132.9h48v48h-48z" class="st1"/><path d="M1527.21 175.53h-7.67c-6.61 0-6.62-1.2-9-11.85-.92-3.8-3.81-4.6-6.83-4.6h-2.49v8.66c0 4.39.95 5.5 3.18 5.5v2.29h-15.61v-2.29c2.28 0 3.28-1.01 3.28-5.5v-22.47c0-3.28-.95-4.71-3.28-4.71v-2.29h14.08c10.53 0 19 1.27 19 10.11 0 7.2-5.66 9.21-11.38 9.58 4.76-.16 8.89 1.58 11.01 9.57 1.06 4.02 4.34 5.61 5.72 5.72v2.28zm-24.34-34.97h-1.64v16.23h1.64c6.03 0 8.47-2.67 8.47-7.62-.01-5.82-2.81-8.61-8.47-8.61z" class="st2"/><text font-family="Roboto-Regular" font-size="12" transform="translate(1130.38 -211.987)">Ready Patient Favicon</text><path d="M3280.76-586.24h48v48h-48z" class="st1"/><path d="M3292.75-375.15c.23 7.23 3.06 9.83 6.94 10.69 3 .69 7.28-.75 8.55-4.57l.75.29c-.81 3.64-4.62 7.98-12.14 7.98-7.57 0-13.23-6.47-13.23-13.75 0-9.02 6.53-13.99 14.04-13.99 7.28 0 12.14 3.41 12.14 13.35h-17.05zm9.37-2.19c0-7.28-1.56-10.4-4.45-10.4-3.06 0-4.91 4.85-4.91 10.4h9.36zm36.54 12.42c-.64 2.2-3.47 4.16-7.11 4.16 0 0-5.78 0-6.36-4.91-.81 2.77-3.99 4.91-8.09 4.91-1.1 0-6.94-.46-6.94-5.89 0-6.01 4.8-6.88 14.97-9.36v-3.64c0-6.01-3.35-9.07-7.34-7.05-.92.46-1.73 1.39-.52 1.73.92.23 1.62.81 2.14 1.73.92 1.79.23 3.99-1.56 4.97-1.79.92-4.05.23-4.97-1.56-.64-1.33-.52-2.89.29-3.87.64-.87 1.5-2.2 4.16-3.58 2.6-1.39 5.55-1.21 5.55-1.21 7.57 0 10.69 4.74 10.69 11.56v8.61s0 4.1 2.77 4.05c0 0 1.33 0 1.68-.98l.64.33zm-19.65-3.17s0 3.81 3.01 3.81c1.5 0 2.54-1.16 3.12-2.54v-8.38c-5.21 1.15-6.13 4.27-6.13 7.11zm51.54 5.95l-9.77 1.33c-1.62.29-1.62-1.04-1.62-1.04v-4.34c-1.39 3.76-5.84 5.43-9.25 5.43-7.28 0-12.48-4.85-12.48-13.99 0-9.42 6.18-13.75 14.39-13.75 3.58 0 5.89.87 7.34 2.14v-11.44c0-2.02-.58-2.72-2.95-3.58v-.69l11.38-2.31v37.74c0 2.83.58 3.47 2.95 3.76v.74zm-11.38-16.65c0-6.3-3.06-8.96-6.18-8.96-3.53 0-5.55 2.77-5.55 12.08 0 8.32 1.68 12.08 6.13 12.08 3.06 0 5.32-2.43 5.61-5.32v-9.88z" class="st2"/><path d="M3399.93-387.98v.69c-2.72 0-4.68 1.16-8.09 9.25l-8.03 22.02c-1.62 4.85-3.35 6.76-4.57 7.8-1.16.92-3.47 1.27-4.97.58-2.25-1.04-3.29-3.7-2.25-5.95.98-2.25 3.64-3.24 5.89-2.25 1.16.52 1.91 1.45 2.26 2.54.23.81 1.68 1.16 2.95-2.95l1.1-3c-1.79-4.1-12.08-25.08-12.08-25.08-1.27-2.66-3.12-2.89-4.16-2.95v-.69h15.89v.69c-3.47 0-1.45 4.22-1.45 4.22l6.01 12.25 2.72-7.4s3.35-9.07-3.64-9.07v-.69h12.42z" class="st2"/><path d="M3411.43-369.19c0 6.99 2.89 7.17 5.78 7.17v.75h-19.01v-.75c2.43 0 3.24-2.02 3.24-5.95v-27.45c0-3.58-1.04-5.78-3.58-5.78v-.75h14.62c11.5 0 21.27 1.39 21.27 11.67 0 10.23-9.77 11.62-21.27 11.62h-1.04v9.47zm1.05-10.23c7.11 0 9.82-.17 9.82-10.86 0-10.98-3.06-10.92-9.82-10.92h-1.04v21.79h1.04zm47.62 14.5c-.64 2.2-3.47 4.16-7.11 4.16 0 0-5.78 0-6.36-4.91-.81 2.77-3.99 4.91-8.09 4.91-1.1 0-6.94-.46-6.94-5.89 0-6.01 4.8-6.88 14.97-9.36v-3.64c0-6.01-3.35-9.07-7.34-7.05-.92.46-1.73 1.39-.52 1.73.92.23 1.62.81 2.14 1.73.92 1.79.23 3.99-1.56 4.97-1.79.92-4.05.23-4.97-1.56-.64-1.33-.52-2.89.29-3.87.64-.87 1.5-2.2 4.16-3.58 2.6-1.39 5.55-1.21 5.55-1.21 7.57 0 10.69 4.74 10.69 11.56v8.61s0 4.1 2.77 4.05c0 0 1.33 0 1.68-.98l.64.33zm-19.65-3.17s0 3.81 3.01 3.81c1.5 0 2.54-1.16 3.12-2.54v-8.38c-5.2 1.15-6.13 4.27-6.13 7.11zm37.15 1.67c-.93 2.89-4.39 5.66-8.44 5.66-4.56 0-8.55-1.85-8.55-8.84v-17.63h-3.24l-.12-2.2h3.35v-6.3l8.5-1.21v7.51h7.17l-.12 2.2h-7.05v17.45c0 3.24 1.27 4.85 4.39 4.85 1.68 0 2.89-1.04 3.47-1.85l.64.36z" class="st3"/><path d="M3490-361.28h-13.18v-.69c2.2-.69 2.31-3.12 2.31-6.07v-13.47c0-2.02-.64-2.83-3.01-3.87v-.75l11.5-2.37v20.46c0 3.18.29 5.49 2.37 6.07v.69zm-7.22-39.7c2.6 0 4.74 2.08 4.74 4.74 0 2.6-2.14 4.68-4.74 4.68-2.66 0-4.74-2.08-4.74-4.68 0-2.66 2.08-4.74 4.74-4.74zm16.11 25.83c.23 7.23 3.06 9.83 6.94 10.69 3 .69 7.28-.75 8.55-4.57l.75.29c-.81 3.64-4.62 7.98-12.14 7.98-7.57 0-13.23-6.47-13.23-13.75 0-9.02 6.53-13.99 14.04-13.99 7.28 0 12.14 3.41 12.14 13.35h-17.05zm9.36-2.19c0-7.28-1.56-10.4-4.45-10.4-3.06 0-4.91 4.85-4.91 10.4h9.36z" class="st3"/><path d="M3545.98-361.28h-13.18v-.69c2.2-.64 2.31-3.18 2.31-6.13v-11.39c0-3.06-1.5-4.85-4.34-4.85-1.79 0-3.76 1.73-4.16 3.53v12.83c0 3.18.29 5.43 2.37 6.01v.69h-13.18v-.69c2.2-.64 2.25-3.06 2.25-6.01v-13.58c0-2.02-.58-2.77-2.95-3.81v-.75l11.5-2.37v5.9c1.39-3.3 5.2-5.9 8.61-5.9 4.56 0 8.38 1.85 8.38 8.78v11.62c0 3.18.29 5.61 2.37 6.13v.68zm18.2-5.14c-.93 2.89-4.39 5.66-8.44 5.66-4.57 0-8.55-1.85-8.55-8.84v-17.63h-3.24l-.12-2.2h3.35v-6.3l8.5-1.21v7.51h7.17l-.12 2.2h-7.05v17.45c0 3.24 1.27 4.85 4.39 4.85 1.68 0 2.89-1.04 3.47-1.85l.64.36z" class="st3"/><path d="M3580.19-462.25h-8.38c-7.22 0-7.17-1.33-9.82-12.94-1.33-5.89-7.45-5.72-7.45-5.72h-2.72V-469c0 4.8 1.04 6.01 3.47 6.01v.75h-17.05v-.76c2.48 0 3.58-1.1 3.58-6.01v-28.03c0-3.58-1.04-5.14-3.58-5.14v-.75h15.37c11.5 0 20.75 1.39 20.75 11.04 0 7.86-6.18 10.06-12.42 10.46 5.2-.17 9.25 1.79 12.02 12.19 1.16 4.39 4.74 6.13 6.24 6.24v.75zm-26.59-39.93h-1.79v20.52h1.79c6.59 0 9.25.06 9.25-10.23 0-10.52-3.06-10.29-9.25-10.29z" class="st2"/><path d="M3586.34-476.12c.23 7.23 3.06 9.83 6.94 10.69 3 .69 7.28-.75 8.55-4.57l.75.29c-.81 3.64-4.62 7.98-12.14 7.98-7.57 0-13.23-6.47-13.23-13.75 0-9.02 6.53-13.99 14.04-13.99 7.28 0 12.14 3.41 12.14 13.35h-17.05zm9.36-2.19c0-7.28-1.56-10.4-4.45-10.4-3.06 0-4.91 4.85-4.91 10.4h9.36zm36.54 12.42c-.64 2.2-3.47 4.16-7.11 4.16 0 0-5.78 0-6.36-4.91-.81 2.77-3.99 4.91-8.09 4.91-1.1 0-6.94-.46-6.94-5.89 0-6.01 4.8-6.88 14.97-9.36v-3.64c0-6.01-3.35-9.07-7.34-7.05-.92.46-1.73 1.39-.52 1.73.92.23 1.62.81 2.14 1.73.92 1.79.23 3.99-1.56 4.97-1.79.92-4.05.23-4.97-1.56-.64-1.33-.52-2.89.29-3.87.64-.87 1.5-2.2 4.16-3.58 2.6-1.39 5.55-1.21 5.55-1.21 7.57 0 10.69 4.74 10.69 11.56v8.61s0 4.1 2.77 4.05c0 0 1.33 0 1.68-.98l.64.33zm-19.65-3.17s0 3.81 3.01 3.81c1.5 0 2.54-1.16 3.12-2.54v-8.38c-5.2 1.15-6.13 4.27-6.13 7.11zm51.54 5.95l-9.77 1.33c-1.62.29-1.62-1.04-1.62-1.04v-4.34c-1.39 3.76-5.84 5.43-9.25 5.43-7.28 0-12.48-4.85-12.48-13.99 0-9.42 6.18-13.75 14.39-13.75 3.58 0 5.89.87 7.34 2.14v-11.44c0-2.02-.58-2.72-2.95-3.58v-.69l11.38-2.31v37.74c0 2.83.58 3.47 2.95 3.76v.74zm-11.38-16.65c0-6.3-3.06-8.96-6.18-8.96-3.52 0-5.55 2.77-5.55 12.08 0 8.32 1.68 12.08 6.13 12.08 3.06 0 5.32-2.43 5.61-5.32v-9.88z" class="st2"/><path d="M3693.51-488.95v.69c-2.72 0-4.68 1.16-8.09 9.25l-8.03 22.02c-1.62 4.85-3.35 6.76-4.57 7.8-1.16.92-3.47 1.27-4.97.58-2.25-1.04-3.29-3.7-2.25-5.95.98-2.25 3.64-3.24 5.89-2.25 1.16.52 1.91 1.45 2.26 2.54.23.81 1.68 1.16 2.95-2.95l1.1-3c-1.79-4.1-12.08-25.08-12.08-25.08-1.27-2.66-3.12-2.89-4.16-2.95v-.69h15.89v.69c-3.47 0-1.44 4.22-1.44 4.22l6.01 12.25 2.71-7.4s3.35-9.07-3.64-9.07v-.69h12.42z" class="st2"/><path d="M3705.02-470.16c0 6.99 2.89 7.17 5.78 7.17v.75h-19.01v-.76c2.43 0 3.24-2.02 3.24-5.95v-27.45c0-3.58-1.04-5.78-3.58-5.78v-.75h14.62c11.5 0 21.27 1.39 21.27 11.67 0 10.23-9.77 11.62-21.27 11.62h-1.04v9.48zm1.04-10.23c7.11 0 9.82-.17 9.82-10.86 0-10.98-3.06-10.92-9.82-10.92h-1.04v21.79h1.04zm47.62 14.5c-.64 2.2-3.47 4.16-7.11 4.16 0 0-5.78 0-6.36-4.91-.81 2.77-3.99 4.91-8.09 4.91-1.1 0-6.94-.46-6.94-5.89 0-6.01 4.8-6.88 14.97-9.36v-3.64c0-6.01-3.35-9.07-7.34-7.05-.92.46-1.73 1.39-.52 1.73.92.23 1.62.81 2.14 1.73.92 1.79.23 3.99-1.56 4.97-1.79.92-4.05.23-4.97-1.56-.64-1.33-.52-2.89.29-3.87.64-.87 1.5-2.2 4.16-3.58 2.6-1.39 5.55-1.21 5.55-1.21 7.57 0 10.69 4.74 10.69 11.56v8.61s0 4.1 2.77 4.05c0 0 1.33 0 1.68-.98l.64.33zm-19.65-3.17s0 3.81 3.01 3.81c1.5 0 2.54-1.16 3.12-2.54v-8.38c-5.2 1.15-6.13 4.27-6.13 7.11zm37.15 1.67c-.93 2.89-4.39 5.66-8.44 5.66-4.56 0-8.55-1.85-8.55-8.84v-17.63h-3.24l-.12-2.2h3.35v-6.3l8.5-1.21v7.51h7.17l-.12 2.2h-7.05v17.45c0 3.24 1.27 4.85 4.39 4.85 1.68 0 2.89-1.04 3.47-1.85l.64.36z" class="st3"/><path d="M3783.59-462.25h-13.18v-.69c2.2-.69 2.31-3.12 2.31-6.07v-13.47c0-2.02-.64-2.83-3.01-3.87v-.75l11.5-2.37v20.46c0 3.18.29 5.49 2.37 6.07v.69zm-7.23-39.7c2.6 0 4.74 2.08 4.74 4.74 0 2.6-2.14 4.68-4.74 4.68-2.66 0-4.74-2.08-4.74-4.68 0-2.66 2.08-4.74 4.74-4.74zm16.11 25.83c.23 7.23 3.06 9.83 6.94 10.69 3 .69 7.28-.75 8.55-4.57l.75.29c-.81 3.64-4.62 7.98-12.14 7.98-7.57 0-13.23-6.47-13.23-13.75 0-9.02 6.53-13.99 14.04-13.99 7.28 0 12.14 3.41 12.14 13.35h-17.05zm9.36-2.19c0-7.28-1.56-10.4-4.45-10.4-3.06 0-4.91 4.85-4.91 10.4h9.36z" class="st3"/><path d="M3839.56-462.25h-13.18v-.69c2.2-.64 2.31-3.18 2.31-6.13v-11.39c0-3.06-1.5-4.85-4.34-4.85-1.79 0-3.76 1.73-4.16 3.53v12.83c0 3.18.29 5.43 2.37 6.01v.69h-13.18v-.69c2.2-.64 2.25-3.06 2.25-6.01v-13.58c0-2.02-.58-2.77-2.95-3.81v-.75l11.5-2.37v5.9c1.39-3.3 5.2-5.9 8.61-5.9 4.56 0 8.38 1.85 8.38 8.78v11.62c0 3.18.29 5.61 2.37 6.13v.68zm18.2-5.14c-.93 2.89-4.39 5.66-8.44 5.66-4.56 0-8.55-1.85-8.55-8.84v-17.63h-3.24l-.12-2.2h3.35v-6.3l8.5-1.21v7.51h7.17l-.12 2.2h-7.05v17.45c0 3.24 1.27 4.85 4.39 4.85 1.68 0 2.89-1.04 3.47-1.85l.64.36z" class="st3"/><path fill="none" d="M2247.86-330.15h91.16v3.96h-91.16z"/><path d="M3221.2-586.24h48v48h-48z" class="st1"/><path d="M2523.27-676.24h228v228h-228zm-256.51 0h228v228h-228zm997.65 132.63h-7.67c-6.61 0-6.56-1.22-9-11.85-1.22-5.4-6.83-5.24-6.83-5.24h-2.49v10.9c0 4.39.95 5.5 3.18 5.5v.69h-15.61v-.69c2.28 0 3.28-1.01 3.28-5.5v-25.67c0-3.28-.95-4.71-3.28-4.71v-.69h14.08c10.53 0 19 1.27 19 10.11 0 7.2-5.66 9.21-11.38 9.58 4.76-.16 8.47 1.64 11.01 11.17 1.06 4.02 4.34 5.61 5.72 5.72v.68zm-24.34-36.57h-1.64v18.79h1.64c6.03 0 8.47.05 8.47-9.37-.01-9.63-2.81-9.42-8.47-9.42zm83.9 36.57h-7.67c-6.61 0-6.62-1.2-9-11.85-.92-3.8-3.81-5.08-6.83-5.08h-2.49v10.09c0 4.39.95 5.5 3.18 5.5v1.35h-15.61v-1.35c2.28 0 3.28-1.01 3.28-5.5v-24.34c0-3.28-.95-4.71-3.28-4.71v-1.36h14.08c10.53 0 19 1.27 19 10.11 0 7.2-5.66 9.21-11.38 9.58 4.76-.16 8.66 1.34 11.01 10.51 1.06 4.02 4.34 5.61 5.72 5.72v1.33zm-24.34-35.92h-1.64v17.63h1.64c6.03 0 8.47-.98 8.47-8.87-.01-6.88-2.81-8.76-8.47-8.76z" class="st2"/><path d="M3593.99-586.24h48v48h-48zm-827.32-89.66h228v228h-228z" class="st1"/><path d="M2899.14-530.82h-21.97c-18.93 0-18.78-3.48-25.75-33.93-3.48-15.45-19.54-15-19.54-15h-7.12v31.2c0 12.57 2.73 15.75 9.09 15.75v1.97h-44.68v-1.97c6.51 0 9.39-2.88 9.39-15.75V-622c0-9.39-2.73-13.48-9.39-13.48v-1.97h40.29c30.14 0 54.38 3.64 54.38 28.93 0 20.6-16.21 26.36-32.56 27.42 13.63-.45 24.23 4.69 31.5 31.96 3.03 11.51 12.42 16.06 16.36 16.36v1.96zm-69.68-104.66h-4.69v53.77h4.69c17.27 0 24.24.15 24.24-26.81 0-27.57-8.03-26.96-24.24-26.96z" class="st2"/><path d="M2760.95-744.17h-21.97c-18.93 0-18.78-3.48-25.75-33.93-3.48-15.45-19.54-15-19.54-15h-7.12v31.2c0 12.57 2.73 15.75 9.09 15.75v1.97h-44.68v-1.97c6.51 0 9.39-2.88 9.39-15.75v-73.46c0-9.39-2.73-13.48-9.39-13.48v-1.97h40.29c30.14 0 54.38 3.64 54.38 28.93 0 20.6-16.21 26.36-32.56 27.42 13.63-.45 24.23 4.69 31.5 31.96 3.03 11.51 12.42 16.06 16.36 16.36v1.97zm-69.68-104.66h-4.69v53.77h4.69c17.27 0 24.24.15 24.24-26.81 0-27.57-8.03-26.96-24.24-26.96z" class="st1"/><path d="M2921.77-501.44c0 16.83 6.95 17.24 13.91 17.24v1.81h-45.75v-1.81c5.84 0 7.79-4.87 7.79-14.32v-66.06c0-8.62-2.51-13.91-8.62-13.91v-1.81h35.19c27.67 0 51.17 3.34 51.17 28.09 0 24.61-23.5 27.95-51.17 27.95h-2.51v22.82zm2.5-24.62c17.1 0 23.64-.42 23.64-26.14 0-26.42-7.37-26.28-23.64-26.28h-2.51v52.43h2.51z" class="st3"/><circle cx="2636.51" cy="-639.92" r="14.54" class="st1"/><path d="M2587.44-486.47c-2.56 5.08-.52 11.28 4.56 13.84a10.292 10.292 0 0 0 13.84-4.56l23.79-47.16-17.18-11.71-25.01 49.59z" class="st1"/><path d="M2680.23-556.46l-14.56-19.81c-12.4-33.07-16.22-36.53-17.49-37.67-6.57-5.94-21.7-8.68-27.77-7.28-3.33.78-7.9 1.85-44.55 56.27a8.183 8.183 0 0 0 2.22 11.37c3.75 2.52 8.84 1.54 11.37-2.22 7.84-11.64 16.71-24.33 23.88-34.12-.92 3.57-1.76 6.66-2.31 8.29-3.44 10.23-7.62 18.57-7.08 25.27.62 7.85 5.26 13.44 10.09 17.2l-.01.03 26.94 18.37c.46.31.64.81.67 1.32.12.11.3.27.4.37 1.01 5.52 2.19 23.87 2.77 39.09.21 5.56 4.78 9.92 10.29 9.92.13 0 .26 0 .4-.01 5.68-.21 10.12-5 9.91-10.69-1.53-40.42-3.79-45.47-4.53-47.12-.89-1.98-2.81-6.3-22.49-20.28a10.7 10.7 0 0 0-.77-1.81l7.55-33.78c1.89 4.66 3.83 9.63 5.56 14.29l.4 1.07 15.9 21.65a8.172 8.172 0 0 0 6.61 3.34c1.69 0 3.38-.52 4.84-1.59 3.65-2.7 4.43-7.83 1.76-11.47zm-39.63-37.08l.16-.67c.09.21.17.38.27.59l-.43.08z" class="st1"/><path d="M3275.58-610.32l-.65 2.78h-.5l1.91-8.08h.49l1.93 8.08h-.53l-.65-2.78h-2zm1.89-.45l-.52-2.28c-.14-.62-.25-1.2-.36-1.85h-.05c-.1.66-.22 1.26-.35 1.86l-.5 2.27h1.78zm2.4-4.85h.52v7.64h2.4v.44h-2.92v-8.08zm4.38 0v8.08h-.52v-8.08h.52zm2.49.44h-1.51v-.44h3.54v.44h-1.51v7.64h-.52v-7.64zm3.96 0h-1.51v-.44h3.54v.44h-1.51v7.64h-.52v-7.64zm2.98-.44h.52v7.64h2.4v.44h-2.92v-8.08zm6.52 4.06h-2.13v3.56h2.45v.46h-2.96v-8.08h2.81v.46h-2.29v3.15h2.13v.45zm4.13-3.62h-1.51v-.44h3.54v.44h-1.51v7.64h-.52v-7.64zm3.5-.44v3.61h2.65v-3.61h.52v8.08h-.52v-4.02h-2.65v4.02h-.52v-8.08h.52zm5.17 0v8.08h-.52v-8.08h.52zm4.82 7.92c-.26.14-.65.23-1.13.23-1.27 0-2.5-1.01-2.5-4.03 0-3.27 1.51-4.2 2.61-4.2.44 0 .78.08.95.19l-.17.46c-.2-.1-.4-.18-.86-.18-.84 0-1.99.89-1.99 3.63 0 2.82 1.02 3.66 2.04 3.66.4 0 .71-.1.9-.2l.15.44zm1.01-7.92h.52v3.97h.02c.22-.34.4-.65.56-.94l1.78-3.03h.59l-2.09 3.41 2.16 4.68h-.56l-1.94-4.23-.52.84v3.39h-.52v-8.09zm7.1 4.06h-2.13v3.56h2.45v.46h-2.96v-8.08h2.81v.46h-2.29v3.15h2.13v.45zm1.3 4.02v-8.08h.52l1.63 4.17c.4 1.02.83 2.11 1.14 3.09h.02c-.08-1.54-.08-2.35-.08-3.69v-3.57h.49v8.08h-.52l-1.73-4.39c-.36-.9-.7-1.75-1.04-2.94h-.02c.08 1.25.08 2.13.08 3.92v3.41h-.49zm7.86-4.02h-2.13v3.56h2.45v.46h-2.96v-8.08h2.81v.46h-2.29v3.15h2.13v.45zm1.3-3.94c.32-.12.66-.16 1.02-.16.74 0 1.28.19 1.68.54.59.49 1.12 1.52 1.12 3.29 0 1.98-.47 2.89-.88 3.41-.5.64-1.27.92-2.07.92-.3 0-.62-.01-.86-.07v-7.93zm.51 7.51c.17.02.31.02.4.02 1.17 0 2.36-.73 2.36-3.8 0-2.27-.74-3.45-2.25-3.45-.17 0-.36.02-.5.05v7.18z"/><defs><path id="SVGID_1_" d="M3593.99-592.76h48v58h-48z"/></defs><clipPath id="SVGID_2_"><use overflow="visible" xlink:href="#SVGID_1_"/></clipPath><g clip-path="url(#SVGID_2_)"><path d="M3618.61-549.09h-7.67c-6.61 0-6.62-1.2-9-11.85-.92-3.8-3.81-4.6-6.83-4.6h-2.49v8.66c0 4.39.95 5.5 3.18 5.5v2.29h-15.61v-2.29c2.28 0 3.28-1.01 3.28-5.5v-22.47c0-3.28-.95-4.71-3.28-4.71v-2.29h14.08c10.53 0 19 1.27 19 10.11 0 7.2-5.66 9.21-11.38 9.58 4.76-.16 8.89 1.58 11.01 9.57 1.06 4.02 4.34 5.61 5.72 5.72v2.28zm-24.34-34.97h-1.64v16.23h1.64c6.03 0 8.47-2.67 8.47-7.62-.01-5.83-2.81-8.61-8.47-8.61z" class="st2"/><path d="M3624.89-545.41c0 6.33 2.62 6.49 5.23 6.49v.68h-17.22v-.68c2.2 0 2.93-1.83 2.93-5.39v-24.86c0-3.24-.94-5.23-3.25-5.23v-.68h13.24c10.41 0 19.26 1.26 19.26 10.57 0 9.26-8.84 10.52-19.26 10.52h-.94v8.58zm.94-9.26c6.44 0 8.9-.16 8.9-9.84 0-9.94-2.77-9.89-8.9-9.89h-.94v19.73h.94z" class="st3"/></g><defs><path id="SVGID_3_" d="M2266.76-676.24h228v228h-228z"/></defs><clipPath id="SVGID_4_"><use overflow="visible" xlink:href="#SVGID_3_"/></clipPath><path fill="#fff" d="M2535.35-446.83h-51.09c-44.03 0-43.69-8.1-59.9-78.92-8.1-35.94-45.44-34.89-45.44-34.89h-16.56v72.59c0 29.24 6.34 36.64 21.14 36.64v4.58h-103.94v-4.58c15.15 0 21.84-6.69 21.84-36.64v-170.89c0-21.84-6.34-31.35-21.84-31.35v-4.59h93.71c70.12 0 126.48-80.45 126.48 67.29 0 47.92-37.7 61.31-75.74 63.78 31.71-1.06 56.37 10.92 73.28 74.34 7.05 26.77 28.89 37.35 38.05 38.05v4.59zm-162.07-243.45h-10.92v125.07h10.92c40.17 0 56.38.35 56.38-62.36-.01-64.12-18.68-62.71-56.38-62.71z" clip-path="url(#SVGID_4_)"/><path d="M1203.6-99.75h14.01v14.01h-14.01z" class="st1"/><path d="M1216.21-87.31h-2.24c-1.93 0-1.93-.35-2.63-3.46-.27-1.11-1.11-1.34-1.99-1.34h-.73v2.53c0 1.28.28 1.61.93 1.61v.67H1205v-.67c.66 0 .96-.29.96-1.61v-6.56c0-.96-.28-1.37-.96-1.37v-.67h4.11c3.07 0 5.54.37 5.54 2.95 0 2.1-1.65 2.69-3.32 2.8 1.39-.05 2.59.46 3.21 2.79.31 1.17 1.27 1.64 1.67 1.67v.66zm-7.1-10.21h-.48v4.74h.48c1.76 0 2.47-.78 2.47-2.22 0-1.7-.82-2.52-2.47-2.52z" class="st2"/><text fill="#d8d6d7" font-family="MyriadPro-Regular" font-size="12" transform="translate(1244.154 -59.894)">http://ReadyPatient.com</text><path d="M0 0h48v48H0z" class="st1"/><path d="M43.21 42.63h-7.67c-6.61 0-6.62-1.2-9-11.85-.92-3.8-3.81-4.6-6.83-4.6h-2.49v8.66c0 4.39.95 5.5 3.18 5.5v2.29H4.79v-2.29c2.28 0 3.28-1.01 3.28-5.5V12.37c0-3.28-.95-4.71-3.28-4.71V5.37h14.08c10.53 0 19 1.27 19 10.11 0 7.2-5.66 9.21-11.38 9.58 4.76-.16 8.89 1.58 11.01 9.57 1.06 4.02 4.34 5.61 5.72 5.72v2.28zM18.87 7.66h-1.64v16.23h1.64c6.03 0 8.47-2.67 8.47-7.62-.01-5.82-2.81-8.61-8.47-8.61z" class="st2"/></svg>