<svg xmlns="http://www.w3.org/2000/svg" viewBox="0 0 41 41"><path fill="#658C3C" fill-rule="evenodd" d="M29.193 15.914h-4.517v-2.259h-9.034v4.518h9.034a4.516 4.516 0 0 1 4.517 4.516v4.518a4.517 4.517 0 0 1-4.517 4.517h-2.258v3.632h-4.517v-3.632h-2.259a4.517 4.517 0 0 1-4.517-4.517v-2.259h4.517v2.259h9.034v-4.518h-9.034a4.516 4.516 0 0 1-4.517-4.516v-4.518a4.516 4.516 0 0 1 4.517-4.516h2.259V5.506h4.517v3.633h2.258a4.516 4.516 0 0 1 4.517 4.516v2.259zM33.692 0H7.17C3.226 0 0 3.226 0 7.171v26.52c0 3.945 3.226 7.171 7.17 7.171h26.522c3.943 0 7.17-3.226 7.17-7.171V7.171c0-3.945-3.227-7.171-7.17-7.171z"/></svg>