<svg xmlns="http://www.w3.org/2000/svg" style="position:absolute; width: 0; height: 0"><symbol id="icon-radio-unchecked"  viewBox="-285 377 40 40"><path stroke="#00344B" d="M-265 381.2c-8.7 0-15.8 7.1-15.8 15.8s7.1 15.8 15.8 15.8 15.8-7.1 15.8-15.8-7.1-15.8-15.8-15.8zm0 29.8c-7.7 0-14-6.3-14-14s6.3-14 14-14 14 6.3 14 14-6.3 14-14 14z"/></symbol>,<symbol id="icon-radio-checked"  viewBox="-285 377 40 40"><path stroke="#00344B" d="M-265 381.2c-8.7 0-15.8 7.1-15.8 15.8s7.1 15.8 15.8 15.8 15.8-7.1 15.8-15.8-7.1-15.8-15.8-15.8zm0 29.8c-7.7 0-14-6.3-14-14s6.3-14 14-14 14 6.3 14 14-6.3 14-14 14z"/><circle cx="-265" cy="397" r="9.6" fill="#00344B"/></symbol>,<symbol id="icon-checkbox-unchecked"  viewBox="-285 377 40 40"><path fill="#00344B" stroke="#00344B" d="M-280 382v30h30v-30h-30zm28.2 28.3h-26.5v-26.6h26.5v26.6z"/></symbol>,<symbol id="icon-checkbox-checked"  viewBox="-285 377 40 40"><path fill="#00344B" stroke="#00344B" d="M-280 382v30h30v-30h-30zm28.2 28.3h-26.5v-26.6h26.5v26.6z"/><path fill="#00344B" d="M-275.6 386.5h21.1v21.1h-21.1z"/></symbol>,<symbol id="icon-radio-unchecked-springwood"  viewBox="-285 377 40 40"><circle cx="-264.5" cy="396.8" r="15.3" fill="#F8F7F1"/><path fill="#E8E7E2" stroke="#E8E7E2" d="M-264.7 381c-8.7 0-15.8 7.1-15.8 15.8s7.1 15.8 15.8 15.8c8.7 0 15.8-7.1 15.8-15.8S-256 381-264.7 381zm0 29.8c-7.7 0-14-6.3-14-14s6.3-14 14-14 14 6.3 14 14-6.3 14-14 14z"/></symbol>,<symbol id="icon-radio-checked-springwood"  viewBox="-285 377 40 40"><circle cx="-264.8" cy="397.5" r="15.3" fill="#F8F7F1"/><path fill="#E8E7E2" stroke="#E8E7E2" d="M-264.8 381.7c-8.7 0-15.8 7.1-15.8 15.8s7.1 15.8 15.8 15.8 15.8-7.1 15.8-15.8-7.1-15.8-15.8-15.8zm0 29.8c-7.7 0-14-6.3-14-14s6.3-14 14-14 14 6.3 14 14-6.3 14-14 14z"/><circle cx="-264.8" cy="397.5" r="9.6" fill="#727373" stroke="#646464"/></symbol>,<symbol id="icon-checkbox-unchecked-springwood"  viewBox="-285 377 40 40"><path fill="#E8E7E2" stroke="#E8E7E2" d="M-280.4 382v30h30v-30h-30zm28.2 28.3h-26.5v-26.6h26.5v26.6h0z"/><path fill="#F8F7F1" stroke="#E8E7E2" d="M-279.4 382.9h27.9v27.9h-27.9z"/></symbol>,<symbol id="icon-checkbox-checked-springwood"  viewBox="-285 377 40 40"><path fill="#5D5E5E" stroke="#5D5E5E" d="M-279.6 382.1v30h30v-30h-30zm28.2 28.3h-26.5v-26.6h26.5v26.6h0z"/><path fill="#727373" d="M-279.1 382.5h29.1v29.1h-29.1v-29.1z"/><path fill="#EEEDE7" d="M-278.4 400.4l2.7-3.2 7.2 6.1 15.3-18.2 3.2 2.7-18.1 21.3z"/><path fill="#646464" d="M-253.1 385.8l2.4 2-17.4 20.6-9.6-8.1 2-2.4 7.2 6.1 15.4-18.2m-.1-1.4l-.6.8-14.8 17.4-6.4-5.5-.8-.6-.6.8-2 2.4-.6.8.8.6 9.6 8.1.8.6.6-.8 17.4-20.6.6-.8-.8-.6-2.4-2-.8-.6z"/></symbol>,<symbol id="icon-chevron-select"  viewBox="-9.3 3.7 20.6 34.4"><path fill="#00344b" stroke="#00344b" stroke-miterlimit="10" stroke-width="2" d="M-7.9 7.2l1.9-2L9.9 21-6 36.8l-1.9-1.9L6 21-7.9 7.2z"/></symbol>,<symbol id="icon-search"  viewBox="-285 377 40 40"><path d="M-257.5 402.7l-1.1 1.3 5.9 6 1.3-1.2-6.1-6.1z"/><path d="M-255.1 395.6c0-6.4-5.2-11.6-11.6-11.6s-11.6 5.2-11.6 11.6 5.2 11.6 11.6 11.6 11.6-5.2 11.6-11.6zm-11.6 9.9c-5.5 0-9.9-4.4-9.9-9.9s4.4-9.9 9.9-9.9 9.9 4.4 9.9 9.9-4.4 9.9-9.9 9.9z"/></symbol>,<symbol id="icon-breadcrumb-chevron"  viewBox="9.7 2.8 20.6 34.4"><path fill="#727373" stroke="#727373" stroke-miterlimit="10" stroke-width="2" d="M11.1 6.2l1.9-2L28.9 20 13 35.8l-1.9-1.9L25 20 11.1 6.2z"/></symbol>,<symbol id="icon-radio-unchecked-gray"  viewBox="-285 377 40 40"><circle cx="-264.9" cy="397.1" r="14.8" fill="#FFF"/><path fill="#727373" stroke="#727373" d="M-264.9 381.2c-8.7 0-15.8 7.1-15.8 15.8s7.1 15.8 15.8 15.8 15.8-7.1 15.8-15.8-7.1-15.8-15.8-15.8zm0 29.8c-7.7 0-14-6.3-14-14s6.3-14 14-14 14 6.3 14 14-6.3 14-14 14z"/></symbol>,<symbol id="icon-radio-checked-gray"  viewBox="-285 377 40 40"><circle cx="-265.4" cy="397.5" r="14.8" fill="#FFF"/><path fill="#727373" stroke="#727373" d="M-265.2 381.5c-8.7 0-15.8 7.1-15.8 15.8s7.1 15.8 15.8 15.8 15.8-7.1 15.8-15.8-7.1-15.8-15.8-15.8zm0 29.8c-7.7 0-14-6.3-14-14s6.3-14 14-14 14 6.3 14 14-6.3 14-14 14z"/><circle cx="-265.2" cy="397.3" r="9.6" fill="#727373"/></symbol>,<symbol id="icon-arrow-short"  viewBox="13 11.4 15.3 17.3"><path d="M13 28.6l15.3-8.7L13 11.4v17.2z"/></symbol>,<symbol id="icon-arrow"  viewBox="-285 377 40 40"><path d="M-272 412.3l15.3-15.4-15.3-15.2z"/></symbol>,<symbol id="icon-badge"  viewBox="0 0 31 21"><path fill="#178CCA" fill-rule="evenodd" d="M15.488 17.532a7.135 7.135 0 0 1-5.762-2.927h-3.45c.32.186.659.362.81.624.296.51-.04 1.467.337 1.916.379.451 1.379.285 1.83.664.45.377.459 1.392.97 1.688.506.293 1.39-.204 1.946-.001.547.199.904 1.149 1.49 1.252.571.1 1.23-.67 1.829-.67.6 0 1.257.77 1.828.67.587-.103.943-1.053 1.49-1.252.557-.203 1.44.294 1.947 0 .511-.295.52-1.31.97-1.687.45-.379 1.45-.213 1.83-.663.377-.45.04-1.406.337-1.917.15-.262.49-.438.81-.624h-3.45a7.136 7.136 0 0 1-5.762 2.927zm0-14.308a7.136 7.136 0 0 1 5.786 2.96h3.481c-.336-.197-.705-.379-.865-.655-.296-.512.04-1.468-.337-1.918-.379-.45-1.38-.284-1.83-.663-.45-.378-.459-1.392-.97-1.688-.506-.293-1.39.204-1.946.002-.547-.2-.904-1.15-1.49-1.253-.571-.1-1.23.67-1.83.67-.598 0-1.256-.77-1.827-.67-.587.103-.943 1.053-1.49 1.252-.557.203-1.44-.294-1.947-.001-.511.295-.52 1.31-.97 1.687-.45.38-1.45.213-1.83.664-.377.45-.04 1.406-.337 1.917-.16.277-.53.459-.866.657h3.482a7.135 7.135 0 0 1 5.786-2.96zm13.687 9.153l1.8 3.364h-4.844v-1.983H4.845v1.983H0l1.8-3.364L0 9.015h3.835V7.032H27.14v1.983h3.836l-1.8 3.362z"/></symbol>,<symbol id="icon-brand"  width="96" height="96"><path stroke="#000" stroke-miterlimit="10" d="M0 0h96v96H0z"/><text fill="#fff" font-family="MyriadPro-Regular" font-size="67.206" transform="translate(6.802 69.026)">Un</text><path fill="#fff" stroke="#fff" stroke-miterlimit="10" stroke-width="2" d="M11 78.4h73.9"/></symbol>,<symbol id="icon-cancel"  viewBox="-34 36 26 26"><path d="M-21 37.7c-3.1 0-5.9 1.3-8 3.3-2.1 2.1-3.3 4.9-3.3 8s1.3 5.9 3.3 8c2.1 2.1 4.9 3.3 8 3.3s5.9-1.3 8-3.3c2.1-2.1 3.3-4.9 3.3-8 0-3.1-1.3-5.9-3.3-8-2.1-2-4.9-3.3-8-3.3zm3.7 17.5c.2.2.2.4 0 .6l-.1.1c-1.1.6-2.3 1-3.7 1-2.2 0-4.1-.9-5.6-2.3-1.4-1.4-2.3-3.4-2.3-5.6 0-1.3.3-2.5 1-3.7l.1-.1c.2-.2.4-.2.6 0l5 5c.1 0 5 5 5 5zm4.1-6.2c0 1.3-.3 2.5-1 3.7l-.1.1c-.2.2-.4.2-.6 0l-5-5-5-5c-.2-.2-.2-.4 0-.6l.1-.1c1.1-.6 2.3-1 3.7-1 2.2 0 4.1.9 5.6 2.3 1.5 1.5 2.3 3.4 2.3 5.6z"/></symbol>,<symbol id="icon-chevron-left"  viewBox="0 0 1792 1792"><path d="M1427 301L896 832l531 531q19 19 19 45t-19 45l-166 166q-19 19-45 19t-45-19L429 877q-19-19-19-45t19-45l742-742q19-19 45-19t45 19l166 166q19 19 19 45t-19 45z"/></symbol>,<symbol id="icon-chevron-right"  viewBox="0 0 1792 1792"><path d="M1363 877l-742 742q-19 19-45 19t-45-19l-166-166q-19-19-19-45t19-45l531-531-531-531q-19-19-19-45t19-45L531 45q19-19 45-19t45 19l742 742q19 19 19 45t-19 45z"/></symbol>,<symbol id="icon-chevron-white"  viewBox="-285 377 40 40"><path fill="#fff" d="M-273.9 383.2l1.9-2 15.9 15.8-15.9 15.8-1.9-1.9L-260 397z"/></symbol>,<symbol id="icon-chevron"  viewBox="-285 377 40 40"><path d="M-273.9 383.2l1.9-2 15.9 15.8-15.9 15.8-1.9-1.9L-260 397z"/></symbol>,<symbol id="icon-clock"  id="Layer_1" x="0" y="0" version="1.1" viewBox="862.6 -88.7 46 46" xml:space="preserve"><style><![CDATA[.st0{fill:#2d72f1}]]></style><path d="M885.6-88.7c-12.7 0-23 10.3-23 23s10.3 23 23 23 23-10.3 23-23-10.3-23-23-23zm0 43.1c-11.1 0-20.2-9-20.2-20.2s9-20.2 20.2-20.2 20.2 9 20.2 20.2-9.1 20.2-20.2 20.2z" class="st0"/><path d="M884-80.5h3.2v16.7H884v-16.7z" class="st0"/><path d="M884-67h16.7v3.2H884V-67z" class="st0"/></symbol>,<symbol id="icon-close"  viewBox="-27 29 40 40"><path d="M-23.585 64.338l31.62-30.882 1.398 1.43-31.62 30.883z"/><path d="M-21.836 33.062l30.883 31.62-1.431 1.398-30.883-31.62z"/></symbol>,<symbol id="icon-down-arrow"  viewBox="0 0 451.847 451.847"><path d="M225.923 354.706c-8.098 0-16.195-3.092-22.369-9.263L9.27 151.157c-12.359-12.359-12.359-32.397 0-44.751 12.354-12.354 32.388-12.354 44.748 0l171.905 171.915 171.906-171.909c12.359-12.354 32.391-12.354 44.744 0 12.365 12.354 12.365 32.392 0 44.751L248.292 345.449c-6.177 6.172-14.274 9.257-22.369 9.257z"/></symbol>,<symbol id="icon-embed"  viewBox="0 0 17 10"><path d="M4.482 0L5.87 1.468 2.864 4.473 5.87 7.491 4.482 8.94 0 4.47zm6.906 0L10 1.468l3.006 3.005L10 7.491l1.388 1.449 4.482-4.47z"/></symbol>,<symbol id="icon-employee-badge"  viewBox="-289 380 33 33"><path fill="#FFF" stroke="#0082BE" stroke-miterlimit="10" d="M-272.4 381.6c8.3 0 15.1 6.8 15.1 15.1s-6.8 15.1-15.1 15.1-15.1-6.8-15.1-15.1c0-9 6.1-15.1 15.1-15.1z"/><path fill="#0582BE" d="M-282.7 395.8v-9.7h21c-3.7 7.1-10.8 20.7-10.8 20.7 3.9-.1 8.9-2.6 9.9-8.8v9.2h-20.8s10.8-20.7 10.9-20.7c-5.8.1-9.5 4.1-10.2 9.3z"/></symbol>,<symbol id="icon-facebook-share"  viewBox="0 0 32 32"><path d="M32 0H0v32h17.103V19.625h-4.165V14.78h4.165v-3.564c0-4.133 2.527-6.384 6.213-6.384a35.42 35.42 0 0 1 3.718.188v4.32h-2.537c-2.009 0-2.4.949-2.4 2.35v3.084h4.8l-.624 4.844H22.07V32H32V0z"/></symbol>,<symbol id="icon-facebook"  viewBox="0 0 60.734 60.733"><path d="M57.378.001H3.352A3.352 3.352 0 0 0 0 3.353v54.026a3.353 3.353 0 0 0 3.352 3.354h29.086V37.214h-7.914v-9.167h7.914v-6.76c0-7.843 4.789-12.116 11.787-12.116 3.355 0 6.232.251 7.071.36v8.198l-4.854.002c-3.805 0-4.539 1.809-4.539 4.462v5.851h9.078l-1.187 9.166h-7.892v23.52h15.475a3.355 3.355 0 0 0 3.355-3.351V3.351a3.352 3.352 0 0 0-3.354-3.35z"/></symbol>,<symbol id="icon-favicon"  xmlns:xlink="http://www.w3.org/1999/xlink" id="Layer_1" x="0" y="0" version="1.1" viewBox="0 0 48 48" xml:space="preserve"><style><![CDATA[.st1{fill:#fff}.st2{fill:#317da1}.st3{fill:#00344b}]]></style><path fill="#898989" d="M1088 13.26h792V330h-792z"/><path d="M1230.84 89.84h133.43v133.43h-133.43z" class="st1"/><path d="M1350.96 208.34h-21.33c-18.38 0-18.41-3.35-25.01-32.95-2.55-10.57-10.58-12.78-18.97-12.78h-6.92v24.08c0 12.21 2.65 15.3 8.83 15.3v6.36h-43.4v-6.36c6.33 0 9.12-2.79 9.12-15.3v-62.47c0-9.12-2.65-13.09-9.12-13.09v-6.36h39.13c29.28 0 52.81 3.53 52.81 28.1 0 20.01-15.74 25.6-31.63 26.63 13.24-.44 24.7 4.4 30.6 26.6 2.94 11.18 12.06 15.59 15.89 15.89v6.35zm-67.68-97.21h-4.56v45.12h4.55c16.76 0 23.54-7.42 23.54-21.19.01-16.18-7.79-23.93-23.53-23.93z" class="st2"/><path d="M1484 132.9h48v48h-48z" class="st1"/><path d="M1527.21 175.53h-7.67c-6.61 0-6.62-1.2-9-11.85-.92-3.8-3.81-4.6-6.83-4.6h-2.49v8.66c0 4.39.95 5.5 3.18 5.5v2.29h-15.61v-2.29c2.28 0 3.28-1.01 3.28-5.5v-22.47c0-3.28-.95-4.71-3.28-4.71v-2.29h14.08c10.53 0 19 1.27 19 10.11 0 7.2-5.66 9.21-11.38 9.58 4.76-.16 8.89 1.58 11.01 9.57 1.06 4.02 4.34 5.61 5.72 5.72v2.28zm-24.34-34.97h-1.64v16.23h1.64c6.03 0 8.47-2.67 8.47-7.62-.01-5.82-2.81-8.61-8.47-8.61z" class="st2"/><text font-family="Roboto-Regular" font-size="12" transform="translate(1130.38 -211.987)">Ready Patient Favicon</text><path d="M3280.76-586.24h48v48h-48z" class="st1"/><path d="M3292.75-375.15c.23 7.23 3.06 9.83 6.94 10.69 3 .69 7.28-.75 8.55-4.57l.75.29c-.81 3.64-4.62 7.98-12.14 7.98-7.57 0-13.23-6.47-13.23-13.75 0-9.02 6.53-13.99 14.04-13.99 7.28 0 12.14 3.41 12.14 13.35h-17.05zm9.37-2.19c0-7.28-1.56-10.4-4.45-10.4-3.06 0-4.91 4.85-4.91 10.4h9.36zm36.54 12.42c-.64 2.2-3.47 4.16-7.11 4.16 0 0-5.78 0-6.36-4.91-.81 2.77-3.99 4.91-8.09 4.91-1.1 0-6.94-.46-6.94-5.89 0-6.01 4.8-6.88 14.97-9.36v-3.64c0-6.01-3.35-9.07-7.34-7.05-.92.46-1.73 1.39-.52 1.73.92.23 1.62.81 2.14 1.73.92 1.79.23 3.99-1.56 4.97-1.79.92-4.05.23-4.97-1.56-.64-1.33-.52-2.89.29-3.87.64-.87 1.5-2.2 4.16-3.58 2.6-1.39 5.55-1.21 5.55-1.21 7.57 0 10.69 4.74 10.69 11.56v8.61s0 4.1 2.77 4.05c0 0 1.33 0 1.68-.98l.64.33zm-19.65-3.17s0 3.81 3.01 3.81c1.5 0 2.54-1.16 3.12-2.54v-8.38c-5.21 1.15-6.13 4.27-6.13 7.11zm51.54 5.95l-9.77 1.33c-1.62.29-1.62-1.04-1.62-1.04v-4.34c-1.39 3.76-5.84 5.43-9.25 5.43-7.28 0-12.48-4.85-12.48-13.99 0-9.42 6.18-13.75 14.39-13.75 3.58 0 5.89.87 7.34 2.14v-11.44c0-2.02-.58-2.72-2.95-3.58v-.69l11.38-2.31v37.74c0 2.83.58 3.47 2.95 3.76v.74zm-11.38-16.65c0-6.3-3.06-8.96-6.18-8.96-3.53 0-5.55 2.77-5.55 12.08 0 8.32 1.68 12.08 6.13 12.08 3.06 0 5.32-2.43 5.61-5.32v-9.88z" class="st2"/><path d="M3399.93-387.98v.69c-2.72 0-4.68 1.16-8.09 9.25l-8.03 22.02c-1.62 4.85-3.35 6.76-4.57 7.8-1.16.92-3.47 1.27-4.97.58-2.25-1.04-3.29-3.7-2.25-5.95.98-2.25 3.64-3.24 5.89-2.25 1.16.52 1.91 1.45 2.26 2.54.23.81 1.68 1.16 2.95-2.95l1.1-3c-1.79-4.1-12.08-25.08-12.08-25.08-1.27-2.66-3.12-2.89-4.16-2.95v-.69h15.89v.69c-3.47 0-1.45 4.22-1.45 4.22l6.01 12.25 2.72-7.4s3.35-9.07-3.64-9.07v-.69h12.42z" class="st2"/><path d="M3411.43-369.19c0 6.99 2.89 7.17 5.78 7.17v.75h-19.01v-.75c2.43 0 3.24-2.02 3.24-5.95v-27.45c0-3.58-1.04-5.78-3.58-5.78v-.75h14.62c11.5 0 21.27 1.39 21.27 11.67 0 10.23-9.77 11.62-21.27 11.62h-1.04v9.47zm1.05-10.23c7.11 0 9.82-.17 9.82-10.86 0-10.98-3.06-10.92-9.82-10.92h-1.04v21.79h1.04zm47.62 14.5c-.64 2.2-3.47 4.16-7.11 4.16 0 0-5.78 0-6.36-4.91-.81 2.77-3.99 4.91-8.09 4.91-1.1 0-6.94-.46-6.94-5.89 0-6.01 4.8-6.88 14.97-9.36v-3.64c0-6.01-3.35-9.07-7.34-7.05-.92.46-1.73 1.39-.52 1.73.92.23 1.62.81 2.14 1.73.92 1.79.23 3.99-1.56 4.97-1.79.92-4.05.23-4.97-1.56-.64-1.33-.52-2.89.29-3.87.64-.87 1.5-2.2 4.16-3.58 2.6-1.39 5.55-1.21 5.55-1.21 7.57 0 10.69 4.74 10.69 11.56v8.61s0 4.1 2.77 4.05c0 0 1.33 0 1.68-.98l.64.33zm-19.65-3.17s0 3.81 3.01 3.81c1.5 0 2.54-1.16 3.12-2.54v-8.38c-5.2 1.15-6.13 4.27-6.13 7.11zm37.15 1.67c-.93 2.89-4.39 5.66-8.44 5.66-4.56 0-8.55-1.85-8.55-8.84v-17.63h-3.24l-.12-2.2h3.35v-6.3l8.5-1.21v7.51h7.17l-.12 2.2h-7.05v17.45c0 3.24 1.27 4.85 4.39 4.85 1.68 0 2.89-1.04 3.47-1.85l.64.36z" class="st3"/><path d="M3490-361.28h-13.18v-.69c2.2-.69 2.31-3.12 2.31-6.07v-13.47c0-2.02-.64-2.83-3.01-3.87v-.75l11.5-2.37v20.46c0 3.18.29 5.49 2.37 6.07v.69zm-7.22-39.7c2.6 0 4.74 2.08 4.74 4.74 0 2.6-2.14 4.68-4.74 4.68-2.66 0-4.74-2.08-4.74-4.68 0-2.66 2.08-4.74 4.74-4.74zm16.11 25.83c.23 7.23 3.06 9.83 6.94 10.69 3 .69 7.28-.75 8.55-4.57l.75.29c-.81 3.64-4.62 7.98-12.14 7.98-7.57 0-13.23-6.47-13.23-13.75 0-9.02 6.53-13.99 14.04-13.99 7.28 0 12.14 3.41 12.14 13.35h-17.05zm9.36-2.19c0-7.28-1.56-10.4-4.45-10.4-3.06 0-4.91 4.85-4.91 10.4h9.36z" class="st3"/><path d="M3545.98-361.28h-13.18v-.69c2.2-.64 2.31-3.18 2.31-6.13v-11.39c0-3.06-1.5-4.85-4.34-4.85-1.79 0-3.76 1.73-4.16 3.53v12.83c0 3.18.29 5.43 2.37 6.01v.69h-13.18v-.69c2.2-.64 2.25-3.06 2.25-6.01v-13.58c0-2.02-.58-2.77-2.95-3.81v-.75l11.5-2.37v5.9c1.39-3.3 5.2-5.9 8.61-5.9 4.56 0 8.38 1.85 8.38 8.78v11.62c0 3.18.29 5.61 2.37 6.13v.68zm18.2-5.14c-.93 2.89-4.39 5.66-8.44 5.66-4.57 0-8.55-1.85-8.55-8.84v-17.63h-3.24l-.12-2.2h3.35v-6.3l8.5-1.21v7.51h7.17l-.12 2.2h-7.05v17.45c0 3.24 1.27 4.85 4.39 4.85 1.68 0 2.89-1.04 3.47-1.85l.64.36z" class="st3"/><path d="M3580.19-462.25h-8.38c-7.22 0-7.17-1.33-9.82-12.94-1.33-5.89-7.45-5.72-7.45-5.72h-2.72V-469c0 4.8 1.04 6.01 3.47 6.01v.75h-17.05v-.76c2.48 0 3.58-1.1 3.58-6.01v-28.03c0-3.58-1.04-5.14-3.58-5.14v-.75h15.37c11.5 0 20.75 1.39 20.75 11.04 0 7.86-6.18 10.06-12.42 10.46 5.2-.17 9.25 1.79 12.02 12.19 1.16 4.39 4.74 6.13 6.24 6.24v.75zm-26.59-39.93h-1.79v20.52h1.79c6.59 0 9.25.06 9.25-10.23 0-10.52-3.06-10.29-9.25-10.29z" class="st2"/><path d="M3586.34-476.12c.23 7.23 3.06 9.83 6.94 10.69 3 .69 7.28-.75 8.55-4.57l.75.29c-.81 3.64-4.62 7.98-12.14 7.98-7.57 0-13.23-6.47-13.23-13.75 0-9.02 6.53-13.99 14.04-13.99 7.28 0 12.14 3.41 12.14 13.35h-17.05zm9.36-2.19c0-7.28-1.56-10.4-4.45-10.4-3.06 0-4.91 4.85-4.91 10.4h9.36zm36.54 12.42c-.64 2.2-3.47 4.16-7.11 4.16 0 0-5.78 0-6.36-4.91-.81 2.77-3.99 4.91-8.09 4.91-1.1 0-6.94-.46-6.94-5.89 0-6.01 4.8-6.88 14.97-9.36v-3.64c0-6.01-3.35-9.07-7.34-7.05-.92.46-1.73 1.39-.52 1.73.92.23 1.62.81 2.14 1.73.92 1.79.23 3.99-1.56 4.97-1.79.92-4.05.23-4.97-1.56-.64-1.33-.52-2.89.29-3.87.64-.87 1.5-2.2 4.16-3.58 2.6-1.39 5.55-1.21 5.55-1.21 7.57 0 10.69 4.74 10.69 11.56v8.61s0 4.1 2.77 4.05c0 0 1.33 0 1.68-.98l.64.33zm-19.65-3.17s0 3.81 3.01 3.81c1.5 0 2.54-1.16 3.12-2.54v-8.38c-5.2 1.15-6.13 4.27-6.13 7.11zm51.54 5.95l-9.77 1.33c-1.62.29-1.62-1.04-1.62-1.04v-4.34c-1.39 3.76-5.84 5.43-9.25 5.43-7.28 0-12.48-4.85-12.48-13.99 0-9.42 6.18-13.75 14.39-13.75 3.58 0 5.89.87 7.34 2.14v-11.44c0-2.02-.58-2.72-2.95-3.58v-.69l11.38-2.31v37.74c0 2.83.58 3.47 2.95 3.76v.74zm-11.38-16.65c0-6.3-3.06-8.96-6.18-8.96-3.52 0-5.55 2.77-5.55 12.08 0 8.32 1.68 12.08 6.13 12.08 3.06 0 5.32-2.43 5.61-5.32v-9.88z" class="st2"/><path d="M3693.51-488.95v.69c-2.72 0-4.68 1.16-8.09 9.25l-8.03 22.02c-1.62 4.85-3.35 6.76-4.57 7.8-1.16.92-3.47 1.27-4.97.58-2.25-1.04-3.29-3.7-2.25-5.95.98-2.25 3.64-3.24 5.89-2.25 1.16.52 1.91 1.45 2.26 2.54.23.81 1.68 1.16 2.95-2.95l1.1-3c-1.79-4.1-12.08-25.08-12.08-25.08-1.27-2.66-3.12-2.89-4.16-2.95v-.69h15.89v.69c-3.47 0-1.44 4.22-1.44 4.22l6.01 12.25 2.71-7.4s3.35-9.07-3.64-9.07v-.69h12.42z" class="st2"/><path d="M3705.02-470.16c0 6.99 2.89 7.17 5.78 7.17v.75h-19.01v-.76c2.43 0 3.24-2.02 3.24-5.95v-27.45c0-3.58-1.04-5.78-3.58-5.78v-.75h14.62c11.5 0 21.27 1.39 21.27 11.67 0 10.23-9.77 11.62-21.27 11.62h-1.04v9.48zm1.04-10.23c7.11 0 9.82-.17 9.82-10.86 0-10.98-3.06-10.92-9.82-10.92h-1.04v21.79h1.04zm47.62 14.5c-.64 2.2-3.47 4.16-7.11 4.16 0 0-5.78 0-6.36-4.91-.81 2.77-3.99 4.91-8.09 4.91-1.1 0-6.94-.46-6.94-5.89 0-6.01 4.8-6.88 14.97-9.36v-3.64c0-6.01-3.35-9.07-7.34-7.05-.92.46-1.73 1.39-.52 1.73.92.23 1.62.81 2.14 1.73.92 1.79.23 3.99-1.56 4.97-1.79.92-4.05.23-4.97-1.56-.64-1.33-.52-2.89.29-3.87.64-.87 1.5-2.2 4.16-3.58 2.6-1.39 5.55-1.21 5.55-1.21 7.57 0 10.69 4.74 10.69 11.56v8.61s0 4.1 2.77 4.05c0 0 1.33 0 1.68-.98l.64.33zm-19.65-3.17s0 3.81 3.01 3.81c1.5 0 2.54-1.16 3.12-2.54v-8.38c-5.2 1.15-6.13 4.27-6.13 7.11zm37.15 1.67c-.93 2.89-4.39 5.66-8.44 5.66-4.56 0-8.55-1.85-8.55-8.84v-17.63h-3.24l-.12-2.2h3.35v-6.3l8.5-1.21v7.51h7.17l-.12 2.2h-7.05v17.45c0 3.24 1.27 4.85 4.39 4.85 1.68 0 2.89-1.04 3.47-1.85l.64.36z" class="st3"/><path d="M3783.59-462.25h-13.18v-.69c2.2-.69 2.31-3.12 2.31-6.07v-13.47c0-2.02-.64-2.83-3.01-3.87v-.75l11.5-2.37v20.46c0 3.18.29 5.49 2.37 6.07v.69zm-7.23-39.7c2.6 0 4.74 2.08 4.74 4.74 0 2.6-2.14 4.68-4.74 4.68-2.66 0-4.74-2.08-4.74-4.68 0-2.66 2.08-4.74 4.74-4.74zm16.11 25.83c.23 7.23 3.06 9.83 6.94 10.69 3 .69 7.28-.75 8.55-4.57l.75.29c-.81 3.64-4.62 7.98-12.14 7.98-7.57 0-13.23-6.47-13.23-13.75 0-9.02 6.53-13.99 14.04-13.99 7.28 0 12.14 3.41 12.14 13.35h-17.05zm9.36-2.19c0-7.28-1.56-10.4-4.45-10.4-3.06 0-4.91 4.85-4.91 10.4h9.36z" class="st3"/><path d="M3839.56-462.25h-13.18v-.69c2.2-.64 2.31-3.18 2.31-6.13v-11.39c0-3.06-1.5-4.85-4.34-4.85-1.79 0-3.76 1.73-4.16 3.53v12.83c0 3.18.29 5.43 2.37 6.01v.69h-13.18v-.69c2.2-.64 2.25-3.06 2.25-6.01v-13.58c0-2.02-.58-2.77-2.95-3.81v-.75l11.5-2.37v5.9c1.39-3.3 5.2-5.9 8.61-5.9 4.56 0 8.38 1.85 8.38 8.78v11.62c0 3.18.29 5.61 2.37 6.13v.68zm18.2-5.14c-.93 2.89-4.39 5.66-8.44 5.66-4.56 0-8.55-1.85-8.55-8.84v-17.63h-3.24l-.12-2.2h3.35v-6.3l8.5-1.21v7.51h7.17l-.12 2.2h-7.05v17.45c0 3.24 1.27 4.85 4.39 4.85 1.68 0 2.89-1.04 3.47-1.85l.64.36z" class="st3"/><path fill="none" d="M2247.86-330.15h91.16v3.96h-91.16z"/><path d="M3221.2-586.24h48v48h-48z" class="st1"/><path d="M2523.27-676.24h228v228h-228zm-256.51 0h228v228h-228zm997.65 132.63h-7.67c-6.61 0-6.56-1.22-9-11.85-1.22-5.4-6.83-5.24-6.83-5.24h-2.49v10.9c0 4.39.95 5.5 3.18 5.5v.69h-15.61v-.69c2.28 0 3.28-1.01 3.28-5.5v-25.67c0-3.28-.95-4.71-3.28-4.71v-.69h14.08c10.53 0 19 1.27 19 10.11 0 7.2-5.66 9.21-11.38 9.58 4.76-.16 8.47 1.64 11.01 11.17 1.06 4.02 4.34 5.61 5.72 5.72v.68zm-24.34-36.57h-1.64v18.79h1.64c6.03 0 8.47.05 8.47-9.37-.01-9.63-2.81-9.42-8.47-9.42zm83.9 36.57h-7.67c-6.61 0-6.62-1.2-9-11.85-.92-3.8-3.81-5.08-6.83-5.08h-2.49v10.09c0 4.39.95 5.5 3.18 5.5v1.35h-15.61v-1.35c2.28 0 3.28-1.01 3.28-5.5v-24.34c0-3.28-.95-4.71-3.28-4.71v-1.36h14.08c10.53 0 19 1.27 19 10.11 0 7.2-5.66 9.21-11.38 9.58 4.76-.16 8.66 1.34 11.01 10.51 1.06 4.02 4.34 5.61 5.72 5.72v1.33zm-24.34-35.92h-1.64v17.63h1.64c6.03 0 8.47-.98 8.47-8.87-.01-6.88-2.81-8.76-8.47-8.76z" class="st2"/><path d="M3593.99-586.24h48v48h-48zm-827.32-89.66h228v228h-228z" class="st1"/><path d="M2899.14-530.82h-21.97c-18.93 0-18.78-3.48-25.75-33.93-3.48-15.45-19.54-15-19.54-15h-7.12v31.2c0 12.57 2.73 15.75 9.09 15.75v1.97h-44.68v-1.97c6.51 0 9.39-2.88 9.39-15.75V-622c0-9.39-2.73-13.48-9.39-13.48v-1.97h40.29c30.14 0 54.38 3.64 54.38 28.93 0 20.6-16.21 26.36-32.56 27.42 13.63-.45 24.23 4.69 31.5 31.96 3.03 11.51 12.42 16.06 16.36 16.36v1.96zm-69.68-104.66h-4.69v53.77h4.69c17.27 0 24.24.15 24.24-26.81 0-27.57-8.03-26.96-24.24-26.96z" class="st2"/><path d="M2760.95-744.17h-21.97c-18.93 0-18.78-3.48-25.75-33.93-3.48-15.45-19.54-15-19.54-15h-7.12v31.2c0 12.57 2.73 15.75 9.09 15.75v1.97h-44.68v-1.97c6.51 0 9.39-2.88 9.39-15.75v-73.46c0-9.39-2.73-13.48-9.39-13.48v-1.97h40.29c30.14 0 54.38 3.64 54.38 28.93 0 20.6-16.21 26.36-32.56 27.42 13.63-.45 24.23 4.69 31.5 31.96 3.03 11.51 12.42 16.06 16.36 16.36v1.97zm-69.68-104.66h-4.69v53.77h4.69c17.27 0 24.24.15 24.24-26.81 0-27.57-8.03-26.96-24.24-26.96z" class="st1"/><path d="M2921.77-501.44c0 16.83 6.95 17.24 13.91 17.24v1.81h-45.75v-1.81c5.84 0 7.79-4.87 7.79-14.32v-66.06c0-8.62-2.51-13.91-8.62-13.91v-1.81h35.19c27.67 0 51.17 3.34 51.17 28.09 0 24.61-23.5 27.95-51.17 27.95h-2.51v22.82zm2.5-24.62c17.1 0 23.64-.42 23.64-26.14 0-26.42-7.37-26.28-23.64-26.28h-2.51v52.43h2.51z" class="st3"/><circle cx="2636.51" cy="-639.92" r="14.54" class="st1"/><path d="M2587.44-486.47c-2.56 5.08-.52 11.28 4.56 13.84a10.292 10.292 0 0 0 13.84-4.56l23.79-47.16-17.18-11.71-25.01 49.59z" class="st1"/><path d="M2680.23-556.46l-14.56-19.81c-12.4-33.07-16.22-36.53-17.49-37.67-6.57-5.94-21.7-8.68-27.77-7.28-3.33.78-7.9 1.85-44.55 56.27a8.183 8.183 0 0 0 2.22 11.37c3.75 2.52 8.84 1.54 11.37-2.22 7.84-11.64 16.71-24.33 23.88-34.12-.92 3.57-1.76 6.66-2.31 8.29-3.44 10.23-7.62 18.57-7.08 25.27.62 7.85 5.26 13.44 10.09 17.2l-.01.03 26.94 18.37c.46.31.64.81.67 1.32.12.11.3.27.4.37 1.01 5.52 2.19 23.87 2.77 39.09.21 5.56 4.78 9.92 10.29 9.92.13 0 .26 0 .4-.01 5.68-.21 10.12-5 9.91-10.69-1.53-40.42-3.79-45.47-4.53-47.12-.89-1.98-2.81-6.3-22.49-20.28a10.7 10.7 0 0 0-.77-1.81l7.55-33.78c1.89 4.66 3.83 9.63 5.56 14.29l.4 1.07 15.9 21.65a8.172 8.172 0 0 0 6.61 3.34c1.69 0 3.38-.52 4.84-1.59 3.65-2.7 4.43-7.83 1.76-11.47zm-39.63-37.08l.16-.67c.09.21.17.38.27.59l-.43.08z" class="st1"/><path d="M3275.58-610.32l-.65 2.78h-.5l1.91-8.08h.49l1.93 8.08h-.53l-.65-2.78h-2zm1.89-.45l-.52-2.28c-.14-.62-.25-1.2-.36-1.85h-.05c-.1.66-.22 1.26-.35 1.86l-.5 2.27h1.78zm2.4-4.85h.52v7.64h2.4v.44h-2.92v-8.08zm4.38 0v8.08h-.52v-8.08h.52zm2.49.44h-1.51v-.44h3.54v.44h-1.51v7.64h-.52v-7.64zm3.96 0h-1.51v-.44h3.54v.44h-1.51v7.64h-.52v-7.64zm2.98-.44h.52v7.64h2.4v.44h-2.92v-8.08zm6.52 4.06h-2.13v3.56h2.45v.46h-2.96v-8.08h2.81v.46h-2.29v3.15h2.13v.45zm4.13-3.62h-1.51v-.44h3.54v.44h-1.51v7.64h-.52v-7.64zm3.5-.44v3.61h2.65v-3.61h.52v8.08h-.52v-4.02h-2.65v4.02h-.52v-8.08h.52zm5.17 0v8.08h-.52v-8.08h.52zm4.82 7.92c-.26.14-.65.23-1.13.23-1.27 0-2.5-1.01-2.5-4.03 0-3.27 1.51-4.2 2.61-4.2.44 0 .78.08.95.19l-.17.46c-.2-.1-.4-.18-.86-.18-.84 0-1.99.89-1.99 3.63 0 2.82 1.02 3.66 2.04 3.66.4 0 .71-.1.9-.2l.15.44zm1.01-7.92h.52v3.97h.02c.22-.34.4-.65.56-.94l1.78-3.03h.59l-2.09 3.41 2.16 4.68h-.56l-1.94-4.23-.52.84v3.39h-.52v-8.09zm7.1 4.06h-2.13v3.56h2.45v.46h-2.96v-8.08h2.81v.46h-2.29v3.15h2.13v.45zm1.3 4.02v-8.08h.52l1.63 4.17c.4 1.02.83 2.11 1.14 3.09h.02c-.08-1.54-.08-2.35-.08-3.69v-3.57h.49v8.08h-.52l-1.73-4.39c-.36-.9-.7-1.75-1.04-2.94h-.02c.08 1.25.08 2.13.08 3.92v3.41h-.49zm7.86-4.02h-2.13v3.56h2.45v.46h-2.96v-8.08h2.81v.46h-2.29v3.15h2.13v.45zm1.3-3.94c.32-.12.66-.16 1.02-.16.74 0 1.28.19 1.68.54.59.49 1.12 1.52 1.12 3.29 0 1.98-.47 2.89-.88 3.41-.5.64-1.27.92-2.07.92-.3 0-.62-.01-.86-.07v-7.93zm.51 7.51c.17.02.31.02.4.02 1.17 0 2.36-.73 2.36-3.8 0-2.27-.74-3.45-2.25-3.45-.17 0-.36.02-.5.05v7.18z"/><defs><path id="SVGID_1_" d="M3593.99-592.76h48v58h-48z"/></defs><clipPath id="SVGID_2_"><use overflow="visible" xlink:href="#SVGID_1_"/></clipPath><g clip-path="url(#SVGID_2_)"><path d="M3618.61-549.09h-7.67c-6.61 0-6.62-1.2-9-11.85-.92-3.8-3.81-4.6-6.83-4.6h-2.49v8.66c0 4.39.95 5.5 3.18 5.5v2.29h-15.61v-2.29c2.28 0 3.28-1.01 3.28-5.5v-22.47c0-3.28-.95-4.71-3.28-4.71v-2.29h14.08c10.53 0 19 1.27 19 10.11 0 7.2-5.66 9.21-11.38 9.58 4.76-.16 8.89 1.58 11.01 9.57 1.06 4.02 4.34 5.61 5.72 5.72v2.28zm-24.34-34.97h-1.64v16.23h1.64c6.03 0 8.47-2.67 8.47-7.62-.01-5.83-2.81-8.61-8.47-8.61z" class="st2"/><path d="M3624.89-545.41c0 6.33 2.62 6.49 5.23 6.49v.68h-17.22v-.68c2.2 0 2.93-1.83 2.93-5.39v-24.86c0-3.24-.94-5.23-3.25-5.23v-.68h13.24c10.41 0 19.26 1.26 19.26 10.57 0 9.26-8.84 10.52-19.26 10.52h-.94v8.58zm.94-9.26c6.44 0 8.9-.16 8.9-9.84 0-9.94-2.77-9.89-8.9-9.89h-.94v19.73h.94z" class="st3"/></g><defs><path id="SVGID_3_" d="M2266.76-676.24h228v228h-228z"/></defs><clipPath id="SVGID_4_"><use overflow="visible" xlink:href="#SVGID_3_"/></clipPath><path fill="#fff" d="M2535.35-446.83h-51.09c-44.03 0-43.69-8.1-59.9-78.92-8.1-35.94-45.44-34.89-45.44-34.89h-16.56v72.59c0 29.24 6.34 36.64 21.14 36.64v4.58h-103.94v-4.58c15.15 0 21.84-6.69 21.84-36.64v-170.89c0-21.84-6.34-31.35-21.84-31.35v-4.59h93.71c70.12 0 126.48-80.45 126.48 67.29 0 47.92-37.7 61.31-75.74 63.78 31.71-1.06 56.37 10.92 73.28 74.34 7.05 26.77 28.89 37.35 38.05 38.05v4.59zm-162.07-243.45h-10.92v125.07h10.92c40.17 0 56.38.35 56.38-62.36-.01-64.12-18.68-62.71-56.38-62.71z" clip-path="url(#SVGID_4_)"/><path d="M1203.6-99.75h14.01v14.01h-14.01z" class="st1"/><path d="M1216.21-87.31h-2.24c-1.93 0-1.93-.35-2.63-3.46-.27-1.11-1.11-1.34-1.99-1.34h-.73v2.53c0 1.28.28 1.61.93 1.61v.67H1205v-.67c.66 0 .96-.29.96-1.61v-6.56c0-.96-.28-1.37-.96-1.37v-.67h4.11c3.07 0 5.54.37 5.54 2.95 0 2.1-1.65 2.69-3.32 2.8 1.39-.05 2.59.46 3.21 2.79.31 1.17 1.27 1.64 1.67 1.67v.66zm-7.1-10.21h-.48v4.74h.48c1.76 0 2.47-.78 2.47-2.22 0-1.7-.82-2.52-2.47-2.52z" class="st2"/><text fill="#d8d6d7" font-family="MyriadPro-Regular" font-size="12" transform="translate(1244.154 -59.894)">http://ReadyPatient.com</text><path d="M0 0h48v48H0z" class="st1"/><path d="M43.21 42.63h-7.67c-6.61 0-6.62-1.2-9-11.85-.92-3.8-3.81-4.6-6.83-4.6h-2.49v8.66c0 4.39.95 5.5 3.18 5.5v2.29H4.79v-2.29c2.28 0 3.28-1.01 3.28-5.5V12.37c0-3.28-.95-4.71-3.28-4.71V5.37h14.08c10.53 0 19 1.27 19 10.11 0 7.2-5.66 9.21-11.38 9.58 4.76-.16 8.89 1.58 11.01 9.57 1.06 4.02 4.34 5.61 5.72 5.72v2.28zM18.87 7.66h-1.64v16.23h1.64c6.03 0 8.47-2.67 8.47-7.62-.01-5.82-2.81-8.61-8.47-8.61z" class="st2"/></symbol>,<symbol id="icon-financial"  viewBox="0 0 41 41"><path fill="#658C3C" fill-rule="evenodd" d="M29.193 15.914h-4.517v-2.259h-9.034v4.518h9.034a4.516 4.516 0 0 1 4.517 4.516v4.518a4.517 4.517 0 0 1-4.517 4.517h-2.258v3.632h-4.517v-3.632h-2.259a4.517 4.517 0 0 1-4.517-4.517v-2.259h4.517v2.259h9.034v-4.518h-9.034a4.516 4.516 0 0 1-4.517-4.516v-4.518a4.516 4.516 0 0 1 4.517-4.516h2.259V5.506h4.517v3.633h2.258a4.516 4.516 0 0 1 4.517 4.516v2.259zM33.692 0H7.17C3.226 0 0 3.226 0 7.171v26.52c0 3.945 3.226 7.171 7.17 7.171h26.522c3.943 0 7.17-3.226 7.17-7.171V7.171c0-3.945-3.227-7.171-7.17-7.171z"/></symbol>,<symbol id="icon-flag-tail"  width="15" height="40"><path d="M15 40H-.1V0H15L1 20.3z"/></symbol>,<symbol id="icon-hamburger"  viewBox="-27 29 40 40"><path d="M-22.8 37.4H8.4v3.1h-31.2zm0 10H8.4v3.1h-31.2zm0 10H8.4v3.1h-31.2z"/></symbol>,<symbol id="icon-instagram-share"  xmlns:xlink="http://www.w3.org/1999/xlink" viewBox="0 0 32 32"><defs><path id="a" d="M0 0h31.999v32H0z"/></defs><path d="M21.73 11.558a1.29 1.29 0 1 1 .002-2.578 1.29 1.29 0 0 1-.002 2.578M16 21.513a5.513 5.513 0 1 1 .002-11.027 5.513 5.513 0 0 1-.003 11.027m8.37-11.844a3.339 3.339 0 0 0-.803-1.235 3.35 3.35 0 0 0-1.235-.803c-.378-.148-.946-.322-1.993-.37-1.133-.051-1.47-.063-4.339-.063-2.865 0-3.205.012-4.337.063-1.047.048-1.615.222-1.993.37a3.35 3.35 0 0 0-1.235.803 3.338 3.338 0 0 0-.803 1.235c-.146.378-.321.946-.37 1.993-.051 1.132-.06 1.472-.06 4.337 0 2.867.009 3.206.06 4.339.049 1.045.224 1.615.37 1.993.195.5.428.859.803 1.234.377.376.733.609 1.235.802.378.148.946.323 1.993.37 1.132.053 1.472.064 4.337.064 2.868 0 3.207-.011 4.339-.063 1.047-.048 1.615-.223 1.993-.37.5-.194.859-.427 1.235-.803a3.34 3.34 0 0 0 .803-1.234c.146-.378.322-.948.369-1.993.052-1.133.063-1.472.063-4.339 0-2.865-.011-3.205-.063-4.337-.047-1.047-.223-1.615-.37-1.993"/><path d="M15.999 12.421a3.579 3.579 0 1 0 0 7.154 3.579 3.579 0 0 0 0-7.154"/><mask id="b" fill="#fff"><use xlink:href="#a"/></mask><path d="M26.67 20.425c-.052 1.143-.233 1.923-.499 2.607a5.258 5.258 0 0 1-1.238 1.901 5.266 5.266 0 0 1-1.902 1.239c-.682.265-1.462.446-2.605.498-1.145.052-1.51.064-4.427.064-2.914 0-3.28-.012-4.425-.064-1.143-.052-1.924-.233-2.605-.498a5.265 5.265 0 0 1-1.902-1.239 5.26 5.26 0 0 1-1.238-1.901c-.266-.684-.447-1.464-.499-2.607-.052-1.144-.065-1.51-.065-4.425 0-2.916.013-3.28.065-4.427.052-1.141.233-1.923.499-2.605a5.27 5.27 0 0 1 1.238-1.902A5.226 5.226 0 0 1 8.97 5.83c.681-.265 1.462-.447 2.605-.499 1.145-.053 1.51-.065 4.425-.065 2.916 0 3.282.012 4.427.065 1.143.052 1.923.234 2.605.5.707.272 1.306.64 1.902 1.236a5.27 5.27 0 0 1 1.238 1.902c.266.682.447 1.464.499 2.605.052 1.147.065 1.51.065 4.427 0 2.914-.013 3.281-.065 4.425zM-.001 32h32V0h-32v32z" mask="url(#b)"/></symbol>,<symbol id="icon-instagram"  viewBox="0 0 512.001 512.001"><path d="M373.406 0H138.594C62.172 0 0 62.172 0 138.594V373.41C0 449.828 62.172 512 138.594 512H373.41C449.828 512 512 449.828 512 373.41V138.594C512 62.172 449.828 0 373.406 0zm108.578 373.41c0 59.867-48.707 108.574-108.578 108.574H138.594c-59.871 0-108.578-48.707-108.578-108.574V138.594c0-59.871 48.707-108.578 108.578-108.578H373.41c59.867 0 108.574 48.707 108.574 108.578zm0 0"/><path d="M256 116.004c-77.195 0-139.996 62.8-139.996 139.996S178.804 395.996 256 395.996 395.996 333.196 395.996 256 333.196 116.004 256 116.004zm0 249.976c-60.64 0-109.98-49.335-109.98-109.98 0-60.64 49.34-109.98 109.98-109.98 60.645 0 109.98 49.34 109.98 109.98 0 60.645-49.335 109.98-109.98 109.98zM399.344 66.285c-22.813 0-41.367 18.559-41.367 41.367 0 22.813 18.554 41.371 41.367 41.371s41.37-18.558 41.37-41.37-18.558-41.368-41.37-41.368zm0 52.719c-6.258 0-11.352-5.094-11.352-11.352 0-6.261 5.094-11.351 11.352-11.351 6.261 0 11.355 5.09 11.355 11.351 0 6.258-5.094 11.352-11.355 11.352zm0 0"/></symbol>,<symbol id="icon-left-pointer"  viewBox="0 0 492 492"><path d="M464.344 207.418l.768.168H135.888l103.496-103.724c5.068-5.064 7.848-11.924 7.848-19.124 0-7.2-2.78-14.012-7.848-19.088L223.28 49.538c-5.064-5.064-11.812-7.864-19.008-7.864-7.2 0-13.952 2.78-19.016 7.844L7.844 226.914C2.76 231.998-.02 238.77 0 245.974c-.02 7.244 2.76 14.02 7.844 19.096l177.412 177.412c5.064 5.06 11.812 7.844 19.016 7.844 7.196 0 13.944-2.788 19.008-7.844l16.104-16.112c5.068-5.056 7.848-11.808 7.848-19.008 0-7.196-2.78-13.592-7.848-18.652L134.72 284.406h329.992c14.828 0 27.288-12.78 27.288-27.6v-22.788c0-14.82-12.828-26.6-27.656-26.6z"/></symbol>,<symbol id="icon-lifestyle"  xmlns:xlink="http://www.w3.org/1999/xlink" viewBox="0 0 41 42"><defs><path id="a" d="M0 .137h41v42H0z"/></defs><g fill="none" fill-rule="evenodd"><path fill="#4D668B" d="M20.72 37.81a.25.25 0 0 0 .023-.024l2.613-2.825c.628-.7.628-1.758 0-2.46a1.598 1.598 0 0 0-1.183-.526c-.451.002-.88.192-1.183.526l-.56.605-.558-.605a1.596 1.596 0 0 0-2.365.001 1.844 1.844 0 0 0 0 2.46l2.613 2.824a.425.425 0 0 0 .6.023"/><g transform="translate(0 -.137)"><mask id="b" fill="#fff"><use xlink:href="#a"/></mask><path fill="#4D668B" d="M20.5 24.687c-2.284 0-4.135-1.897-4.135-4.237 0-2.338 1.85-4.235 4.134-4.235 2.284 0 4.136 1.897 4.136 4.235 0 2.34-1.852 4.237-4.136 4.237M33.805.137H7.195C3.237.137 0 3.454 0 7.507v27.26c0 4.054 3.237 7.37 7.195 7.37h7.068v-9.763c-.914-.04-1.6-.086-1.85-.145-5.337-1.262-9.067-6.066-9.067-11.685 0-1.319 1.044-2.388 2.331-2.388s2.33 1.069 2.33 2.388c0 3.35 2.203 6.22 5.367 7.01 1.17.116 8.86.206 10.159.206.745 0 3.141-.046 3.569-.095 3.395-.552 5.89-3.55 5.89-7.121 0-1.319 1.043-2.388 2.33-2.388 1.287 0 2.33 1.069 2.33 2.388 0 5.933-4.147 10.915-9.861 11.842-.206.033-.594.06-1.055.08v9.671h7.069c3.957 0 7.195-3.316 7.195-7.37V7.508c0-4.053-3.238-7.37-7.195-7.37" mask="url(#b)"/></g></g></symbol>,<symbol id="icon-link"  viewBox="0 0 14 14"><path d="M1.059 8.255a2.915 2.915 0 0 0-.005 4.113 2.917 2.917 0 0 0 4.118 0L7.74 9.799A2.914 2.914 0 0 0 7.9 5.85a.576.576 0 0 0-.774-.064.576.576 0 0 0-.064.775 1.8 1.8 0 0 1-.091 2.468L4.4 11.6a1.809 1.809 0 0 1-2.577 0 1.808 1.808 0 0 1 .005-2.574l2.44-2.441c.21-.2.21-.574.01-.775a.566.566 0 0 0-.779.005L1.058 8.256l.001-.001zm4.627-4.627a2.905 2.905 0 0 0-.16 3.948c.2.22.538.246.77.06a.56.56 0 0 0 .06-.77 1.806 1.806 0 0 1 .1-2.469l2.569-2.568a1.802 1.802 0 0 1 2.569 0c.72.72.724 1.853.004 2.573L9.157 6.843c-.21.2-.21.574-.01.774.22.207.563.205.78-.004l2.44-2.441a2.917 2.917 0 0 0 0-4.118 2.915 2.915 0 0 0-4.112.005L5.686 3.628z"/></symbol>,<symbol id="icon-linkedin"  viewBox="0 0 510 510"><path d="M459 0H51C22.95 0 0 22.95 0 51v408c0 28.05 22.95 51 51 51h408c28.05 0 51-22.95 51-51V51c0-28.05-22.95-51-51-51zM153 433.5H76.5V204H153v229.5zm-38.25-272.85c-25.5 0-45.9-20.4-45.9-45.9s20.4-45.9 45.9-45.9 45.9 20.4 45.9 45.9-20.4 45.9-45.9 45.9zM433.5 433.5H357V298.35c0-20.399-17.85-38.25-38.25-38.25s-38.25 17.851-38.25 38.25V433.5H204V204h76.5v30.6c12.75-20.4 40.8-35.7 63.75-35.7 48.45 0 89.25 40.8 89.25 89.25V433.5z"/></symbol>,<symbol id="icon-minus"  viewBox="-35 37 24 24"><path d="M-14.7 48.3c0-.4-.3-.7-.7-.7h-15.3c-.4 0-.7.3-.7.7v1.4c0 .4.3.7.7.7h15.3c.4 0 .7-.3.7-.7v-1.4z"/></symbol>,<symbol id="icon-paid-contributor"  viewBox="-289 380 33 34"><circle cx="-272.5" cy="397.1" r="15.4" fill="#0582BD"/><path fill="#FEFEFE" d="M-265.8 400.8l.3 4.1c-2 1.3-3.8 1.6-6.7 1.6-5.6 0-9.3-3.9-9.3-9.4s3.6-9.4 9.3-9.4c2.8 0 5 .3 6.7 1.6l-.3 4.1h-.4c-1.1-3.9-3.3-5.3-5.9-5.3-2.9 0-5.2 1.5-5.2 9 0 7.6 2.4 9 5.2 9 2.7 0 5.4-1.9 5.9-5.3h.4z"/></symbol>,<symbol id="icon-pencil"  viewBox="-27 29 40 40"><path d="M-22.2 64.7l.6-2.9 2.2-10.4L-7 39c-.1-.1-.1-.3-.1-.5 0-.3.1-.7.4-.9.3-.3.8-.4 1.3-.3-.1-.4 0-.9.3-1.2.3-.3.9-.5 1.4-.3 0-.6.3-1.2.8-1.6.5-.5 1.1-.7 1.8-.7s1.2.3 1.7.8l8.3 8c.5.4.7 1 .8 1.6 0 .7-.2 1.4-.7 1.9-.5.5-1.2.8-1.9.7h-.2c.1.4 0 .9-.3 1.2-.6.3-1.1.4-1.5.3.1.4-.1.8-.3 1.1v.1c-.3.3-.7.4-1.1.3L-8.9 62l-7.8 1.6-1.4.3-4.1.8zm2-4.9l2.7 2.9 7.3-1.5-8.6-8.5-1.4 7.1zm8.7-1.4l2.4 2.4L2.2 49.5l-2.4-2.4-11.3 11.3zm-4.2-4.1l3.5 3.4L-.9 46.4l-3.4-3.5-11.4 11.4zm-2.6-2.6l1.9 1.9L-5 42.2l-1.9-1.9-11.4 11.4zm12.5-13.4c-.1 0-.1 0-.2.1s-.1.2-.1.2 0 .1.1.2l9.7 9.7c.1.1.2.1.4 0 .1-.2.1-.3.1-.4l-9.8-9.8h-.2zm1.5-1.5c-.1 0-.1 0-.2.1s-.1.3 0 .4L5.2 47c.1.1.3.1.4 0 .1-.1.1-.3 0-.4l-9.7-9.7c0-.1-.1-.1-.2-.1zm3-2.3c-.4 0-.8.2-1.1.5-.3.3-.4.6-.5 1 0 .4.2.8.5 1.1l8.3 8c.3.3.6.4 1 .5.4 0 .8-.2 1.1-.5.3-.3.5-.7.5-1.1 0-.4-.2-.7-.4-.9l-8.3-8c-.3-.4-.6-.6-1.1-.6.1 0 .1 0 0 0z"/></symbol>,<symbol id="icon-physical"  xmlns:xlink="http://www.w3.org/1999/xlink" viewBox="0 0 41 41"><defs><path id="a" d="M0 0h40.863v40.862H0z"/></defs><g fill="none" fill-rule="evenodd"><mask id="b" fill="#fff"><use xlink:href="#a"/></mask><path fill="#513B56" d="M29.54 23.757a1.495 1.495 0 0 1-2.09-.319l-2.9-3.95-.073-.195c-.318-.849-.671-1.757-1.016-2.606l-1.378 6.163c.057.105.104.216.14.33 3.59 2.552 3.942 3.34 4.103 3.7.136.301.549 1.223.827 8.598a1.88 1.88 0 0 1-1.807 1.95l-.073.001a1.882 1.882 0 0 1-1.878-1.81c-.104-2.777-.32-6.126-.504-7.133l-.044-.04a.468.468 0 0 0-.055-.133.256.256 0 0 0-.097-.136l-4.916-3.352.003-.005c-.88-.685-1.727-1.705-1.841-3.137-.097-1.22.665-2.743 1.293-4.61.1-.297.254-.86.422-1.512a203.081 203.081 0 0 0-4.358 6.226 1.494 1.494 0 1 1-2.48-1.67c6.688-9.929 7.52-10.125 8.129-10.267 1.108-.255 3.868.246 5.067 1.33.23.208.928.838 3.19 6.873l2.656 3.615a1.494 1.494 0 0 1-.32 2.09zM16.287 36.132a1.881 1.881 0 0 1-2.525.832 1.88 1.88 0 0 1-.832-2.525l4.38-8.645 3.134 2.137-4.157 8.201zm5.596-32.344a2.653 2.653 0 1 1 0 5.307 2.653 2.653 0 0 1 0-5.307zM33.692 0H7.17C3.227 0 0 3.227 0 7.171v26.521c0 3.944 3.227 7.17 7.17 7.17h26.522c3.944 0 7.17-3.226 7.17-7.17V7.172c0-3.945-3.226-7.172-7.17-7.172z" mask="url(#b)"/></g></symbol>,<symbol id="icon-play"  viewBox="0 0 225 225"/>,<symbol id="icon-plus"  viewBox="-35 37 24 24"><path d="M-14.2 47.4H-21c-.2 0-.4-.2-.4-.4v-6.8c0-.5-.3-.8-.8-.8h-1.6c-.5 0-.8.3-.8.8V47c0 .2-.2.4-.4.4h-6.8c-.5 0-.8.3-.8.8v1.6c0 .5.3.8.8.8h6.8c.2 0 .4.2.4.4v6.8c0 .5.3.8.8.8h1.6c.5 0 .8-.3.8-.8V51c0-.2.2-.4.4-.4h6.8c.5 0 .8-.3.8-.8v-1.6c0-.5-.3-.8-.8-.8z"/></symbol>,<symbol id="icon-print"  viewBox="0 0 16 16"><path d="M14.397 2.667h-2.064V1.063C12.333.476 11.857 0 11.27 0H4.73c-.587 0-1.063.476-1.063 1.063v1.604H1.603C.719 2.669.003 3.386 0 4.27v4.127c.002.884.719 1.6 1.603 1.603h2.064v4.537c-.01.613.48 1.119 1.093 1.13h6.813a1.113 1.113 0 0 0 1.094-1.13V10h1.73A1.607 1.607 0 0 0 16 8.397V4.27a1.607 1.607 0 0 0-1.603-1.603zM4.333 1.063c0-.219.178-.396.397-.396h6.54c.22 0 .397.177.397.396v1.604H4.333V1.063zM12 14.537a.443.443 0 0 1-.427.463H4.76a.443.443 0 0 1-.427-.463V8H12v6.537zm3.333-6.14a.936.936 0 0 1-.936.936h-1.73V8h1.666a.333.333 0 1 0 0-.667H1.667a.334.334 0 0 0 0 .667h2v1.333H1.603a.937.937 0 0 1-.936-.936V4.27c0-.517.419-.937.936-.937h12.794c.517 0 .936.42.936.937v4.127z"/><path d="M11 9.667H5a.333.333 0 0 0 0 .666h6a.333.333 0 0 0 0-.666zm0 2.666H5A.333.333 0 1 0 5 13h6a.333.333 0 1 0 0-.667zM14 4h-1.333a.333.333 0 1 0 0 .667H14A.333.333 0 1 0 14 4z"/></symbol>,<symbol id="icon-share"  viewBox="0 0 16 16"><path d="M12.966 10.207c-.829 0-1.613.373-2.136 1.015L5.693 8.724a2.68 2.68 0 0 0 0-1.448l5.137-2.498a2.778 2.778 0 1 0-.513-.978L5.196 6.29a2.759 2.759 0 1 0 0 3.42l5.121 2.49a2.757 2.757 0 1 0 2.649-1.993zm0-8.828a1.655 1.655 0 1 1-1.446 2.46l-.003-.009-.014-.021a1.654 1.654 0 0 1 1.463-2.43zM3.034 9.655a1.655 1.655 0 1 1 0-3.31 1.655 1.655 0 0 1 0 3.31zm9.932 4.966a1.654 1.654 0 0 1-1.46-2.436l.011-.015.003-.009a1.655 1.655 0 1 1 1.446 2.46z"/></symbol>,<symbol id="icon-star"  viewBox="7 -6.2 45.2 45.2"><path stroke-miterlimit="10" d="M29.4-1.7l-4.1 13.4H10.7l11.9 8.5-4.4 13.6 11.5-8.4L41 33.9l-4.3-13.5 11.8-8.8H34z"/></symbol>,<symbol id="icon-stopwatch"  xmlns:xlink="http://www.w3.org/1999/xlink" width="12" height="12"><defs><path id="a" d="M0 0h12v12H0z"/></defs><g fill="none" fill-rule="evenodd"><mask id="b" fill="#fff"><use xlink:href="#a"/></mask><path fill="#00344B" d="M5.441 6.82a.292.292 0 0 1-.118-.235V2.613c0-.16.13-.29.29-.29h.774c.16 0 .29.13.29.29V6.04l1.617 1.176a.29.29 0 0 1 .062.406l-.454.627a.292.292 0 0 1-.407.063L5.441 6.82zM10.84 6A4.837 4.837 0 0 0 6 1.161 4.837 4.837 0 0 0 1.161 6 4.837 4.837 0 0 0 6 10.839 4.837 4.837 0 0 0 10.839 6zM12 6c0 3.315-2.685 6-6 6S0 9.315 0 6s2.685-6 6-6 6 2.685 6 6z" mask="url(#b)"/></g></symbol>,<symbol id="icon-tick"  aria-hidden="true" style="-ms-transform:rotate(360deg);-webkit-transform:rotate(360deg)" transform="rotate(360)" viewBox="0 0 26 26"><path fill="#FFF" d="M22.567 4.73l-1.795-1.219a1.09 1.09 0 0 0-1.507.287l-8.787 12.959-4.039-4.039a1.09 1.09 0 0 0-1.533 0l-1.533 1.536a1.084 1.084 0 0 0 0 1.534L9.582 22c.349.347.895.615 1.387.615s.988-.31 1.307-.774l10.58-15.606a1.085 1.085 0 0 0-.289-1.505z"/></symbol>,<symbol id="icon-time"  class="icon" viewBox="0 0 1024 1024"><path fill="#2D72F1" d="M512 0C229.224 0 0 229.224 0 512s229.224 512 512 512 512-229.224 512-512S794.776 0 512 0zm0 960.634C264.233 960.634 63.366 759.767 63.366 512S264.233 63.366 512 63.366 960.634 264.233 960.634 512 759.767 960.634 512 960.634z"/><path fill="#2D72F1" d="M476.515 182.495h70.97v371.753h-70.97z"/><path fill="#2D72F1" d="M476.515 483.277h371.752v70.97H476.515z"/></symbol>,<symbol id="icon-trash"  viewBox="0 0 32 32"><path d="M6.1 4.1h19.8c.6 0 1.3.5 1.3 1.3l-1.7 23c0 .6-.5 1.3-1.3 1.3H7.8c-.6 0-1.3-.5-1.3-1.3L4.8 5.3c0-.7.5-1.2 1.3-1.2z"/><path fill="#fff" d="M7.3 5.5h17.6c.5 0 1.2.4 1.2 1.2l-1.6 20.9c0 .5-.5 1-1.2 1H8.6c-.5 0-1.2-.4-1.2-1.2L6 6.6c.1-.6.6-1.1 1.3-1.1z"/><path d="M17.5 5.4h-2.7c-.9 0-1.6-.6-1.6-1.6s.6-1.6 1.6-1.6h2.7c.9 0 1.6.6 1.6 1.6-.1.8-.8 1.6-1.6 1.6z"/><path d="M28.2 6.7H3.7c-.4 0-.8-.4-.8-.8V4.8c0-.4.4-.8.8-.8h24.7c.4 0 .8.4.8.8V6c-.2.3-.5.7-1 .7z"/><path fill="#fff" d="M27.7 5.8H4.2c-.2 0-.2-.1-.2-.3v-.4c0-.1.2-.2.2-.2h23.5c.1 0 .1.1.1.3v.4c0 .1 0 .2-.1.2z"/><path d="M11.6 25.1h-1l-.3-14.5h1l.3 14.5zm8.7 0h1l.3-14.5h-1l-.3 14.5zm-4-14.5h-1v14.5h1V10.6z"/></symbol>,<symbol id="icon-twitter-share"  viewBox="0 0 32 32"><path d="M0 0v32h32V0H0zm25.15 12.316c.277 6.156-4.314 13.02-12.44 13.02-2.473 0-4.773-.724-6.71-1.967a8.806 8.806 0 0 0 6.48-1.812 4.38 4.38 0 0 1-4.088-3.04 4.4 4.4 0 0 0 1.976-.074c-2.105-.423-3.557-2.319-3.51-4.347a4.356 4.356 0 0 0 1.98.548A4.385 4.385 0 0 1 7.485 8.8a12.427 12.427 0 0 0 9.021 4.573C15.867 10.636 17.944 8 20.77 8c1.259 0 2.396.53 3.195 1.383a8.758 8.758 0 0 0 2.78-1.062 4.39 4.39 0 0 1-1.924 2.422 8.771 8.771 0 0 0 2.513-.69 8.942 8.942 0 0 1-2.184 2.263z"/></symbol>,<symbol id="icon-twitter"  viewBox="0 0 612 612"><path d="M612 116.258a250.714 250.714 0 0 1-72.088 19.772c25.929-15.527 45.777-40.155 55.184-69.411-24.322 14.379-51.169 24.82-79.775 30.48-22.907-24.437-55.49-39.658-91.63-39.658-69.334 0-125.551 56.217-125.551 125.513 0 9.828 1.109 19.427 3.251 28.606-104.326-5.24-196.835-55.223-258.75-131.174-10.823 18.51-16.98 40.078-16.98 63.101 0 43.559 22.181 81.993 55.835 104.479a125.556 125.556 0 0 1-56.867-15.756v1.568c0 60.806 43.291 111.554 100.693 123.104-10.517 2.83-21.607 4.398-33.08 4.398-8.107 0-15.947-.803-23.634-2.333 15.985 49.907 62.336 86.199 117.253 87.194-42.947 33.654-97.099 53.655-155.916 53.655-10.134 0-20.116-.612-29.944-1.721 55.567 35.681 121.536 56.485 192.438 56.485 230.948 0 357.188-191.291 357.188-357.188l-.421-16.253c24.666-17.593 46.005-39.697 62.794-64.861z"/></symbol>,<symbol id="icon-unlink"  viewBox="-278 369 55 55"><path d="M-232.5 378.5c-3.8-3.8-10.1-3.8-13.9 0l-7 7c-.6.6-.6 1.6 0 2.1.6.6 1.6.6 2.1 0l7-7c1.3-1.3 3-2 4.8-2 1.8 0 3.5.7 4.8 2 1.3 1.3 2 3 2 4.8 0 1.8-.7 3.5-2 4.8l-9.1 9.1c-2.7 2.7-7 2.7-9.7 0-.6-.6-1.6-.6-2.1 0-.6.6-.6 1.6 0 2.1 1.9 1.9 4.4 2.9 7 2.9s5.1-1 7-2.9l9.1-9.1c1.9-1.9 2.9-4.3 2.9-7-.1-2.4-1.1-4.9-2.9-6.8z"/><path d="M-250.8 406.4l-5.9 5.9c-1.3 1.3-3 2-4.8 2-1.8 0-3.5-.7-4.8-2-2.7-2.7-2.7-7 0-9.7l8.6-8.6c1.3-1.3 3-2 4.8-2 1.8 0 3.5.7 4.8 2 .6.6 1.6.6 2.1 0 .6-.6.6-1.6 0-2.1-3.8-3.8-10.1-3.8-13.9 0l-8.6 8.6c-1.9 1.9-2.9 4.3-2.9 7 0 2.6 1 5.1 2.9 7 1.9 1.9 4.3 2.9 7 2.9 2.6 0 5.1-1 7-2.9l5.9-5.9c.6-.6.6-1.6 0-2.1-.6-.6-1.6-.6-2.2-.1z"/></symbol>,<symbol id="icon-video"  viewBox="0 0 8.8 8.8"><circle cx="4.4" cy="4.4" r="4.4" fill="#071F3C"/><path fill="#FFF" d="M6.4 4.1L3.6 2.3c-.3-.2-.6 0-.6.3v3.6c0 .3.3.5.6.3l2.8-1.8c.2-.1.2-.4 0-.6z"/></symbol>,<symbol id="icon-well-being"  viewBox="0 0 41 41"><g fill="#538E9E" fill-rule="evenodd"><path d="M21.796 16.832c1.694 1.994 2.51 4.431 2.863 5.823a7.266 7.266 0 0 0 1.155-.604c2.643-1.735 3.752-5.096 4.141-6.658-1.59-.264-5.126-.58-7.758 1.147-.137.09-.269.191-.4.292m-6.615 5.219c1.248.818 2.696 1.17 4.046 1.293a13.706 13.706 0 0 0 1.15.059h.198c.684-.007 1.297-.06 1.807-.125.182-.027.366-.058.55-.095-.395-1.57-1.51-4.92-4.134-6.643-2.643-1.734-6.168-1.415-7.756-1.149.391 1.563 1.506 4.932 4.14 6.66m4.602-7.015c.25.164.486.34.712.523.232-.187.47-.363.714-.523a9.49 9.49 0 0 1 2.582-1.166c.021-3.146-2.156-5.938-3.239-7.132-1.102 1.178-3.327 3.94-3.352 7.087l.001.045a9.49 9.49 0 0 1 2.582 1.166"/><path d="M34.035 32.608c-2.472 1.247-6.566 3.223-8.658 3.73-.376.18-.725.305-1.018.335-1.946.202-10.065-1.961-11.448-2.336a15.992 15.992 0 0 0-.315-.05l-6.459.614v-5.938s7.3.094 9.965-.417c2.666-.511 3.365-.328 5.34.55.835.37 1.897.737 2.691 1.122.17.082.324.16.484.24l3.837.309c.44.036.774.358.874.764.002.035.011.067.008.103a1 1 0 0 1-1.078.916l-4.085-.334-5.89-1.04v.013c-.036-.007-.067-.02-.104-.02a.5.5 0 1 0-.042.996l5.955 1.048 4.094.334.154.006a2.011 2.011 0 0 0 1.993-1.838 1.94 1.94 0 0 0-.053-.614c.812-.385 1.628-.78 2.403-1.171a1.5 1.5 0 0 1 1.352 2.678M9.745 13.823c.16-.042 2.741-.702 5.678-.32.21-4.827 4.366-8.556 4.547-8.716a.899.899 0 0 1 1.2.009c.177.163 4.226 3.916 4.404 8.708 2.938-.384 5.52.277 5.678.319a.9.9 0 0 1 .658 1.003c-.036.244-.947 5.997-5.109 8.729a9.4 9.4 0 0 1-2.262 1.069c-.089.065-1.125.354-2.22.478-.61.074-1.207.11-1.766.11l-.055-.001h-.055c-.56 0-1.158-.035-1.77-.11-1.093-.123-2.105-.41-2.187-.468a9.318 9.318 0 0 1-2.29-1.078c-4.163-2.732-5.074-8.485-5.11-8.73a.899.899 0 0 1 .658-1.002M33.692 0H7.172C3.226 0 0 3.227 0 7.17v26.52c0 3.945 3.227 7.172 7.171 7.172h26.521c3.944 0 7.17-3.227 7.17-7.171V7.17c0-3.944-3.226-7.17-7.17-7.17"/></g></symbol>,<symbol id="icon-youtube"  viewBox="0 0 24 24"><path d="M0 0v24h24V0H0zm19.71 17.6v-1.38c0-.98-.477-1.595-1.464-1.595-.926 0-1.561.653-1.561 1.595v2.434c0 .976.502 1.677 1.485 1.677 1.083 0 1.54-.632 1.54-1.677v-.408h-1.058v.378c0 .47-.025.758-.46.758-.413 0-.448-.353-.448-.758v-1.025h1.967zm-3.8 1.46v-3.007c0-.735-.25-1.36-1.002-1.36-.367 0-.682.229-.915.506v-2.366h-1.037v7.35h1.037v-.416c.286.35.6.486.977.486.684 0 .94-.522.94-1.194zm-3.958 1.124h-.001v-5.422h-1.029v4.115c-.125.153-.403.407-.604.407-.221 0-.274-.147-.274-.366v-4.156H9.015v4.53c0 1.102.76 1.108 1.316.797.204-.115.4-.284.591-.505v.6h1.029zm-4.12 0H7.83V13.9h1.2v-1.067H5.474V13.9h1.2v6.284h1.157zm10.476-8.906c2.395.16 2.673 1.583 2.692 5.305-.019 3.729-.3 5.146-2.692 5.306-2.214.148-9.406.148-11.616 0-2.394-.16-2.674-1.583-2.692-5.306.018-3.728.3-5.145 2.692-5.305 2.21-.148 9.402-.148 11.616 0zm-4.104 4.329c.18-.09.413-.072.537.089.074.095.11.233.11.417v2.799c0 .173-.029.298-.088.374-.114.145-.359.14-.526.056a.915.915 0 0 1-.245-.191v-3.378a.774.774 0 0 1 .212-.166zm3.999-.034c.37 0 .45.27.448.635v.55h-.908v-.549c0-.373.078-.636.46-.636zM16.329 4.025h1.08v5.693h-1.08v-.629c-.466.544-.921.711-1.247.711-.579 0-.754-.454-.754-1.017V4.025h1.08V8.39c0 .228.057.383.286.383.21 0 .504-.265.635-.426V4.025zM12.31 8.25V5.6c0-.317-.141-.542-.472-.542-.304 0-.45.231-.45.543v2.65c0 .298.173.537.471.537.29 0 .452-.228.452-.538zm-.45-4.272c.875 0 1.552.638 1.552 1.529v2.79c0 .957-.683 1.526-1.552 1.526-1.047 0-1.583-.522-1.583-1.525V5.507c0-.913.632-1.53 1.583-1.53zM6.253 2h1.224l.841 3.085L9.097 2h1.236L8.916 6.588v3.13H7.701v-3.13L6.253 2z"/></symbol></svg>