<svg xmlns="http://www.w3.org/2000/svg" xmlns:xlink="http://www.w3.org/1999/xlink" viewBox="0 0 32 32"><defs><path id="a" d="M0 0h31.999v32H0z"/></defs><path d="M21.73 11.558a1.29 1.29 0 1 1 .002-2.578 1.29 1.29 0 0 1-.002 2.578M16 21.513a5.513 5.513 0 1 1 .002-11.027 5.513 5.513 0 0 1-.003 11.027m8.37-11.844a3.339 3.339 0 0 0-.803-1.235 3.35 3.35 0 0 0-1.235-.803c-.378-.148-.946-.322-1.993-.37-1.133-.051-1.47-.063-4.339-.063-2.865 0-3.205.012-4.337.063-1.047.048-1.615.222-1.993.37a3.35 3.35 0 0 0-1.235.803 3.338 3.338 0 0 0-.803 1.235c-.146.378-.321.946-.37 1.993-.051 1.132-.06 1.472-.06 4.337 0 2.867.009 3.206.06 4.339.049 1.045.224 1.615.37 1.993.195.5.428.859.803 1.234.377.376.733.609 1.235.802.378.148.946.323 1.993.37 1.132.053 1.472.064 4.337.064 2.868 0 3.207-.011 4.339-.063 1.047-.048 1.615-.223 1.993-.37.5-.194.859-.427 1.235-.803a3.34 3.34 0 0 0 .803-1.234c.146-.378.322-.948.369-1.993.052-1.133.063-1.472.063-4.339 0-2.865-.011-3.205-.063-4.337-.047-1.047-.223-1.615-.37-1.993"/><path d="M15.999 12.421a3.579 3.579 0 1 0 0 7.154 3.579 3.579 0 0 0 0-7.154"/><mask id="b" fill="#fff"><use xlink:href="#a"/></mask><path d="M26.67 20.425c-.052 1.143-.233 1.923-.499 2.607a5.258 5.258 0 0 1-1.238 1.901 5.266 5.266 0 0 1-1.902 1.239c-.682.265-1.462.446-2.605.498-1.145.052-1.51.064-4.427.064-2.914 0-3.28-.012-4.425-.064-1.143-.052-1.924-.233-2.605-.498a5.265 5.265 0 0 1-1.902-1.239 5.26 5.26 0 0 1-1.238-1.901c-.266-.684-.447-1.464-.499-2.607-.052-1.144-.065-1.51-.065-4.425 0-2.916.013-3.28.065-4.427.052-1.141.233-1.923.499-2.605a5.27 5.27 0 0 1 1.238-1.902A5.226 5.226 0 0 1 8.97 5.83c.681-.265 1.462-.447 2.605-.499 1.145-.053 1.51-.065 4.425-.065 2.916 0 3.282.012 4.427.065 1.143.052 1.923.234 2.605.5.707.272 1.306.64 1.902 1.236a5.27 5.27 0 0 1 1.238 1.902c.266.682.447 1.464.499 2.605.052 1.147.065 1.51.065 4.427 0 2.914-.013 3.281-.065 4.425zM-.001 32h32V0h-32v32z" mask="url(#b)"/></svg>