<svg xmlns="http://www.w3.org/2000/svg" xmlns:xlink="http://www.w3.org/1999/xlink" viewBox="0 0 41 42"><defs><path id="a" d="M0 .137h41v42H0z"/></defs><g fill="none" fill-rule="evenodd"><path fill="#4D668B" d="M20.72 37.81a.25.25 0 0 0 .023-.024l2.613-2.825c.628-.7.628-1.758 0-2.46a1.598 1.598 0 0 0-1.183-.526c-.451.002-.88.192-1.183.526l-.56.605-.558-.605a1.596 1.596 0 0 0-2.365.001 1.844 1.844 0 0 0 0 2.46l2.613 2.824a.425.425 0 0 0 .6.023"/><g transform="translate(0 -.137)"><mask id="b" fill="#fff"><use xlink:href="#a"/></mask><path fill="#4D668B" d="M20.5 24.687c-2.284 0-4.135-1.897-4.135-4.237 0-2.338 1.85-4.235 4.134-4.235 2.284 0 4.136 1.897 4.136 4.235 0 2.34-1.852 4.237-4.136 4.237M33.805.137H7.195C3.237.137 0 3.454 0 7.507v27.26c0 4.054 3.237 7.37 7.195 7.37h7.068v-9.763c-.914-.04-1.6-.086-1.85-.145-5.337-1.262-9.067-6.066-9.067-11.685 0-1.319 1.044-2.388 2.331-2.388s2.33 1.069 2.33 2.388c0 3.35 2.203 6.22 5.367 7.01 1.17.116 8.86.206 10.159.206.745 0 3.141-.046 3.569-.095 3.395-.552 5.89-3.55 5.89-7.121 0-1.319 1.043-2.388 2.33-2.388 1.287 0 2.33 1.069 2.33 2.388 0 5.933-4.147 10.915-9.861 11.842-.206.033-.594.06-1.055.08v9.671h7.069c3.957 0 7.195-3.316 7.195-7.37V7.508c0-4.053-3.238-7.37-7.195-7.37" mask="url(#b)"/></g></g></svg>