<svg xmlns="http://www.w3.org/2000/svg" viewBox="0 0 14 14"><path d="M1.059 8.255a2.915 2.915 0 0 0-.005 4.113 2.917 2.917 0 0 0 4.118 0L7.74 9.799A2.914 2.914 0 0 0 7.9 5.85a.576.576 0 0 0-.774-.064.576.576 0 0 0-.064.775 1.8 1.8 0 0 1-.091 2.468L4.4 11.6a1.809 1.809 0 0 1-2.577 0 1.808 1.808 0 0 1 .005-2.574l2.44-2.441c.21-.2.21-.574.01-.775a.566.566 0 0 0-.779.005L1.058 8.256l.001-.001zm4.627-4.627a2.905 2.905 0 0 0-.16 3.948c.2.22.538.246.77.06a.56.56 0 0 0 .06-.77 1.806 1.806 0 0 1 .1-2.469l2.569-2.568a1.802 1.802 0 0 1 2.569 0c.72.72.724 1.853.004 2.573L9.157 6.843c-.21.2-.21.574-.01.774.22.207.563.205.78-.004l2.44-2.441a2.917 2.917 0 0 0 0-4.118 2.915 2.915 0 0 0-4.112.005L5.686 3.628z"/></svg>