<svg xmlns="http://www.w3.org/2000/svg" xmlns:xlink="http://www.w3.org/1999/xlink" viewBox="0 0 320 58"><defs><path id="a" d="M0 71.797h434.481V0H0z"/><path id="c" d="M0 71.797h434.481V0H0z"/><path id="e" d="M0 71.797h434.481V0H0z"/><path id="g" d="M0 71.797h434.481V0H0z"/><path id="i" d="M0 71.797h434.481V0H0z"/><path id="k" d="M0 71.797h434.481V0H0z"/><path id="m" d="M0 71.797h434.481V0H0z"/><path id="o" d="M0 71.797h434.481V0H0z"/><path id="q" d="M0 71.797h434.481V0H0z"/><path id="s" d="M0 71.797h434.481V0H0z"/><path id="u" d="M0 71.797h434.481V0H0z"/><path id="w" d="M0 71.797h434.481V0H0z"/></defs><g fill="none" fill-rule="evenodd"><mask id="b" fill="#fff"><use xlink:href="#a"/></mask><path fill="#317DA1" fill-rule="nonzero" d="M15.372 3.18H13.58v20.515h1.79c6.59 0 9.248.057 9.248-10.23 0-10.517-3.063-10.286-9.247-10.286zm26.584 39.932h-8.38c-7.223 0-7.166-1.329-9.825-12.945-1.33-5.894-7.453-5.72-7.453-5.72H13.58V36.35c0 4.797 1.04 6.011 3.468 6.011v.75H-.001v-.75c2.486 0 3.584-1.099 3.584-6.01V8.321C3.583 4.74 2.543 3.18 0 3.18v-.752h15.372c11.5 0 20.746 1.387 20.746 11.038 0 7.86-6.183 10.056-12.423 10.461 5.2-.174 9.245 1.791 12.02 12.193 1.156 4.392 4.739 6.126 6.24 6.243v.75z" mask="url(#b)"/><mask id="d" fill="#fff"><use xlink:href="#c"/></mask><path fill="#317DA1" fill-rule="nonzero" d="M57.468 27.046c0-7.282-1.562-10.4-4.45-10.4-3.063 0-4.913 4.852-4.913 10.4h9.363zm-9.364 2.195c.232 7.226 3.065 9.826 6.937 10.693 3.004.693 7.28-.752 8.553-4.566l.75.288c-.808 3.641-4.622 7.976-12.135 7.976-7.571 0-13.234-6.473-13.234-13.754 0-9.016 6.53-13.986 14.044-13.986 7.28 0 12.136 3.411 12.136 13.35h-17.05z" mask="url(#d)"/><mask id="f" fill="#fff"><use xlink:href="#e"/></mask><path fill="#317DA1" fill-rule="nonzero" d="M74.357 36.293s0 3.814 3.006 3.814c1.503 0 2.543-1.156 3.122-2.543v-8.379c-5.202 1.156-6.128 4.276-6.128 7.108zm19.65 3.178c-.635 2.196-3.466 4.161-7.109 4.161 0 0-5.778 0-6.356-4.912-.809 2.774-3.989 4.912-8.09 4.912-1.099 0-6.937-.462-6.937-5.894 0-6.01 4.798-6.878 14.97-9.363v-3.64c0-6.01-3.354-9.073-7.34-7.05-.926.461-1.734 1.386-.52 1.732.923.231 1.617.81 2.137 1.734.925 1.792.232 3.99-1.559 4.97-1.792.925-4.047.232-4.97-1.56-.637-1.33-.52-2.889.288-3.872.635-.867 1.503-2.196 4.161-3.583 2.601-1.387 5.548-1.214 5.548-1.214 7.57 0 10.69 4.74 10.69 11.558v8.612s0 4.103 2.775 4.045c0 0 1.33 0 1.677-.983l.634.347z" mask="url(#f)"/><mask id="h" fill="#fff"><use xlink:href="#g"/></mask><path fill="#317DA1" fill-rule="nonzero" d="M114.516 25.601c0-6.298-3.063-8.956-6.184-8.956-3.525 0-5.548 2.772-5.548 12.077 0 8.322 1.676 12.078 6.127 12.078 3.062 0 5.316-2.427 5.605-5.316v-9.883zm11.385 16.645l-9.768 1.329c-1.617.289-1.617-1.04-1.617-1.04V38.2c-1.388 3.756-5.837 5.432-9.246 5.432-7.28 0-12.483-4.853-12.483-13.985 0-9.42 6.183-13.755 14.39-13.755 3.582 0 5.894.868 7.34 2.14V6.588c0-2.021-.58-2.716-2.947-3.583v-.693L122.953 0v37.739c0 2.83.577 3.466 2.948 3.756v.751z" mask="url(#h)"/><mask id="j" fill="#fff"><use xlink:href="#i"/></mask><path fill="#317DA1" fill-rule="nonzero" d="M155.281 16.413v.692c-2.718 0-4.682 1.157-8.091 9.247l-8.032 22.02c-1.619 4.854-3.354 6.76-4.566 7.801-1.157.925-3.468 1.271-4.971.577-2.254-1.04-3.293-3.698-2.254-5.952.984-2.253 3.642-3.236 5.894-2.253 1.158.518 1.909 1.444 2.255 2.543.232.807 1.676 1.155 2.948-2.948l1.097-3.005c-1.792-4.104-12.078-25.08-12.078-25.08-1.271-2.66-3.12-2.892-4.161-2.95v-.692h15.892v.692c-3.466 0-1.445 4.22-1.445 4.22l6.011 12.251 2.716-7.396s3.352-9.075-3.641-9.075v-.692h12.426z" mask="url(#j)"/><mask id="l" fill="#fff"><use xlink:href="#k"/></mask><path fill="#00344A" fill-rule="nonzero" d="M167.827 24.966c7.107 0 9.824-.174 9.824-10.864 0-10.98-3.062-10.923-9.824-10.923h-1.042v21.787h1.042zm-1.042 10.23c0 6.992 2.89 7.166 5.78 7.166v.75h-19.013v-.75c2.426 0 3.237-2.025 3.237-5.954V8.958c0-3.583-1.042-5.779-3.585-5.779v-.752h14.623c11.5 0 21.266 1.387 21.266 11.675 0 10.227-9.766 11.615-21.266 11.615h-1.042v9.478z" mask="url(#l)"/><mask id="n" fill="#fff"><use xlink:href="#m"/></mask><path fill="#00344A" fill-rule="nonzero" d="M195.802 36.293s0 3.814 3.005 3.814c1.503 0 2.543-1.156 3.122-2.543v-8.379c-5.203 1.156-6.128 4.276-6.128 7.108zm19.648 3.178c-.634 2.196-3.465 4.161-7.108 4.161 0 0-5.779 0-6.357-4.912-.809 2.774-3.989 4.912-8.09 4.912-1.099 0-6.937-.462-6.937-5.894 0-6.01 4.798-6.878 14.97-9.363v-3.64c0-6.01-3.354-9.073-7.34-7.05-.926.461-1.734 1.386-.52 1.732.924.231 1.617.81 2.137 1.734.925 1.792.232 3.99-1.558 4.97-1.793.925-4.048.232-4.97-1.56-.638-1.33-.522-2.889.287-3.872.635-.867 1.503-2.196 4.161-3.583 2.601-1.387 5.548-1.214 5.548-1.214 7.57 0 10.691 4.74 10.691 11.558v8.612s0 4.103 2.774 4.045c0 0 1.33 0 1.677-.983l.634.347z" mask="url(#n)"/><mask id="p" fill="#fff"><use xlink:href="#o"/></mask><path fill="#00344A" fill-rule="nonzero" d="M232.948 37.968c-.926 2.891-4.392 5.664-8.438 5.664-4.564 0-8.552-1.85-8.552-8.842V17.163h-3.238l-.115-2.195h3.353v-6.3l8.495-1.213v7.513h7.166l-.116 2.195h-7.05v17.453c0 3.238 1.271 4.855 4.391 4.855 1.677 0 2.89-1.04 3.469-1.849l.635.346z" mask="url(#p)"/><mask id="r" fill="#fff"><use xlink:href="#q"/></mask><path fill="#00344A" fill-rule="nonzero" d="M238.13 3.41a4.724 4.724 0 0 1 4.739 4.74c0 2.599-2.138 4.68-4.74 4.68-2.657 0-4.737-2.081-4.737-4.68 0-2.66 2.08-4.74 4.738-4.74zm7.224 39.702h-13.176v-.692c2.196-.695 2.31-3.122 2.31-6.07V22.888c0-2.024-.633-2.832-3.004-3.873v-.751l11.5-2.371V36.35c0 3.178.289 5.49 2.37 6.069v.692z" mask="url(#r)"/><mask id="t" fill="#fff"><use xlink:href="#s"/></mask><path fill="#00344A" fill-rule="nonzero" d="M263.6 27.046c0-7.282-1.562-10.4-4.45-10.4-3.064 0-4.913 4.852-4.913 10.4h9.362zm-9.363 2.195c.231 7.226 3.063 9.826 6.935 10.693 3.004.693 7.281-.752 8.553-4.566l.751.288c-.809 3.641-4.623 7.976-12.136 7.976-7.57 0-13.234-6.473-13.234-13.754 0-9.016 6.531-13.986 14.044-13.986 7.281 0 12.136 3.411 12.136 13.35h-17.049z" mask="url(#t)"/><mask id="v" fill="#fff"><use xlink:href="#u"/></mask><path fill="#00344A" fill-rule="nonzero" d="M301.33 43.112h-13.176v-.692c2.197-.637 2.313-3.18 2.313-6.126V24.909c0-3.065-1.504-4.855-4.335-4.855-1.792 0-3.757 1.735-4.161 3.525v12.83c0 3.179.289 5.432 2.369 6.01v.693h-13.176v-.692c2.195-.637 2.253-3.064 2.253-6.011v-13.58c0-2.025-.578-2.775-2.946-3.815v-.752l11.5-2.37v5.897c1.386-3.295 5.2-5.897 8.61-5.897 4.565 0 8.38 1.85 8.38 8.785v11.617c0 3.177.289 5.605 2.369 6.126v.692z" mask="url(#v)"/><mask id="x" fill="#fff"><use xlink:href="#w"/></mask><path fill="#00344A" fill-rule="nonzero" d="M319.528 37.968c-.926 2.891-4.394 5.664-8.439 5.664-4.565 0-8.553-1.85-8.553-8.842V17.163H299.3l-.116-2.195h3.352v-6.3l8.497-1.213v7.513h7.165l-.115 2.195h-7.05v17.453c0 3.238 1.269 4.855 4.391 4.855 1.676 0 2.89-1.04 3.467-1.849l.637.346z" mask="url(#x)"/></g></svg>