<svg xmlns="http://www.w3.org/2000/svg" xmlns:xlink="http://www.w3.org/1999/xlink" viewBox="0 0 435 81"><defs><path id="a" d="M0 71.797h434.481V0H0z"/></defs><g fill="none" fill-rule="evenodd"><path fill="#317DA1" d="M147.835 60.704v5.81h3.604c1.028 0 1.843-.261 2.446-.785.602-.522.903-1.25.903-2.178 0-.877-.288-1.572-.864-2.081-.576-.511-1.372-.766-2.388-.766h-3.701zm0-1.016h3.28c1.004-.02 1.78-.255 2.33-.71.55-.452.826-1.113.826-1.98 0-.913-.286-1.587-.855-2.021-.57-.433-1.431-.65-2.583-.65h-2.998v5.36zm-1.201 7.842V53.31h4.199c1.523 0 2.679.316 3.467.945.788.628 1.18 1.554 1.18 2.779 0 .736-.2 1.377-.6 1.92-.4.545-.948.934-1.645 1.168.828.183 1.493.589 1.997 1.22a3.4 3.4 0 0 1 .757 2.186c0 1.256-.405 2.238-1.216 2.944-.81.706-1.938 1.058-3.383 1.058h-4.756zm16.771-9.57a4.324 4.324 0 0 0-.791-.069c-.73 0-1.346.203-1.851.61-.504.407-.864.998-1.079 1.772v7.256h-1.162V56.963h1.143l.019 1.68c.618-1.25 1.612-1.875 2.979-1.875.325 0 .583.042.771.127l-.029 1.064zm1.969 4.453c0 1.263.327 2.3.98 3.11.656.81 1.513 1.216 2.575 1.216 1.054 0 1.909-.406 2.563-1.217.654-.81.982-1.88.982-3.207v-.224c0-.808-.15-1.546-.45-2.217-.3-.671-.72-1.19-1.26-1.558-.54-.368-1.16-.551-1.855-.551-1.042 0-1.891.408-2.55 1.225-.656.818-.985 1.887-.985 3.208v.215zm-1.172-.322c0-1.017.197-1.932.59-2.745.395-.813.95-1.447 1.67-1.9.72-.451 1.536-.678 2.447-.678 1.406 0 2.546.493 3.418 1.48.872.985 1.309 2.292 1.309 3.92v.244c0 1.022-.198 1.941-.591 2.76-.394.816-.95 1.446-1.665 1.888-.716.443-1.533.664-2.451.664-1.4 0-2.537-.493-3.413-1.479-.876-.986-1.314-2.293-1.314-3.92v-.235zm18.47 4.1c-.702 1.023-1.825 1.534-3.368 1.534-1.126 0-1.983-.327-2.568-.981-.586-.655-.886-1.623-.9-2.906v-6.875H177v6.729c0 2.012.814 3.018 2.442 3.018 1.692 0 2.763-.701 3.212-2.1v-7.647h1.172V67.53h-1.132l-.02-1.338zm4.731-3.837c0 1.348.271 2.41.811 3.188.54.779 1.301 1.167 2.285 1.167 1.438 0 2.458-.644 3.056-1.933v-4.912c-.273-.677-.667-1.194-1.18-1.548-.516-.355-1.134-.532-1.857-.532-.983 0-1.748.385-2.295 1.157-.547.77-.82 1.909-.82 3.413zm-1.182-.205c0-1.653.367-2.964 1.1-3.931.731-.967 1.726-1.45 2.982-1.45 1.44 0 2.533.573 3.282 1.719l.058-1.524h1.094v10.352c0 1.36-.38 2.438-1.143 3.232-.76.794-1.794 1.192-3.095 1.192a4.699 4.699 0 0 1-2.105-.493c-.667-.33-1.193-.767-1.577-1.314l.654-.703c.828 1.016 1.81 1.523 2.95 1.523.976 0 1.738-.288 2.285-.864.547-.576.83-1.375.85-2.397v-1.328c-.75 1.042-1.84 1.562-3.272 1.562-1.224 0-2.207-.488-2.949-1.465-.743-.976-1.114-2.295-1.114-3.955v-.156zm12.505-3.399a4.122 4.122 0 0 1 1.475-1.465 3.86 3.86 0 0 1 1.963-.517c1.132 0 1.975.32 2.53.957.553.637.832 1.594.84 2.871v6.933h-1.163v-6.943c-.007-.944-.208-1.648-.6-2.109-.395-.462-1.024-.694-1.89-.694a2.96 2.96 0 0 0-1.92.68c-.556.451-.968 1.061-1.235 1.83v7.236h-1.162v-15h1.162v6.221zm11.323-4.492v2.705h2.188v.957h-2.188v7.05c0 .586.105 1.022.317 1.31.212.286.565.43 1.06.43.195 0 .51-.033.947-.098l.049.95c-.306.108-.723.163-1.25.163-.801 0-1.384-.233-1.748-.698-.364-.466-.547-1.15-.547-2.056v-7.05h-1.943v-.958h1.943v-2.705h1.172zm11.289 0v2.705h2.188v.957h-2.188v7.05c0 .586.105 1.022.317 1.31.212.286.565.43 1.06.43.195 0 .51-.033.947-.098l.049.95c-.306.108-.723.163-1.25.163-.801 0-1.384-.233-1.748-.698-.364-.466-.547-1.15-.547-2.056v-7.05h-1.943v-.958h1.943v-2.705h1.172zm4.44 8.154c0 1.264.327 2.3.981 3.11.655.812 1.512 1.217 2.574 1.217 1.054 0 1.91-.406 2.563-1.217.654-.81.982-1.88.982-3.207v-.224c0-.808-.15-1.546-.45-2.217-.299-.671-.719-1.19-1.259-1.558-.54-.368-1.16-.551-1.856-.551-1.042 0-1.89.408-2.549 1.225-.657.818-.986 1.887-.986 3.208v.215zm-1.172-.321c0-1.017.197-1.932.591-2.745.394-.813.95-1.447 1.67-1.9.72-.451 1.535-.678 2.446-.678 1.406 0 2.546.493 3.418 1.48.872.985 1.31 2.292 1.31 3.92v.244c0 1.022-.199 1.941-.592 2.76-.394.816-.949 1.446-1.665 1.888-.716.443-1.533.664-2.45.664-1.4 0-2.538-.493-3.414-1.479-.876-.986-1.314-2.293-1.314-3.92v-.235zm20.059 3.759l3.086-8.887h1.26l-4.512 12.364-.234.546c-.58 1.283-1.475 1.924-2.686 1.924-.28 0-.58-.046-.898-.136l-.01-.967.605.058c.574 0 1.037-.141 1.392-.424.354-.284.656-.77.903-1.46l.518-1.426-3.985-10.479h1.28l3.28 8.887zm6.28-3.437c0 1.263.327 2.3.981 3.11.655.81 1.512 1.216 2.574 1.216 1.054 0 1.91-.406 2.563-1.217.654-.81.982-1.88.982-3.207v-.224c0-.808-.15-1.546-.45-2.217-.299-.671-.719-1.19-1.259-1.558-.54-.368-1.16-.551-1.856-.551-1.042 0-1.89.408-2.549 1.225-.657.818-.986 1.887-.986 3.208v.215zm-1.172-.322c0-1.017.197-1.932.591-2.745.394-.813.95-1.447 1.67-1.9.72-.451 1.535-.678 2.446-.678 1.406 0 2.546.493 3.418 1.48.872.985 1.31 2.292 1.31 3.92v.244c0 1.022-.199 1.941-.592 2.76-.394.816-.949 1.446-1.665 1.888-.716.443-1.533.664-2.45.664-1.4 0-2.538-.493-3.414-1.479-.876-.986-1.314-2.293-1.314-3.92v-.235zm18.47 4.1c-.702 1.023-1.825 1.534-3.368 1.534-1.126 0-1.983-.327-2.568-.981-.586-.655-.886-1.623-.9-2.906v-6.875h1.163v6.729c0 2.012.814 3.018 2.442 3.018 1.692 0 2.763-.701 3.212-2.1v-7.647h1.172V67.53h-1.132l-.02-1.338zm16.388-4.042c0-1.394-.271-2.47-.811-3.228s-1.301-1.137-2.285-1.137c-.75 0-1.383.183-1.904.552-.521.368-.915.906-1.182 1.616v4.765c.586 1.328 1.62 1.993 3.106 1.993.964 0 1.717-.381 2.26-1.143s.816-1.901.816-3.418zm1.172.205c0 1.648-.364 2.954-1.094 3.92-.73.968-1.71 1.45-2.94 1.45-1.471 0-2.584-.546-3.34-1.64l-.048 1.446h-1.094v-15h1.162v5.967c.743-1.153 1.843-1.73 3.3-1.73 1.25 0 2.239.478 2.965 1.432s1.089 2.28 1.089 3.979v.176zm5.454 3.496l3.086-8.887h1.26l-4.512 12.364-.234.546c-.579 1.283-1.475 1.924-2.686 1.924a3.31 3.31 0 0 1-.897-.136l-.01-.967.605.058c.574 0 1.037-.141 1.392-.424.354-.284.656-.77.903-1.46l.518-1.426-3.985-10.479h1.28l3.28 8.887zm11.827.664h8.779v1.016h-10.234v-.909l8.437-12.295h-8.183v-1.015h9.668v.851z"/><mask id="b" fill="#fff"><use xlink:href="#a"/></mask><path fill="#317DA1" d="M314.103 67.53h1.172V56.962h-1.172V67.53zm-.205-13.619c0-.219.071-.406.215-.557.144-.153.339-.229.586-.229.247 0 .444.076.591.23a.773.773 0 0 1 .219.556c0 .22-.073.405-.219.553-.147.15-.344.224-.591.224s-.442-.075-.586-.224a.762.762 0 0 1-.215-.553zm5.381 3.052l.039 1.72c.391-.639.879-1.117 1.465-1.437a4.017 4.017 0 0 1 1.953-.478c1.667 0 2.725.683 3.174 2.05a3.964 3.964 0 0 1 1.514-1.518 4.188 4.188 0 0 1 2.089-.532c2.266 0 3.421 1.237 3.467 3.711v7.05h-1.172v-6.962c-.007-.945-.21-1.644-.61-2.1-.4-.456-1.053-.684-1.958-.684-.84.013-1.55.285-2.129.816-.579.53-.901 1.177-.967 1.938v6.992h-1.172v-7.05c-.006-.906-.219-1.58-.639-2.027-.42-.446-1.067-.669-1.939-.669-.735 0-1.367.21-1.894.63-.528.42-.918 1.043-1.172 1.87v7.246h-1.172V56.963h1.123zm17.563 0l.039 1.72c.39-.639.879-1.117 1.465-1.437a4.017 4.017 0 0 1 1.952-.478c1.667 0 2.725.683 3.174 2.05a3.964 3.964 0 0 1 1.514-1.518 4.188 4.188 0 0 1 2.09-.532c2.265 0 3.42 1.237 3.466 3.711v7.05h-1.172v-6.962c-.007-.945-.21-1.644-.61-2.1-.4-.456-1.053-.684-1.958-.684-.84.013-1.55.285-2.129.816-.579.53-.9 1.177-.967 1.938v6.992h-1.172v-7.05c-.006-.906-.219-1.58-.639-2.027-.42-.446-1.067-.669-1.939-.669-.735 0-1.367.21-1.894.63-.528.42-.918 1.043-1.172 1.87v7.246h-1.172V56.963h1.123zm20.403.801c-.88 0-1.62.322-2.222.967-.602.644-.968 1.511-1.098 2.597h6.338v-.126c-.033-1.016-.323-1.843-.87-2.48-.546-.639-1.262-.958-2.148-.958m.215 9.961c-.9 0-1.711-.222-2.437-.664a4.53 4.53 0 0 1-1.694-1.85c-.403-.792-.605-1.678-.605-2.662v-.42c0-1.015.197-1.93.59-2.744.394-.813.943-1.453 1.646-1.919a4.055 4.055 0 0 1 2.285-.698c1.282 0 2.3.437 3.052 1.313.752.876 1.128 2.073 1.128 3.59v.654h-7.54v.224c0 1.198.344 2.195 1.03 2.993.687.798 1.552 1.197 2.594 1.197.625 0 1.176-.115 1.655-.342.478-.228.913-.593 1.304-1.094l.732.557c-.86 1.243-2.106 1.865-3.74 1.865m11.007-9.766a4.324 4.324 0 0 0-.791-.068c-.73 0-1.346.203-1.851.61-.504.407-.864.998-1.08 1.772v7.256h-1.162V56.963h1.143l.02 1.68c.618-1.25 1.612-1.875 2.979-1.875.324 0 .582.042.77.127l-.029 1.064zm8.183 2.745v5.81h3.604c1.028 0 1.843-.261 2.446-.785.602-.522.903-1.25.903-2.178 0-.877-.288-1.572-.864-2.081-.576-.511-1.372-.766-2.388-.766h-3.7zm0-1.016h3.281c1.003-.02 1.78-.255 2.33-.71.55-.452.825-1.113.825-1.98 0-.913-.286-1.587-.855-2.021-.569-.433-1.43-.65-2.583-.65h-2.998v5.36zm-1.2 7.842V53.31h4.198c1.523 0 2.68.316 3.467.945.788.628 1.181 1.554 1.181 2.779 0 .736-.2 1.377-.6 1.92-.4.545-.949.934-1.646 1.168.828.183 1.493.589 1.997 1.22a3.4 3.4 0 0 1 .757 2.186c0 1.256-.405 2.238-1.216 2.944-.81.706-1.938 1.058-3.383 1.058h-4.756zm11.919 0h1.172V56.962h-1.172V67.53zm-.205-13.619c0-.219.071-.406.215-.557.143-.153.338-.229.586-.229.247 0 .444.076.59.23a.77.77 0 0 1 .22.556c0 .22-.073.405-.22.553-.146.15-.343.224-.59.224-.248 0-.443-.075-.586-.224a.762.762 0 0 1-.215-.553zm4.844 8.502c0 1.263.327 2.3.98 3.11.655.81 1.512 1.216 2.574 1.216 1.054 0 1.91-.406 2.563-1.217.654-.81.982-1.88.982-3.207v-.224c0-.808-.15-1.546-.45-2.217-.298-.671-.718-1.19-1.258-1.558-.54-.368-1.16-.551-1.856-.551-1.042 0-1.891.408-2.55 1.225-.656.818-.985 1.887-.985 3.208v.215zm-1.172-.322c0-1.017.196-1.932.59-2.745.394-.813.95-1.447 1.67-1.9.72-.451 1.535-.678 2.446-.678 1.407 0 2.547.493 3.419 1.48.872.985 1.309 2.292 1.309 3.92v.244c0 1.022-.198 1.941-.591 2.76-.394.816-.95 1.446-1.665 1.888-.716.443-1.533.664-2.451.664-1.4 0-2.537-.493-3.413-1.479-.876-.986-1.314-2.293-1.314-3.92v-.235zm12.812-5.128l.04 1.72c.39-.639.878-1.117 1.464-1.437a4.017 4.017 0 0 1 1.953-.478c1.667 0 2.725.683 3.174 2.05a3.964 3.964 0 0 1 1.514-1.518 4.188 4.188 0 0 1 2.09-.532c2.265 0 3.42 1.237 3.466 3.711v7.05h-1.172v-6.962c-.007-.945-.21-1.644-.61-2.1-.4-.456-1.053-.684-1.958-.684-.84.013-1.55.285-2.129.816-.579.53-.9 1.177-.967 1.938v6.992h-1.172v-7.05c-.006-.906-.219-1.58-.639-2.027-.42-.446-1.067-.669-1.939-.669-.735 0-1.367.21-1.894.63-.528.42-.918 1.043-1.172 1.87v7.246h-1.172V56.963h1.123zm20.402.801c-.879 0-1.619.322-2.222.967-.601.644-.967 1.511-1.097 2.597h6.338v-.126c-.033-1.016-.323-1.843-.87-2.48-.546-.639-1.262-.958-2.148-.958m.215 9.961c-.9 0-1.712-.222-2.438-.664a4.53 4.53 0 0 1-1.694-1.85c-.403-.792-.605-1.678-.605-2.662v-.42c0-1.015.197-1.93.59-2.744.394-.813.943-1.453 1.646-1.919a4.055 4.055 0 0 1 2.285-.698c1.282 0 2.3.437 3.052 1.313.752.876 1.128 2.073 1.128 3.59v.654h-7.539v.224c0 1.198.343 2.195 1.03 2.993.686.798 1.551 1.197 2.593 1.197.625 0 1.176-.115 1.655-.342.478-.228.913-.593 1.304-1.094l.732.557c-.859 1.243-2.106 1.865-3.74 1.865m7.843-13.467v2.705h2.188v.957h-2.188v7.05c0 .586.105 1.022.317 1.31.212.286.565.43 1.06.43.195 0 .511-.033.947-.098l.05.95c-.307.108-.724.163-1.25.163-.802 0-1.385-.233-1.749-.698-.364-.466-.547-1.15-.547-2.056v-7.05h-1.943v-.958h1.943v-2.705h1.172zM15.372 3.18H13.58v20.516h1.79c6.59 0 9.248.057 9.248-10.23 0-10.517-3.063-10.286-9.247-10.286zm26.584 39.933h-8.38c-7.223 0-7.166-1.329-9.825-12.945-1.33-5.894-7.453-5.72-7.453-5.72H13.58V36.35c0 4.797 1.04 6.011 3.468 6.011v.75H-.001v-.75c2.486 0 3.584-1.099 3.584-6.01V8.321C3.583 4.74 2.543 3.18 0 3.18v-.752h15.372c11.5 0 20.746 1.387 20.746 11.038 0 7.86-6.183 10.056-12.423 10.461 5.2-.174 9.245 1.791 12.02 12.193 1.156 4.392 4.739 6.126 6.24 6.243v.75z" mask="url(#b)"/><path fill="#317DA1" d="M57.468 27.046c0-7.282-1.562-10.4-4.45-10.4-3.063 0-4.913 4.852-4.913 10.4h9.363zm-9.364 2.195c.232 7.226 3.065 9.826 6.937 10.693 3.004.693 7.28-.752 8.553-4.566l.75.288c-.808 3.641-4.622 7.976-12.135 7.976-7.571 0-13.234-6.473-13.234-13.754 0-9.016 6.53-13.986 14.044-13.986 7.28 0 12.136 3.411 12.136 13.35h-17.05zm26.253 7.052s0 3.814 3.006 3.814c1.503 0 2.543-1.156 3.122-2.543v-8.379c-5.202 1.156-6.128 4.276-6.128 7.108zm19.65 3.178c-.635 2.196-3.466 4.161-7.109 4.161 0 0-5.778 0-6.356-4.912-.809 2.774-3.989 4.912-8.09 4.912-1.099 0-6.937-.462-6.937-5.894 0-6.01 4.798-6.878 14.97-9.363v-3.64c0-6.01-3.354-9.073-7.34-7.05-.926.461-1.734 1.386-.52 1.732.923.231 1.617.81 2.137 1.734.925 1.792.232 3.99-1.559 4.97-1.792.925-4.047.232-4.97-1.56-.637-1.33-.52-2.889.288-3.872.635-.867 1.503-2.196 4.161-3.583 2.601-1.387 5.548-1.214 5.548-1.214 7.57 0 10.69 4.74 10.69 11.558v8.612s0 4.103 2.775 4.045c0 0 1.33 0 1.677-.983l.634.347zm20.51-13.87c0-6.298-3.064-8.956-6.185-8.956-3.525 0-5.548 2.772-5.548 12.077 0 8.322 1.676 12.078 6.127 12.078 3.062 0 5.316-2.427 5.605-5.316v-9.883zM125.9 42.246l-9.768 1.329c-1.617.289-1.617-1.04-1.617-1.04V38.2c-1.388 3.756-5.837 5.432-9.246 5.432-7.28 0-12.483-4.853-12.483-13.985 0-9.42 6.183-13.755 14.39-13.755 3.582 0 5.894.868 7.34 2.14V6.588c0-2.021-.58-2.716-2.947-3.583v-.693L122.953 0v37.739c0 2.83.577 3.466 2.948 3.756v.751z" mask="url(#b)"/><path fill="#317DA1" d="M155.281 16.413v.692c-2.718 0-4.682 1.157-8.091 9.247l-8.032 22.02c-1.619 4.854-3.354 6.76-4.566 7.801-1.157.925-3.468 1.271-4.971.577-2.254-1.04-3.293-3.698-2.254-5.952.984-2.253 3.642-3.236 5.894-2.253 1.158.518 1.909 1.444 2.255 2.543.232.807 1.676 1.155 2.948-2.948l1.097-3.005c-1.792-4.104-12.078-25.08-12.078-25.08-1.271-2.66-3.12-2.892-4.161-2.95v-.692h15.892v.692c-3.466 0-1.445 4.22-1.445 4.22l6.011 12.251 2.716-7.396s3.352-9.075-3.641-9.075v-.692h12.426z" mask="url(#b)"/><path fill="#00344A" d="M167.827 24.966c7.107 0 9.824-.174 9.824-10.864 0-10.98-3.062-10.923-9.824-10.923h-1.042v21.787h1.042zm-1.042 10.23c0 6.992 2.89 7.166 5.78 7.166v.75h-19.013v-.75c2.426 0 3.237-2.025 3.237-5.954V8.958c0-3.583-1.042-5.779-3.585-5.779v-.752h14.623c11.5 0 21.266 1.387 21.266 11.675 0 10.227-9.766 11.615-21.266 11.615h-1.042v9.478zm29.017 1.097s0 3.814 3.005 3.814c1.503 0 2.543-1.156 3.122-2.543v-8.379c-5.203 1.156-6.128 4.276-6.128 7.108zm19.648 3.178c-.634 2.196-3.465 4.161-7.108 4.161 0 0-5.779 0-6.357-4.912-.809 2.774-3.989 4.912-8.09 4.912-1.099 0-6.937-.462-6.937-5.894 0-6.01 4.798-6.878 14.97-9.363v-3.64c0-6.01-3.354-9.073-7.34-7.05-.926.461-1.734 1.386-.52 1.732.924.231 1.617.81 2.137 1.734.925 1.792.232 3.99-1.558 4.97-1.793.925-4.048.232-4.97-1.56-.638-1.33-.522-2.889.287-3.872.635-.867 1.503-2.196 4.161-3.583 2.601-1.387 5.548-1.214 5.548-1.214 7.57 0 10.691 4.74 10.691 11.558v8.612s0 4.103 2.774 4.045c0 0 1.33 0 1.677-.983l.634.347zm17.498-1.503c-.926 2.891-4.392 5.664-8.438 5.664-4.564 0-8.552-1.85-8.552-8.842V17.163h-3.238l-.115-2.195h3.353v-6.3l8.495-1.213v7.513h7.166l-.116 2.195h-7.05v17.453c0 3.238 1.271 4.855 4.391 4.855 1.677 0 2.89-1.04 3.469-1.849l.635.346z" mask="url(#b)"/><path fill="#00344A" d="M238.13 3.41a4.724 4.724 0 0 1 4.739 4.74c0 2.599-2.138 4.68-4.74 4.68-2.657 0-4.737-2.081-4.737-4.68 0-2.66 2.08-4.74 4.738-4.74zm7.224 39.702h-13.176v-.692c2.196-.695 2.31-3.122 2.31-6.07V22.888c0-2.024-.633-2.832-3.004-3.873v-.751l11.5-2.371V36.35c0 3.178.289 5.49 2.37 6.069v.692zm18.245-16.066c0-7.282-1.56-10.4-4.449-10.4-3.064 0-4.913 4.852-4.913 10.4h9.362zm-9.362 2.195c.231 7.226 3.063 9.826 6.935 10.693 3.004.693 7.281-.752 8.553-4.566l.751.288c-.809 3.641-4.623 7.976-12.136 7.976-7.57 0-13.234-6.473-13.234-13.754 0-9.016 6.531-13.986 14.044-13.986 7.281 0 12.136 3.411 12.136 13.35h-17.049z" mask="url(#b)"/><path fill="#00344A" d="M301.33 43.112h-13.176v-.692c2.197-.637 2.313-3.18 2.313-6.126V24.909c0-3.065-1.504-4.855-4.335-4.855-1.792 0-3.757 1.735-4.161 3.525v12.83c0 3.179.289 5.432 2.369 6.01v.693h-13.176v-.692c2.195-.637 2.253-3.064 2.253-6.011v-13.58c0-2.025-.578-2.775-2.946-3.815v-.752l11.5-2.37v5.897c1.386-3.295 5.2-5.897 8.61-5.897 4.565 0 8.38 1.85 8.38 8.785v11.617c0 3.177.289 5.605 2.369 6.126v.692zm18.198-5.144c-.926 2.891-4.394 5.664-8.439 5.664-4.565 0-8.553-1.85-8.553-8.842V17.163H299.3l-.116-2.195h3.352v-6.3l8.497-1.213v7.513h7.165l-.115 2.195h-7.05v17.453c0 3.238 1.269 4.855 4.391 4.855 1.676 0 2.89-1.04 3.467-1.849l.637.346z" mask="url(#b)"/></g></svg>