<svg xmlns="http://www.w3.org/2000/svg" xmlns:xlink="http://www.w3.org/1999/xlink" viewBox="0 0 172 31"><defs><path id="a" d="M0 48.137h244.618V0H0z"/><path id="c" d="M0 48.137h244.618V0H0z"/><path id="e" d="M0 48.137h244.618V0H0z"/><path id="g" d="M0 48.137h244.618V0H0z"/><path id="i" d="M0 48.137h244.618V0H0z"/><path id="k" d="M0 48.137h244.618V0H0z"/><path id="m" d="M0 48.137h244.618V0H0z"/><path id="o" d="M0 48.137h244.618V0H0z"/><path id="q" d="M0 48.137h244.618V0H0z"/><path id="s" d="M0 48.137h244.618V0H0z"/><path id="u" d="M0 48.137h244.618V0H0z"/><path id="w" d="M0 48.137h244.618V0H0z"/></defs><g fill="none" fill-rule="evenodd"><mask id="b" fill="#fff"><use xlink:href="#a"/></mask><path fill="#317DA1" fill-rule="nonzero" d="M8.292 1.706h-.961v11.006h.961c3.534 0 4.961.03 4.961-5.488 0-5.643-1.644-5.518-4.961-5.518zm14.262 21.423h-4.496c-3.874 0-3.844-.714-5.271-6.944-.713-3.163-3.999-3.07-3.999-3.07H7.331v6.387c0 2.573.558 3.224 1.86 3.224v.403H.045v-.403c1.334 0 1.923-.59 1.923-3.224V4.465c0-1.923-.559-2.76-1.923-2.76v-.403h8.247c6.17 0 11.13.744 11.13 5.922 0 4.217-3.318 5.395-6.665 5.612 2.791-.093 4.96.96 6.448 6.542.62 2.356 2.543 3.286 3.349 3.348v.403z" mask="url(#b)"/><mask id="d" fill="#fff"><use xlink:href="#c"/></mask><path fill="#317DA1" fill-rule="nonzero" d="M30.875 14.51c0-3.907-.837-5.58-2.387-5.58-1.643 0-2.635 2.603-2.635 5.58h5.022zm-5.022 1.177c.124 3.877 1.643 5.272 3.72 5.737 1.613.372 3.906-.403 4.589-2.45l.402.155c-.433 1.953-2.48 4.278-6.51 4.278-4.062 0-7.1-3.472-7.1-7.378 0-4.837 3.504-7.503 7.534-7.503 3.907 0 6.511 1.83 6.511 7.161h-9.146z" mask="url(#d)"/><mask id="f" fill="#fff"><use xlink:href="#e"/></mask><path fill="#317DA1" fill-rule="nonzero" d="M39.937 19.47s0 2.046 1.612 2.046c.807 0 1.365-.62 1.675-1.364v-4.495c-2.79.62-3.287 2.294-3.287 3.813zm10.54 1.705c-.34 1.178-1.858 2.233-3.812 2.233 0 0-3.1 0-3.411-2.636-.433 1.49-2.14 2.636-4.34 2.636-.588 0-3.72-.249-3.72-3.163 0-3.225 2.572-3.69 8.03-5.023V13.27c0-3.224-1.8-4.867-3.938-3.782-.496.248-.93.744-.28.93.496.124.868.434 1.148.93.495.961.124 2.14-.837 2.666-.962.496-2.17.124-2.666-.837-.342-.713-.279-1.55.154-2.077.342-.465.807-1.178 2.234-1.922 1.394-.745 2.974-.65 2.974-.65 4.063 0 5.736 2.541 5.736 6.2v4.62s0 2.201 1.488 2.17c0 0 .714 0 .9-.528l.34.186z" mask="url(#f)"/><mask id="h" fill="#fff"><use xlink:href="#g"/></mask><path fill="#317DA1" fill-rule="nonzero" d="M61.48 13.735c0-3.38-1.642-4.805-3.316-4.805-1.892 0-2.978 1.488-2.978 6.479 0 4.465.9 6.48 3.288 6.48 1.643 0 2.852-1.302 3.007-2.853v-5.301zm6.109 8.929l-5.24.714c-.869.154-.869-.56-.869-.56v-2.324c-.744 2.015-3.13 2.914-4.96 2.914-3.906 0-6.697-2.604-6.697-7.503 0-5.053 3.317-7.378 7.72-7.378 1.922 0 3.162.465 3.937 1.147v-6.14c0-1.084-.31-1.456-1.58-1.921V1.24L66.006 0v20.246c0 1.519.31 1.86 1.582 2.015v.403z" mask="url(#h)"/><mask id="j" fill="#fff"><use xlink:href="#i"/></mask><path fill="#317DA1" fill-rule="nonzero" d="M83.35 8.805v.372c-1.457 0-2.511.62-4.34 4.961L74.7 25.95c-.868 2.604-1.798 3.627-2.45 4.186-.62.495-1.86.682-2.666.31-1.21-.559-1.766-1.985-1.21-3.194.529-1.209 1.955-1.736 3.164-1.209a2.183 2.183 0 0 1 1.209 1.364c.125.434.899.62 1.582-1.58l.588-1.613c-.962-2.2-6.48-13.456-6.48-13.456-.682-1.426-1.673-1.55-2.232-1.58v-.373h8.526v.372c-1.86 0-.776 2.263-.776 2.263l3.226 6.573 1.456-3.969s1.799-4.867-1.953-4.867v-.372h6.667z" mask="url(#j)"/><mask id="l" fill="#fff"><use xlink:href="#k"/></mask><path fill="#00344A" fill-rule="nonzero" d="M90.08 13.394c3.813 0 5.271-.093 5.271-5.83 0-5.89-1.643-5.858-5.27-5.858h-.56v11.688h.56zm-.559 5.488c0 3.75 1.551 3.844 3.102 3.844v.403h-10.2v-.403c1.302 0 1.736-1.085 1.736-3.193V4.806c0-1.922-.558-3.1-1.923-3.1v-.404h7.844c6.17 0 11.41.744 11.41 6.263 0 5.488-5.24 6.232-11.41 6.232h-.559v5.085z" mask="url(#l)"/><mask id="n" fill="#fff"><use xlink:href="#m"/></mask><path fill="#00344A" fill-rule="nonzero" d="M105.088 19.47s0 2.046 1.613 2.046c.806 0 1.364-.62 1.674-1.364v-4.495c-2.79.62-3.287 2.294-3.287 3.813zm10.54 1.705c-.34 1.178-1.857 2.233-3.811 2.233 0 0-3.101 0-3.412-2.636-.433 1.49-2.138 2.636-4.34 2.636-.588 0-3.72-.249-3.72-3.163 0-3.225 2.574-3.69 8.03-5.023V13.27c0-3.224-1.8-4.867-3.937-3.782-.496.248-.93.744-.28.93.496.124.868.434 1.148.93.496.961.124 2.14-.837 2.666-.961.496-2.171.124-2.666-.837-.342-.713-.28-1.55.154-2.077.34-.465.807-1.178 2.233-1.922 1.395-.745 2.976-.65 2.976-.65 4.062 0 5.735 2.541 5.735 6.2v4.62s0 2.201 1.489 2.17c0 0 .713 0 .899-.528l.34.186z" mask="url(#n)"/><mask id="p" fill="#fff"><use xlink:href="#o"/></mask><path fill="#00344A" fill-rule="nonzero" d="M125.017 20.37c-.496 1.55-2.355 3.038-4.526 3.038-2.45 0-4.588-.993-4.588-4.744V9.208h-1.738l-.061-1.178h1.799V4.65l4.556-.65v4.03h3.845l-.062 1.178h-3.783v9.363c0 1.736.683 2.604 2.357 2.604.899 0 1.55-.558 1.86-.992l.34.186z" mask="url(#p)"/><mask id="r" fill="#fff"><use xlink:href="#q"/></mask><path fill="#00344A" fill-rule="nonzero" d="M127.797 1.829a2.534 2.534 0 0 1 2.542 2.543c0 1.395-1.147 2.51-2.542 2.51-1.427 0-2.542-1.115-2.542-2.51a2.514 2.514 0 0 1 2.542-2.543zm3.875 21.3h-7.068v-.372c1.177-.372 1.24-1.675 1.24-3.255v-7.224c0-1.086-.341-1.52-1.613-2.077v-.404l6.17-1.271v10.976c0 1.704.155 2.945 1.27 3.255v.372z" mask="url(#r)"/><mask id="t" fill="#fff"><use xlink:href="#s"/></mask><path fill="#00344A" fill-rule="nonzero" d="M141.46 14.51c0-3.907-.837-5.58-2.387-5.58-1.643 0-2.635 2.603-2.635 5.58h5.023zm-5.022 1.177c.124 3.877 1.643 5.272 3.72 5.737 1.613.372 3.907-.403 4.589-2.45l.402.155c-.433 1.953-2.48 4.278-6.51 4.278-4.062 0-7.1-3.472-7.1-7.378 0-4.837 3.504-7.503 7.534-7.503 3.908 0 6.51 1.83 6.51 7.161h-9.145z" mask="url(#t)"/><mask id="v" fill="#fff"><use xlink:href="#u"/></mask><path fill="#00344A" fill-rule="nonzero" d="M161.702 23.129h-7.069v-.372c1.178-.341 1.241-1.705 1.241-3.286v-6.108c0-1.644-.807-2.604-2.325-2.604-.962 0-2.016.93-2.234 1.89v6.884c0 1.705.156 2.914 1.272 3.224v.372h-7.069v-.372c1.178-.341 1.21-1.643 1.21-3.224v-7.286c0-1.085-.31-1.488-1.582-2.046v-.404l6.17-1.271v3.163c.744-1.768 2.79-3.163 4.62-3.163 2.45 0 4.495.993 4.495 4.713v6.232c0 1.705.155 3.007 1.271 3.286v.372z" mask="url(#v)"/><mask id="x" fill="#fff"><use xlink:href="#w"/></mask><path fill="#00344A" fill-rule="nonzero" d="M171.465 20.37c-.497 1.55-2.356 3.038-4.527 3.038-2.45 0-4.588-.993-4.588-4.744V9.208h-1.737l-.062-1.178h1.799V4.65l4.557-.65v4.03h3.845l-.062 1.178h-3.783v9.363c0 1.736.682 2.604 2.357 2.604.899 0 1.55-.558 1.859-.992l.342.186z" mask="url(#x)"/></g></svg>