<svg xmlns="http://www.w3.org/2000/svg" xmlns:xlink="http://www.w3.org/1999/xlink" viewBox="0 0 245 49"><defs><path id="a" d="M0 .628h8.048V12.45H0z"/><path id="c" d="M0 48.137h244.618V0H0z"/></defs><g fill="none" fill-rule="evenodd"><g transform="translate(0 32.137)"><mask id="b" fill="#fff"><use xlink:href="#a"/></mask><path fill="#317DA1" d="M1.56 6.92v4.256h2.574c.726 0 1.298-.188 1.718-.564.419-.377.629-.894.629-1.555 0-1.424-.775-2.136-2.322-2.136h-2.6zm0-1.25h2.354c.683 0 1.228-.17 1.637-.512.408-.341.613-.805.613-1.391 0-.652-.19-1.125-.568-1.42-.38-.296-.956-.445-1.73-.445H1.56V5.67zM0 12.45V.629h3.866c1.283 0 2.248.265 2.895.796.647.53.97 1.315.97 2.354 0 .553-.156 1.04-.471 1.466-.313.425-.741.754-1.283.987.639.178 1.144.518 1.515 1.019.37.5.556 1.098.556 1.79 0 1.062-.343 1.896-1.031 2.502-.687.607-1.66.909-2.915.909H0z" mask="url(#b)"/></g><path fill="#317DA1" d="M14.365 37.15a4.498 4.498 0 0 0-.739-.057c-.986 0-1.654.42-2.005 1.26v6.235h-1.503v-8.786h1.462l.024 1.015c.492-.785 1.191-1.178 2.095-1.178.293 0 .515.038.666.115v1.396zm2.365 3.143c0 .975.227 1.757.68 2.347.451.59 1.055.885 1.813.885.764 0 1.37-.3 1.82-.897.45-.6.673-1.437.673-2.514 0-.963-.228-1.744-.686-2.342-.457-.598-1.065-.898-1.822-.898-.743 0-1.34.296-1.795.886-.455.59-.683 1.434-.683 2.533zm-1.51-.18c0-.86.17-1.633.507-2.321.34-.687.81-1.218 1.413-1.592.604-.373 1.293-.56 2.068-.56 1.197 0 2.165.415 2.903 1.243.739.828 1.108 1.93 1.108 3.305v.105c0 .855-.163 1.623-.491 2.303a3.739 3.739 0 0 1-1.404 1.587c-.61.379-1.31.568-2.1.568-1.19 0-2.156-.414-2.894-1.242-.74-.828-1.11-1.925-1.11-3.29v-.105zm15.26 3.606c-.585.687-1.443 1.031-2.574 1.031-.937 0-1.651-.27-2.14-.815-.49-.545-.738-1.35-.743-2.416v-5.717h1.502v5.676c0 1.332.542 1.998 1.624 1.998 1.148 0 1.91-.428 2.29-1.283v-6.39h1.503v8.785h-1.43l-.032-.869zm4.869-3.426c0 .99.203 1.77.609 2.335.406.565.974.849 1.705.849.948 0 1.643-.431 2.087-1.291v-4.012c-.46-.84-1.15-1.26-2.071-1.26-.73 0-1.302.285-1.713.854-.411.568-.617 1.41-.617 2.525m-1.511-.17c0-1.37.318-2.46.95-3.268.634-.81 1.473-1.215 2.518-1.215 1.072 0 1.908.38 2.509 1.137l.073-.974h1.373v8.575c0 1.137-.338 2.032-1.012 2.687-.673.656-1.58.983-2.715.983a4.527 4.527 0 0 1-1.86-.405c-.606-.272-1.07-.642-1.388-1.114l.779-.901c.644.796 1.43 1.194 2.363 1.194.73 0 1.3-.206 1.709-.617.409-.412.613-.991.613-1.738v-.755c-.6.693-1.421 1.039-2.461 1.039-1.028 0-1.86-.414-2.497-1.242-.635-.828-.954-1.957-.954-3.386m11.18-3.257c.665-.817 1.53-1.227 2.598-1.227 1.857 0 2.794 1.048 2.81 3.143v5.807h-1.503v-5.815c-.005-.633-.15-1.101-.434-1.404-.284-.304-.727-.455-1.327-.455-.488 0-.915.13-1.284.389-.368.26-.655.6-.86 1.024v6.26h-1.503V32.117h1.503v4.75zm9.707-3.191v2.128h1.64v1.16h-1.64v5.456c0 .353.073.617.22.793.146.176.394.264.747.264.173 0 .41-.031.715-.097v1.21a4.42 4.42 0 0 1-1.154.162c-.672 0-1.177-.203-1.518-.608-.341-.406-.512-.984-.512-1.731v-5.448h-1.6v-1.161h1.6v-2.128h1.502zm9.548 0v2.128h1.641v1.16h-1.64v5.456c0 .353.072.617.22.793.145.176.393.264.746.264.173 0 .411-.031.715-.097v1.21a4.42 4.42 0 0 1-1.154.162c-.672 0-1.177-.203-1.518-.608-.34-.406-.512-.984-.512-1.731v-5.448h-1.6v-1.161h1.6v-2.128h1.502zm4.168 6.618c0 .975.227 1.757.68 2.347.451.59 1.055.885 1.813.885.764 0 1.37-.3 1.82-.897.45-.6.673-1.437.673-2.514 0-.963-.228-1.744-.686-2.342-.457-.598-1.065-.898-1.822-.898-.743 0-1.34.296-1.795.886-.455.59-.683 1.434-.683 2.533zm-1.51-.18c0-.86.17-1.633.507-2.321.34-.687.81-1.218 1.413-1.592.604-.373 1.293-.56 2.068-.56 1.196 0 2.164.415 2.902 1.243.74.828 1.108 1.93 1.108 3.305v.105c0 .855-.163 1.623-.49 2.303a3.739 3.739 0 0 1-1.405 1.587c-.61.379-1.309.568-2.1.568-1.19 0-2.156-.414-2.894-1.242-.74-.828-1.109-1.925-1.109-3.29v-.105zm16.875 2.275l2.046-6.586h1.608l-3.532 10.143c-.547 1.461-1.416 2.192-2.607 2.192l-.285-.024-.56-.106v-1.219l.406.034c.509 0 .905-.104 1.19-.309.285-.206.518-.582.703-1.129l.333-.893-3.135-8.689h1.64l2.193 6.586zm5.83-2.095c0 .975.227 1.757.679 2.347.452.59 1.056.885 1.814.885.764 0 1.37-.3 1.819-.897.45-.6.674-1.437.674-2.514 0-.963-.228-1.744-.686-2.342-.457-.598-1.065-.898-1.822-.898-.743 0-1.34.296-1.795.886-.455.59-.683 1.434-.683 2.533zm-1.51-.18c0-.86.169-1.633.507-2.321.339-.687.81-1.218 1.413-1.592.604-.373 1.293-.56 2.068-.56 1.196 0 2.164.415 2.902 1.243.739.828 1.108 1.93 1.108 3.305v.105c0 .855-.163 1.623-.491 2.303a3.739 3.739 0 0 1-1.404 1.587c-.61.379-1.31.568-2.1.568-1.19 0-2.156-.414-2.894-1.242-.74-.828-1.11-1.925-1.11-3.29v-.105zm15.259 3.606c-.585.687-1.443 1.031-2.574 1.031-.937 0-1.651-.27-2.14-.815-.49-.545-.738-1.35-.743-2.416v-5.717h1.502v5.676c0 1.332.542 1.998 1.624 1.998 1.148 0 1.91-.428 2.29-1.283v-6.39h1.503v8.785h-1.43l-.032-.869zm13.797-3.596c0-1.023-.198-1.814-.593-2.372-.395-.557-.964-.836-1.706-.836-.99 0-1.702.46-2.135 1.38v3.8c.46.922 1.177 1.382 2.152 1.382.72 0 1.28-.28 1.68-.837.402-.558.602-1.397.602-2.517zm1.502.17c0 1.343-.31 2.422-.926 3.236-.617.815-1.445 1.222-2.484 1.222-1.111 0-1.97-.393-2.574-1.177l-.074 1.015h-1.381V32.116h1.503v4.653c.606-.752 1.443-1.13 2.509-1.13 1.067 0 1.904.404 2.514 1.21.608.808.913 1.912.913 3.314v.13zm4.526 2.095l2.046-6.586h1.608l-3.532 10.143c-.547 1.461-1.416 2.192-2.607 2.192l-.285-.024-.56-.106v-1.219l.406.034c.509 0 .905-.104 1.19-.309.285-.206.518-.582.703-1.129l.333-.893-3.135-8.689h1.641l2.192 6.586zm10.516.925h6.764v1.275h-8.608V43.42l6.48-9.379h-6.374v-1.275h8.242v1.138z"/><mask id="d" fill="#fff"><use xlink:href="#c"/></mask><path fill="#317DA1" d="M142.268 44.588h1.503v-8.786h-1.503v8.786zm-.122-11.117c0-.243.075-.449.223-.617.15-.168.369-.252.662-.252.292 0 .514.084.666.252a.887.887 0 0 1 .228.617.855.855 0 0 1-.228.61c-.152.161-.374.243-.666.243-.293 0-.512-.082-.662-.244a.87.87 0 0 1-.223-.609zm5.373 2.331l.04.975c.645-.758 1.514-1.138 2.607-1.138 1.229 0 2.066.472 2.509 1.413a3.322 3.322 0 0 1 1.142-1.022c.468-.26 1.02-.39 1.66-.39 1.928 0 2.907 1.02 2.939 3.06v5.888h-1.501V38.79c0-.628-.144-1.097-.431-1.409-.287-.31-.77-.467-1.445-.467-.558 0-1.021.166-1.39.5-.367.332-.581.781-.641 1.344v5.83h-1.51V38.83c0-1.277-.625-1.916-1.875-1.916-.986 0-1.66.42-2.023 1.26v6.414h-1.502v-8.786h1.42zm14.561 0l.041.975c.644-.758 1.513-1.138 2.606-1.138 1.23 0 2.066.472 2.51 1.413a3.322 3.322 0 0 1 1.141-1.022c.468-.26 1.021-.39 1.66-.39 1.928 0 2.907 1.02 2.94 3.06v5.888h-1.502V38.79c0-.628-.144-1.097-.43-1.409-.288-.31-.77-.467-1.446-.467-.558 0-1.02.166-1.389.5-.368.332-.582.781-.642 1.344v5.83h-1.51V38.83c0-1.277-.625-1.916-1.875-1.916-.986 0-1.66.42-2.023 1.26v6.414h-1.502v-8.786h1.421zm16.587 1.072c-.606 0-1.116.22-1.527.662-.411.442-.666 1.06-.763 1.856h4.401v-.114c-.044-.763-.25-1.355-.617-1.774-.369-.42-.866-.63-1.494-.63m.187 7.877c-1.192 0-2.161-.391-2.908-1.173-.747-.782-1.121-1.83-1.121-3.14v-.275c0-.871.167-1.65.5-2.335.333-.684.798-1.221 1.397-1.607a3.509 3.509 0 0 1 1.945-.581c1.142 0 2.029.377 2.663 1.129.634.752.95 1.83.95 3.232v.625h-5.952c.022.866.275 1.566.759 2.1.484.533 1.101.799 1.848.799.53 0 .979-.108 1.347-.325.368-.217.691-.503.967-.86l.917.714c-.736 1.132-1.84 1.697-3.312 1.697m9.472-7.6a4.498 4.498 0 0 0-.739-.058c-.986 0-1.654.42-2.005 1.26v6.235h-1.503v-8.786h1.462l.024 1.015c.492-.785 1.191-1.178 2.095-1.178.293 0 .515.038.666.115v1.396zm7.293 1.907v4.255h2.574c.726 0 1.298-.188 1.718-.564.42-.377.63-.894.63-1.555 0-1.424-.776-2.136-2.323-2.136h-2.599zm0-1.25h2.354c.683 0 1.228-.17 1.637-.513.408-.34.613-.805.613-1.39 0-.653-.189-1.126-.568-1.42-.379-.297-.956-.446-1.73-.446h-2.306v3.77zm-1.56 6.78V32.765h3.866c1.283 0 2.248.265 2.895.796.647.53.971 1.315.971 2.354 0 .553-.157 1.041-.472 1.466-.313.425-.74.754-1.283.987.64.178 1.144.518 1.515 1.02.371.5.556 1.097.556 1.79 0 1.061-.343 1.895-1.03 2.501-.688.607-1.66.91-2.916.91h-4.102zm10.157 0h1.503v-8.786h-1.503v8.786zm-.122-11.117c0-.243.075-.449.223-.617.15-.168.37-.252.662-.252.292 0 .514.084.667.252a.89.89 0 0 1 .227.617.859.859 0 0 1-.227.61c-.153.161-.375.243-.667.243-.292 0-.512-.082-.662-.244a.87.87 0 0 1-.223-.609zm5.03 6.822c0 .975.227 1.757.679 2.347.452.59 1.056.885 1.814.885.764 0 1.37-.3 1.819-.897.45-.6.674-1.437.674-2.514 0-.963-.228-1.744-.686-2.342-.457-.598-1.065-.898-1.822-.898-.743 0-1.34.296-1.795.886-.455.59-.683 1.434-.683 2.533zm-1.51-.18c0-.86.169-1.633.507-2.321.339-.687.81-1.218 1.413-1.592.604-.373 1.293-.56 2.068-.56 1.196 0 2.164.415 2.902 1.243.739.828 1.108 1.93 1.108 3.305v.105c0 .855-.163 1.623-.491 2.303a3.739 3.739 0 0 1-1.404 1.587c-.61.379-1.309.568-2.1.568-1.19 0-2.156-.414-2.894-1.242-.74-.828-1.109-1.925-1.109-3.29v-.105zm11.268-4.31l.04.974c.645-.758 1.514-1.138 2.607-1.138 1.229 0 2.066.472 2.509 1.413a3.322 3.322 0 0 1 1.142-1.022c.468-.26 1.02-.39 1.66-.39 1.928 0 2.907 1.02 2.939 3.06v5.888h-1.501V38.79c0-.628-.144-1.097-.431-1.409-.287-.31-.77-.467-1.445-.467-.558 0-1.021.166-1.39.5-.367.332-.581.781-.641 1.344v5.83h-1.51V38.83c0-1.277-.625-1.916-1.875-1.916-.986 0-1.66.42-2.023 1.26v6.414h-1.502v-8.786h1.42zm16.586 1.07c-.606 0-1.116.222-1.527.663-.411.442-.666 1.06-.763 1.856h4.4v-.114c-.043-.763-.25-1.355-.616-1.774-.37-.42-.866-.63-1.494-.63m.187 7.877c-1.192 0-2.161-.391-2.908-1.173-.747-.782-1.121-1.83-1.121-3.14v-.275c0-.871.167-1.65.5-2.335.333-.684.798-1.221 1.397-1.607a3.509 3.509 0 0 1 1.945-.581c1.142 0 2.029.377 2.663 1.129.634.752.95 1.83.95 3.232v.625h-5.952c.022.866.275 1.566.759 2.1.484.533 1.1.799 1.848.799.53 0 .979-.108 1.347-.325.368-.217.69-.503.967-.86l.917.714c-.736 1.132-1.84 1.697-3.312 1.697m7.281-11.076v2.128h1.641v1.16h-1.64v5.456c0 .353.072.617.22.793.145.176.393.264.746.264.174 0 .412-.031.716-.097v1.21a4.42 4.42 0 0 1-1.154.162c-.672 0-1.177-.203-1.518-.608-.341-.406-.512-.984-.512-1.731v-5.448h-1.6v-1.161h1.6v-2.128h1.502zM8.292 1.705h-.961v11.007h.961c3.534 0 4.961.03 4.961-5.488 0-5.643-1.644-5.518-4.961-5.518zM22.554 23.13h-4.496c-3.874 0-3.844-.714-5.271-6.944-.713-3.163-3.999-3.07-3.999-3.07H7.331v6.387c0 2.573.558 3.224 1.86 3.224v.403H.045v-.403c1.334 0 1.923-.59 1.923-3.224V4.465c0-1.923-.559-2.76-1.923-2.76v-.403h8.247c6.17 0 11.13.744 11.13 5.922 0 4.217-3.318 5.395-6.665 5.612 2.791-.093 4.96.96 6.448 6.542.62 2.356 2.543 3.286 3.349 3.348v.403z" mask="url(#d)"/><path fill="#317DA1" d="M30.875 14.51c0-3.907-.837-5.58-2.387-5.58-1.643 0-2.635 2.603-2.635 5.58h5.022zm-5.022 1.177c.124 3.877 1.643 5.272 3.72 5.737 1.613.372 3.906-.403 4.589-2.45l.402.155c-.433 1.953-2.48 4.278-6.51 4.278-4.062 0-7.1-3.472-7.1-7.378 0-4.837 3.504-7.503 7.534-7.503 3.907 0 6.511 1.83 6.511 7.161h-9.146zm14.084 3.783s0 2.046 1.612 2.046c.807 0 1.365-.62 1.675-1.364v-4.495c-2.79.62-3.287 2.294-3.287 3.813zm10.54 1.705c-.34 1.178-1.858 2.233-3.812 2.233 0 0-3.1 0-3.411-2.636-.433 1.49-2.14 2.636-4.34 2.636-.588 0-3.72-.249-3.72-3.163 0-3.225 2.572-3.69 8.03-5.023V13.27c0-3.224-1.8-4.867-3.938-3.782-.496.248-.93.744-.28.93.496.124.868.434 1.148.93.495.961.124 2.14-.837 2.666-.962.496-2.17.124-2.666-.837-.342-.713-.279-1.55.154-2.077.342-.465.807-1.178 2.234-1.922 1.394-.745 2.974-.65 2.974-.65 4.063 0 5.736 2.541 5.736 6.2v4.62s0 2.201 1.488 2.17c0 0 .714 0 .9-.528l.34.186zm11.004-7.44c0-3.38-1.644-4.805-3.318-4.805-1.89 0-2.976 1.488-2.976 6.479 0 4.465.899 6.48 3.287 6.48 1.643 0 2.852-1.302 3.007-2.853v-5.301zm6.107 8.929l-5.24.714c-.868.154-.868-.56-.868-.56v-2.324c-.744 2.015-3.13 2.914-4.96 2.914-3.906 0-6.697-2.604-6.697-7.503 0-5.053 3.317-7.378 7.72-7.378 1.922 0 3.162.465 3.937 1.147v-6.14c0-1.084-.31-1.456-1.58-1.921V1.24L66.006 0v20.246c0 1.519.31 1.86 1.582 2.015v.403z" mask="url(#d)"/><path fill="#317DA1" d="M83.35 8.805v.372c-1.457 0-2.511.62-4.34 4.961L74.7 25.95c-.868 2.604-1.798 3.627-2.45 4.186-.62.495-1.86.682-2.666.31-1.21-.559-1.766-1.985-1.21-3.194.529-1.209 1.955-1.736 3.164-1.209a2.183 2.183 0 0 1 1.209 1.364c.125.434.899.62 1.582-1.58l.588-1.613c-.962-2.2-6.48-13.456-6.48-13.456-.682-1.426-1.673-1.55-2.232-1.58v-.373h8.526v.372c-1.86 0-.776 2.263-.776 2.263l3.226 6.573 1.456-3.969s1.799-4.867-1.953-4.867v-.372h6.667z" mask="url(#d)"/><path fill="#00344A" d="M90.08 13.394c3.813 0 5.271-.093 5.271-5.83 0-5.89-1.643-5.858-5.27-5.858h-.56v11.688h.56zm-.559 5.488c0 3.75 1.551 3.844 3.102 3.844v.403h-10.2v-.403c1.302 0 1.736-1.085 1.736-3.193V4.806c0-1.922-.558-3.1-1.923-3.1v-.404h7.844c6.17 0 11.41.744 11.41 6.263 0 5.488-5.24 6.232-11.41 6.232h-.559v5.085zm15.567.588s0 2.046 1.613 2.046c.806 0 1.364-.62 1.674-1.364v-4.495c-2.79.62-3.287 2.294-3.287 3.813zm10.54 1.705c-.34 1.178-1.857 2.233-3.811 2.233 0 0-3.101 0-3.412-2.636-.433 1.49-2.138 2.636-4.34 2.636-.588 0-3.72-.249-3.72-3.163 0-3.225 2.574-3.69 8.03-5.023V13.27c0-3.224-1.8-4.867-3.937-3.782-.496.248-.93.744-.28.93.496.124.868.434 1.148.93.496.961.124 2.14-.837 2.666-.961.496-2.171.124-2.666-.837-.342-.713-.28-1.55.154-2.077.34-.465.807-1.178 2.233-1.922 1.395-.745 2.976-.65 2.976-.65 4.062 0 5.735 2.541 5.735 6.2v4.62s0 2.201 1.489 2.17c0 0 .713 0 .899-.528l.34.186zm9.389-.806c-.496 1.55-2.355 3.04-4.526 3.04-2.45 0-4.588-.994-4.588-4.745V9.208h-1.738l-.061-1.178h1.799V4.65l4.556-.65v4.03h3.845l-.062 1.178h-3.783v9.363c0 1.736.683 2.604 2.357 2.604.899 0 1.55-.558 1.86-.992l.34.186z" mask="url(#d)"/><path fill="#00344A" d="M127.797 1.829a2.534 2.534 0 0 1 2.542 2.543c0 1.395-1.147 2.51-2.542 2.51-1.427 0-2.542-1.115-2.542-2.51a2.514 2.514 0 0 1 2.542-2.543zm3.875 21.3h-7.068v-.372c1.177-.372 1.24-1.675 1.24-3.255v-7.224c0-1.086-.341-1.52-1.613-2.077v-.404l6.17-1.271v10.976c0 1.704.155 2.945 1.27 3.255v.372zm9.789-8.62c0-3.906-.838-5.58-2.388-5.58-1.643 0-2.635 2.604-2.635 5.58h5.023zm-5.023 1.178c.124 3.877 1.643 5.272 3.72 5.737 1.613.372 3.907-.403 4.589-2.45l.402.155c-.433 1.953-2.48 4.278-6.51 4.278-4.062 0-7.1-3.472-7.1-7.378 0-4.837 3.504-7.503 7.534-7.503 3.908 0 6.51 1.83 6.51 7.161h-9.145z" mask="url(#d)"/><path fill="#00344A" d="M161.702 23.129h-7.069v-.372c1.178-.341 1.241-1.705 1.241-3.286v-6.108c0-1.644-.807-2.604-2.325-2.604-.962 0-2.016.93-2.234 1.89v6.884c0 1.705.156 2.914 1.272 3.224v.372h-7.069v-.372c1.178-.341 1.21-1.643 1.21-3.224v-7.286c0-1.085-.31-1.488-1.582-2.046v-.404l6.17-1.271v3.163c.744-1.768 2.79-3.163 4.62-3.163 2.45 0 4.495.993 4.495 4.713v6.232c0 1.705.155 3.007 1.271 3.286v.372zm9.763-2.76c-.497 1.55-2.356 3.04-4.527 3.04-2.45 0-4.588-.994-4.588-4.745V9.208h-1.737l-.062-1.178h1.799V4.65l4.557-.65v4.03h3.845l-.062 1.178h-3.783v9.363c0 1.736.682 2.604 2.357 2.604.899 0 1.55-.558 1.859-.992l.342.186z" mask="url(#d)"/></g></svg>