<svg xmlns="http://www.w3.org/2000/svg" xmlns:xlink="http://www.w3.org/1999/xlink" viewBox="0 0 41 41"><defs><path id="a" d="M0 0h40.863v40.862H0z"/></defs><g fill="none" fill-rule="evenodd"><mask id="b" fill="#fff"><use xlink:href="#a"/></mask><path fill="#513B56" d="M29.54 23.757a1.495 1.495 0 0 1-2.09-.319l-2.9-3.95-.073-.195c-.318-.849-.671-1.757-1.016-2.606l-1.378 6.163c.057.105.104.216.14.33 3.59 2.552 3.942 3.34 4.103 3.7.136.301.549 1.223.827 8.598a1.88 1.88 0 0 1-1.807 1.95l-.073.001a1.882 1.882 0 0 1-1.878-1.81c-.104-2.777-.32-6.126-.504-7.133l-.044-.04a.468.468 0 0 0-.055-.133.256.256 0 0 0-.097-.136l-4.916-3.352.003-.005c-.88-.685-1.727-1.705-1.841-3.137-.097-1.22.665-2.743 1.293-4.61.1-.297.254-.86.422-1.512a203.081 203.081 0 0 0-4.358 6.226 1.494 1.494 0 1 1-2.48-1.67c6.688-9.929 7.52-10.125 8.129-10.267 1.108-.255 3.868.246 5.067 1.33.23.208.928.838 3.19 6.873l2.656 3.615a1.494 1.494 0 0 1-.32 2.09zM16.287 36.132a1.881 1.881 0 0 1-2.525.832 1.88 1.88 0 0 1-.832-2.525l4.38-8.645 3.134 2.137-4.157 8.201zm5.596-32.344a2.653 2.653 0 1 1 0 5.307 2.653 2.653 0 0 1 0-5.307zM33.692 0H7.17C3.227 0 0 3.227 0 7.171v26.521c0 3.944 3.227 7.17 7.17 7.17h26.522c3.944 0 7.17-3.226 7.17-7.17V7.172c0-3.945-3.226-7.172-7.17-7.172z" mask="url(#b)"/></g></svg>