<svg xmlns="http://www.w3.org/2000/svg" viewBox="0 0 16 16"><path d="M14.397 2.667h-2.064V1.063C12.333.476 11.857 0 11.27 0H4.73c-.587 0-1.063.476-1.063 1.063v1.604H1.603C.719 2.669.003 3.386 0 4.27v4.127c.002.884.719 1.6 1.603 1.603h2.064v4.537c-.01.613.48 1.119 1.093 1.13h6.813a1.113 1.113 0 0 0 1.094-1.13V10h1.73A1.607 1.607 0 0 0 16 8.397V4.27a1.607 1.607 0 0 0-1.603-1.603zM4.333 1.063c0-.219.178-.396.397-.396h6.54c.22 0 .397.177.397.396v1.604H4.333V1.063zM12 14.537a.443.443 0 0 1-.427.463H4.76a.443.443 0 0 1-.427-.463V8H12v6.537zm3.333-6.14a.936.936 0 0 1-.936.936h-1.73V8h1.666a.333.333 0 1 0 0-.667H1.667a.334.334 0 0 0 0 .667h2v1.333H1.603a.937.937 0 0 1-.936-.936V4.27c0-.517.419-.937.936-.937h12.794c.517 0 .936.42.936.937v4.127z"/><path d="M11 9.667H5a.333.333 0 0 0 0 .666h6a.333.333 0 0 0 0-.666zm0 2.666H5A.333.333 0 1 0 5 13h6a.333.333 0 1 0 0-.667zM14 4h-1.333a.333.333 0 1 0 0 .667H14A.333.333 0 1 0 14 4z"/></svg>