<svg xmlns="http://www.w3.org/2000/svg" viewBox="0 0 16 16"><path d="M12.966 10.207c-.829 0-1.613.373-2.136 1.015L5.693 8.724a2.68 2.68 0 0 0 0-1.448l5.137-2.498a2.778 2.778 0 1 0-.513-.978L5.196 6.29a2.759 2.759 0 1 0 0 3.42l5.121 2.49a2.757 2.757 0 1 0 2.649-1.993zm0-8.828a1.655 1.655 0 1 1-1.446 2.46l-.003-.009-.014-.021a1.654 1.654 0 0 1 1.463-2.43zM3.034 9.655a1.655 1.655 0 1 1 0-3.31 1.655 1.655 0 0 1 0 3.31zm9.932 4.966a1.654 1.654 0 0 1-1.46-2.436l.011-.015.003-.009a1.655 1.655 0 1 1 1.446 2.46z"/></svg>