<svg xmlns="http://www.w3.org/2000/svg" xmlns:xlink="http://www.w3.org/1999/xlink" width="12" height="12"><defs><path id="a" d="M0 0h12v12H0z"/></defs><g fill="none" fill-rule="evenodd"><mask id="b" fill="#fff"><use xlink:href="#a"/></mask><path fill="#00344B" d="M5.441 6.82a.292.292 0 0 1-.118-.235V2.613c0-.16.13-.29.29-.29h.774c.16 0 .29.13.29.29V6.04l1.617 1.176a.29.29 0 0 1 .062.406l-.454.627a.292.292 0 0 1-.407.063L5.441 6.82zM10.84 6A4.837 4.837 0 0 0 6 1.161 4.837 4.837 0 0 0 1.161 6 4.837 4.837 0 0 0 6 10.839 4.837 4.837 0 0 0 10.839 6zM12 6c0 3.315-2.685 6-6 6S0 9.315 0 6s2.685-6 6-6 6 2.685 6 6z" mask="url(#b)"/></g></svg>