<svg xmlns="http://www.w3.org/2000/svg" viewBox="0 0 32 32"><path d="M6.1 4.1h19.8c.6 0 1.3.5 1.3 1.3l-1.7 23c0 .6-.5 1.3-1.3 1.3H7.8c-.6 0-1.3-.5-1.3-1.3L4.8 5.3c0-.7.5-1.2 1.3-1.2z"/><path fill="#fff" d="M7.3 5.5h17.6c.5 0 1.2.4 1.2 1.2l-1.6 20.9c0 .5-.5 1-1.2 1H8.6c-.5 0-1.2-.4-1.2-1.2L6 6.6c.1-.6.6-1.1 1.3-1.1z"/><path d="M17.5 5.4h-2.7c-.9 0-1.6-.6-1.6-1.6s.6-1.6 1.6-1.6h2.7c.9 0 1.6.6 1.6 1.6-.1.8-.8 1.6-1.6 1.6z"/><path d="M28.2 6.7H3.7c-.4 0-.8-.4-.8-.8V4.8c0-.4.4-.8.8-.8h24.7c.4 0 .8.4.8.8V6c-.2.3-.5.7-1 .7z"/><path fill="#fff" d="M27.7 5.8H4.2c-.2 0-.2-.1-.2-.3v-.4c0-.1.2-.2.2-.2h23.5c.1 0 .1.1.1.3v.4c0 .1 0 .2-.1.2z"/><path d="M11.6 25.1h-1l-.3-14.5h1l.3 14.5zm8.7 0h1l.3-14.5h-1l-.3 14.5zm-4-14.5h-1v14.5h1V10.6z"/></svg>