<svg xmlns="http://www.w3.org/2000/svg" viewBox="0 0 32 32"><path d="M0 0v32h32V0H0zm25.15 12.316c.277 6.156-4.314 13.02-12.44 13.02-2.473 0-4.773-.724-6.71-1.967a8.806 8.806 0 0 0 6.48-1.812 4.38 4.38 0 0 1-4.088-3.04 4.4 4.4 0 0 0 1.976-.074c-2.105-.423-3.557-2.319-3.51-4.347a4.356 4.356 0 0 0 1.98.548A4.385 4.385 0 0 1 7.485 8.8a12.427 12.427 0 0 0 9.021 4.573C15.867 10.636 17.944 8 20.77 8c1.259 0 2.396.53 3.195 1.383a8.758 8.758 0 0 0 2.78-1.062 4.39 4.39 0 0 1-1.924 2.422 8.771 8.771 0 0 0 2.513-.69 8.942 8.942 0 0 1-2.184 2.263z"/></svg>