<?xml version="1.0" standalone="no"?>
<!DOCTYPE svg PUBLIC "-//W3C//DTD SVG 20010904//EN"
 "http://www.w3.org/TR/2001/REC-SVG-20010904/DTD/svg10.dtd">
<svg version="1.0" xmlns="http://www.w3.org/2000/svg"
 width="332.000000pt" height="69.000000pt" viewBox="0 0 332.000000 69.000000"
 preserveAspectRatio="xMidYMid meet">
<metadata>
Created by potrace 1.16, written by Peter Selinger 2001-2019
</metadata>
<g transform="translate(0.000000,69.000000) scale(0.100000,-0.100000)"
fill="#000000" stroke="none">
<path d="M62 547 l-63 -32 3 -185 c4 -202 12 -240 54 -240 32 0 60 33 73 85
12 49 15 405 4 404 -5 0 -36 -15 -71 -32z"/>
<path d="M450 390 c0 -5 7 -10 15 -10 12 0 15 -19 15 -115 0 -63 5 -125 11
-138 23 -51 104 -63 144 -22 24 23 25 30 25 145 0 98 3 122 15 126 28 11 15
24 -25 24 -22 0 -40 -4 -40 -10 0 -5 7 -10 15 -10 22 0 27 -37 23 -150 -3 -93
-5 -104 -27 -121 -29 -24 -43 -24 -71 -1 -20 16 -21 26 -21 140 0 108 2 125
18 138 16 12 12 13 -39 14 -32 0 -58 -4 -58 -10z"/>
<path d="M1453 386 c11 -9 17 -27 17 -55 0 -39 -1 -41 -21 -31 -29 16 -63 5
-85 -27 -23 -36 -24 -121 -2 -155 22 -33 64 -44 87 -23 20 17 35 20 26 5 -4
-6 7 -10 24 -10 17 0 31 5 31 10 0 6 -4 10 -10 10 -6 0 -10 55 -10 145 l0 145
-37 0 c-34 -1 -36 -2 -20 -14z"/>
<path d="M1550 391 c0 -5 7 -11 15 -15 12 -4 15 -29 15 -135 0 -113 -2 -131
-17 -140 -14 -8 -4 -10 42 -11 57 0 58 1 37 16 -19 13 -22 24 -22 75 l0 59 50
0 50 0 0 -65 c0 -50 -4 -66 -17 -74 -14 -8 -4 -10 42 -11 57 0 58 1 37 16 -21
14 -22 22 -22 140 0 102 3 126 15 130 31 12 13 24 -35 24 -48 0 -66 -12 -35
-24 11 -4 15 -21 15 -61 l0 -55 -50 0 -50 0 0 54 c0 44 4 56 23 69 21 15 20
16 -35 16 -32 1 -58 -3 -58 -8z"/>
<path d="M2160 391 c0 -5 7 -11 15 -15 12 -4 15 -28 15 -129 0 -99 -3 -127
-15 -137 -13 -11 -15 -8 -16 16 l0 29 -12 -25 c-9 -22 -12 -14 -17 60 -3 47
-9 90 -13 97 -14 22 -75 27 -102 9 -30 -20 -36 -70 -7 -64 11 3 16 12 15 30
-1 18 4 28 16 31 28 7 51 -11 51 -41 0 -22 -9 -32 -47 -52 -55 -30 -68 -48
-60 -82 9 -33 50 -45 82 -24 18 12 25 12 36 1 10 -9 32 -11 83 -6 61 5 67 8
53 20 -14 11 -17 35 -17 152 l0 139 -30 0 c-16 0 -30 -4 -30 -9z"/>
<path d="M2380 391 c0 -5 6 -11 14 -14 19 -7 16 -248 -4 -272 -11 -13 -7 -15
35 -15 47 0 48 0 30 20 -25 28 -17 132 13 162 17 18 23 19 36 8 12 -9 16 -33
16 -101 l0 -89 37 0 c31 0 34 2 21 13 -12 9 -17 34 -20 95 -3 69 -7 86 -23 98
-24 18 -50 18 -69 -1 -23 -24 -26 -19 -26 45 l0 60 -30 0 c-16 0 -30 -4 -30
-9z"/>
<path d="M710 301 c-21 -6 -22 -8 -7 -14 14 -5 17 -20 17 -91 0 -70 -3 -87
-17 -95 -14 -8 -5 -10 37 -10 42 0 51 2 38 10 -26 15 -26 137 0 170 12 14 25
20 35 16 14 -5 17 -22 17 -102 l0 -95 38 0 c30 1 34 3 20 11 -15 8 -18 24 -18
93 0 68 -3 86 -18 99 -25 22 -44 21 -76 -4 l-26 -20 0 20 c0 22 -1 23 -40 12z"/>
<path d="M1198 295 c-49 -27 -61 -118 -22 -173 35 -50 104 -50 129 -1 17 33
18 39 6 39 -5 0 -12 -11 -15 -25 -8 -30 -51 -44 -72 -23 -16 16 -35 74 -26 82
3 3 32 6 64 6 63 0 65 3 44 55 -22 53 -59 66 -108 40z"/>
<path d="M1854 298 c-73 -35 -60 -184 18 -210 35 -12 76 6 88 38 15 38 4 42
-15 5 -29 -57 -95 -28 -95 41 0 28 1 28 61 28 l62 0 -7 33 c-7 35 -47 77 -74
76 -9 0 -27 -5 -38 -11z"/>
<path d="M2802 294 c-27 -19 -26 -57 2 -62 16 -3 18 0 13 26 -4 22 -2 32 9 36
26 10 54 -12 54 -43 0 -24 -7 -33 -47 -52 -55 -28 -68 -46 -59 -82 8 -34 47
-45 80 -24 21 14 25 14 40 -1 12 -12 21 -14 33 -6 20 13 35 51 23 59 -6 4 -10
-3 -10 -14 0 -12 -4 -21 -10 -21 -6 0 -10 33 -10 80 0 67 -3 83 -20 100 -24
24 -67 26 -98 4z"/>
<path d="M3149 297 c-44 -33 -54 -135 -19 -180 39 -49 118 -42 135 13 10 33
-2 35 -17 3 -28 -58 -98 -30 -98 39 0 28 1 28 61 28 l62 0 -7 33 c-11 59 -77
95 -117 64z"/>
</g>
</svg>
