<svg xmlns="http://www.w3.org/2000/svg" viewBox="0 0 41 41"><g fill="#538E9E" fill-rule="evenodd"><path d="M21.796 16.832c1.694 1.994 2.51 4.431 2.863 5.823a7.266 7.266 0 0 0 1.155-.604c2.643-1.735 3.752-5.096 4.141-6.658-1.59-.264-5.126-.58-7.758 1.147-.137.09-.269.191-.4.292m-6.615 5.219c1.248.818 2.696 1.17 4.046 1.293a13.706 13.706 0 0 0 1.15.059h.198c.684-.007 1.297-.06 1.807-.125.182-.027.366-.058.55-.095-.395-1.57-1.51-4.92-4.134-6.643-2.643-1.734-6.168-1.415-7.756-1.149.391 1.563 1.506 4.932 4.14 6.66m4.602-7.015c.25.164.486.34.712.523.232-.187.47-.363.714-.523a9.49 9.49 0 0 1 2.582-1.166c.021-3.146-2.156-5.938-3.239-7.132-1.102 1.178-3.327 3.94-3.352 7.087l.001.045a9.49 9.49 0 0 1 2.582 1.166"/><path d="M34.035 32.608c-2.472 1.247-6.566 3.223-8.658 3.73-.376.18-.725.305-1.018.335-1.946.202-10.065-1.961-11.448-2.336a15.992 15.992 0 0 0-.315-.05l-6.459.614v-5.938s7.3.094 9.965-.417c2.666-.511 3.365-.328 5.34.55.835.37 1.897.737 2.691 1.122.17.082.324.16.484.24l3.837.309c.44.036.774.358.874.764.002.035.011.067.008.103a1 1 0 0 1-1.078.916l-4.085-.334-5.89-1.04v.013c-.036-.007-.067-.02-.104-.02a.5.5 0 1 0-.042.996l5.955 1.048 4.094.334.154.006a2.011 2.011 0 0 0 1.993-1.838 1.94 1.94 0 0 0-.053-.614c.812-.385 1.628-.78 2.403-1.171a1.5 1.5 0 0 1 1.352 2.678M9.745 13.823c.16-.042 2.741-.702 5.678-.32.21-4.827 4.366-8.556 4.547-8.716a.899.899 0 0 1 1.2.009c.177.163 4.226 3.916 4.404 8.708 2.938-.384 5.52.277 5.678.319a.9.9 0 0 1 .658 1.003c-.036.244-.947 5.997-5.109 8.729a9.4 9.4 0 0 1-2.262 1.069c-.089.065-1.125.354-2.22.478-.61.074-1.207.11-1.766.11l-.055-.001h-.055c-.56 0-1.158-.035-1.77-.11-1.093-.123-2.105-.41-2.187-.468a9.318 9.318 0 0 1-2.29-1.078c-4.163-2.732-5.074-8.485-5.11-8.73a.899.899 0 0 1 .658-1.002M33.692 0H7.172C3.226 0 0 3.227 0 7.17v26.52c0 3.945 3.227 7.172 7.171 7.172h26.521c3.944 0 7.17-3.227 7.17-7.171V7.17c0-3.944-3.226-7.17-7.17-7.17"/></g></svg>