<svg xmlns="http://www.w3.org/2000/svg" viewBox="0 0 24 24"><path d="M0 0v24h24V0H0zm19.71 17.6v-1.38c0-.98-.477-1.595-1.464-1.595-.926 0-1.561.653-1.561 1.595v2.434c0 .976.502 1.677 1.485 1.677 1.083 0 1.54-.632 1.54-1.677v-.408h-1.058v.378c0 .47-.025.758-.46.758-.413 0-.448-.353-.448-.758v-1.025h1.967zm-3.8 1.46v-3.007c0-.735-.25-1.36-1.002-1.36-.367 0-.682.229-.915.506v-2.366h-1.037v7.35h1.037v-.416c.286.35.6.486.977.486.684 0 .94-.522.94-1.194zm-3.958 1.124h-.001v-5.422h-1.029v4.115c-.125.153-.403.407-.604.407-.221 0-.274-.147-.274-.366v-4.156H9.015v4.53c0 1.102.76 1.108 1.316.797.204-.115.4-.284.591-.505v.6h1.029zm-4.12 0H7.83V13.9h1.2v-1.067H5.474V13.9h1.2v6.284h1.157zm10.476-8.906c2.395.16 2.673 1.583 2.692 5.305-.019 3.729-.3 5.146-2.692 5.306-2.214.148-9.406.148-11.616 0-2.394-.16-2.674-1.583-2.692-5.306.018-3.728.3-5.145 2.692-5.305 2.21-.148 9.402-.148 11.616 0zm-4.104 4.329c.18-.09.413-.072.537.089.074.095.11.233.11.417v2.799c0 .173-.029.298-.088.374-.114.145-.359.14-.526.056a.915.915 0 0 1-.245-.191v-3.378a.774.774 0 0 1 .212-.166zm3.999-.034c.37 0 .45.27.448.635v.55h-.908v-.549c0-.373.078-.636.46-.636zM16.329 4.025h1.08v5.693h-1.08v-.629c-.466.544-.921.711-1.247.711-.579 0-.754-.454-.754-1.017V4.025h1.08V8.39c0 .228.057.383.286.383.21 0 .504-.265.635-.426V4.025zM12.31 8.25V5.6c0-.317-.141-.542-.472-.542-.304 0-.45.231-.45.543v2.65c0 .298.173.537.471.537.29 0 .452-.228.452-.538zm-.45-4.272c.875 0 1.552.638 1.552 1.529v2.79c0 .957-.683 1.526-1.552 1.526-1.047 0-1.583-.522-1.583-1.525V5.507c0-.913.632-1.53 1.583-1.53zM6.253 2h1.224l.841 3.085L9.097 2h1.236L8.916 6.588v3.13H7.701v-3.13L6.253 2z"/></svg>